<?xml version="1.0" encoding="UTF-8"?>
<svg xmlns="http://www.w3.org/2000/svg" xmlns:xlink="http://www.w3.org/1999/xlink" version="1.2" >
<font id="PFHighwaySansPro-Light">
<font-face  font-family="PF Highway Sans Pro" units-per-em="1000" ascent="750" descent="-250" font-style="normal" font-weight="300" font-stretch="normal" cap-height="651" x-height="488" underline-position="-80" underline-thickness="40" />
<missing-glyph  horiz-adv-x="439" d="M0 700 L439 700 L439 0 L0 0 L0 700 Z M363 46 L219 308 L75 46 L363 46 Z M363 654 L75 654 L219 392 L363 654 Z M46 86 L191 350 L46 614 L46 86 Z M393 86 L393 616 L247 350 L393 86 Z " />
<glyph glyph-name="NULL" d="" />
<glyph glyph-name="carriagereturn" unicode="&#xd;" horiz-adv-x="840" d="M733 692 L787 692 L787 294 L198 294 L353 142 L315 104 L101 321 L315 538 L353 500 L198 347 L733 347 L733 692 Z " />
<glyph glyph-name="space" unicode="&#x20;" horiz-adv-x="228" d="" />
<glyph glyph-name="ampersand" unicode="&#x26;" horiz-adv-x="729" d="M538 378 Q576 378 617 372 Q658 366 685 358 L674 305 Q650 311 628 314 Q606 317 574 319 Q576 305 577 290 Q578 275 578 261 Q578 192 557 140.5 Q536 89 500.5 55 Q465 21 418 4.5 Q371 -12 319 -12 Q257 -12 211.5 6.5 Q166 25 136.5 55 Q107 85 92.5 124 Q78 163 78 204 Q78 266 113 324 Q148 382 214 426 Q140 491 140 563 Q140 584 147.5 607 Q155 630 171 649.5 Q187 669 212.5 681.5 Q238 694 274 694 Q301 694 325 685.5 Q349 677 367 661 Q385 645 395.5 621 Q406 597 406 566 Q406 539 396 515 Q386 491 371 471 Q356 451 338 435 Q320 419 304 408 Q326 385 342.5 364 Q359 343 364 311 Q396 347 441 362.5 Q486 378 538 378 Z M322 47 Q373 47 408.5 66 Q444 85 466.5 116 Q489 147 499.5 186 Q510 225 510 265 Q510 278 508.5 291.5 Q507 305 505 319 Q459 316 419.5 289 Q380 262 348 197 L301 221 Q309 238 313.5 251 Q318 264 318 277 Q318 299 303.5 321 Q289 343 254 379 Q205 348 175.5 299.5 Q146 251 146 203 Q146 180 153.5 153 Q161 126 181 102.5 Q201 79 235 63 Q269 47 322 47 Z M271 639 Q262 639 251 636 Q240 633 230 624.5 Q220 616 213.5 601.5 Q207 587 207 564 Q207 528 223.5 503.5 Q240 479 266 454 Q341 502 341 565 Q341 592 324.5 615.5 Q308 639 271 639 Z " />
<glyph glyph-name="quotesingle" unicode="&#x27;" horiz-adv-x="228" d="M135 439 L93 439 L76 651 L152 651 L135 439 Z " />
<glyph glyph-name="parenleft" unicode="&#x28;" horiz-adv-x="304" d="M258 667 Q226 629 199.5 584 Q173 539 154 490.5 Q135 442 124 391 Q113 340 113 290 Q113 236 124 184 Q135 132 154 84 Q173 36 199.5 -7.5 Q226 -51 256 -88 L215 -125 Q179 -89 146.5 -43 Q114 3 90 56 Q66 109 51.5 167 Q37 225 37 285 Q37 346 51 405.5 Q65 465 89.5 519 Q114 573 146.5 620 Q179 667 215 703 L258 667 L258 667 Z " />
<glyph glyph-name="parenright" unicode="&#x29;" horiz-adv-x="304" d="M44 667 Q45 668 51.5 673.5 Q58 679 65 685 Q72 691 78.5 696.5 Q85 702 87 703 Q123 667 155.5 620 Q188 573 212.5 519 Q237 465 251 405.5 Q265 346 265 285 Q265 225 250.5 167 Q236 109 212 56.5 Q188 4 155.5 -42 Q123 -88 87 -124 L46 -88 Q108 -14 148.5 83.5 Q189 181 189 290 Q189 340 178 390.5 Q167 441 148 490 Q129 539 102 584 Q75 629 44 667 Z " />
<glyph glyph-name="asterisk" unicode="&#x2a;" horiz-adv-x="445" d="M339 390 L292 354 L226 462 L161 353 L113 390 L190 486 L75 518 L92 575 L206 527 L198 651 L254 651 L246 527 L360 575 L378 518 L260 486 L339 390 Z " />
<glyph glyph-name="plus" unicode="&#x2b;" horiz-adv-x="609" d="M337 279 L337 111 L271 111 L271 279 L103 279 L103 343 L271 343 L271 518 L337 518 L337 343 L506 343 L506 279 L337 279 Z " />
<glyph glyph-name="comma" unicode="&#x2c;" horiz-adv-x="204" d="M50 -76 Q69 -62 81.5 -44 Q94 -26 96 -3 Q74 -3 58 7.5 Q42 18 42 43 Q42 66 57 81 Q72 96 93 96 Q117 96 134 77 Q151 58 151 25 Q151 -18 128 -49 Q105 -80 70 -101 L50 -76 Z " />
<glyph glyph-name="hyphen" unicode="&#x2d;" horiz-adv-x="336" d="M53 274 L53 347 L285 347 L285 274 L53 274 Z " />
<glyph glyph-name="period" unicode="&#x2e;" horiz-adv-x="192" d="M145 43 Q145 22 130.5 7 Q116 -8 95 -8 Q74 -8 59.5 6.5 Q45 21 45 43 Q45 65 59.5 80 Q74 95 95 95 Q116 95 130.5 80 Q145 65 145 43 Z " />
<glyph glyph-name="slash" unicode="&#x2f;" horiz-adv-x="410" d="M2 -80 L342 729 L410 729 L71 -80 L2 -80 Z " />
<glyph glyph-name="zero" unicode="0" horiz-adv-x="609" d="M578 326 Q578 250 558.5 188 Q539 126 503.5 82 Q468 38 418 14 Q368 -10 306 -10 Q241 -10 191 15 Q141 40 106.5 84.5 Q72 129 54 190.5 Q36 252 36 325 Q36 397 54 458.5 Q72 520 106.5 565 Q141 610 191 635.5 Q241 661 306 661 Q368 661 418 637 Q468 613 503.5 568.5 Q539 524 558.5 462.5 Q578 401 578 326 Z M500 325 Q500 383 488 431.5 Q476 480 451.5 515.5 Q427 551 390.5 570.5 Q354 590 306 590 Q258 590 221.5 570.5 Q185 551 161 516.5 Q137 482 125 433 Q113 384 113 326 Q113 270 124.5 221.5 Q136 173 160 137 Q184 101 220.5 80 Q257 59 306 59 Q355 59 391.5 79.5 Q428 100 452 136 Q476 172 488 220.5 Q500 269 500 325 Z " />
<glyph glyph-name="one" unicode="1" horiz-adv-x="609" d="M285 0 L285 533 L201 533 L201 582 Q247 586 266.5 602 Q286 618 297 651 L360 651 L360 0 L285 0 Z " />
<glyph glyph-name="two" unicode="2" horiz-adv-x="609" d="M69 0 Q74 67 96.5 118.5 Q119 170 153.5 210 Q188 250 232 281.5 Q276 313 325 342 Q358 362 381.5 378.5 Q405 395 419 411.5 Q433 428 439.5 445.5 Q446 463 446 485 Q446 537 409 564.5 Q372 592 303 592 Q259 592 216 576 Q173 560 135 531 L92 586 Q137 621 191.5 641 Q246 661 305 661 Q408 661 465.5 615 Q523 569 523 491 Q523 457 514 430.5 Q505 404 485.5 380 Q466 356 434.5 333 Q403 310 359 284 Q308 255 273.5 230 Q239 205 216.5 180 Q194 155 180.5 128 Q167 101 159 68 L528 68 L528 0 L69 0 Z " />
<glyph glyph-name="three" unicode="3" horiz-adv-x="609" d="M518 188 Q518 142 499.5 105.5 Q481 69 448 43.5 Q415 18 370 4 Q325 -10 272 -10 Q202 -10 146 14 Q90 38 50 79 Q52 81 59.5 88 Q67 95 75.5 103.5 Q84 112 92 119 Q100 126 102 128 Q137 94 181 76.5 Q225 59 273 59 Q308 59 338.5 67.5 Q369 76 391.5 92 Q414 108 427 132 Q440 156 440 187 Q440 218 428 241 Q416 264 396 279 Q376 294 350 301 Q324 308 295 308 L252 308 L252 370 L296 370 Q324 370 347.5 379 Q371 388 388 403.5 Q405 419 414.5 439.5 Q424 460 424 483 Q424 504 416 523.5 Q408 543 390.5 558.5 Q373 574 345.5 583.5 Q318 593 278 593 Q239 593 198 577.5 Q157 562 125 536 L79 588 Q121 623 173 642 Q225 661 284 661 Q331 661 371 649.5 Q411 638 440 616 Q469 594 485.5 562.5 Q502 531 502 491 Q502 445 476 404 Q450 363 394 340 L394 338 Q427 330 450.5 314 Q474 298 489 277 Q504 256 511 232.5 Q518 209 518 188 Z " />
<glyph glyph-name="four" unicode="4" horiz-adv-x="609" d="M479 148 L479 0 L409 0 L409 148 L38 148 L38 215 L400 651 L479 651 L479 215 L567 215 L567 148 L479 148 Z M409 556 L125 215 L409 215 L409 556 Z " />
<glyph glyph-name="five" unicode="5" horiz-adv-x="609" d="M545 215 Q545 159 526.5 116.5 Q508 74 474 46 Q440 18 392.5 4 Q345 -10 287 -10 Q225 -10 170.5 5 Q116 20 68 48 L102 107 Q145 84 194.5 70.5 Q244 57 290 57 Q374 57 421.5 96.5 Q469 136 469 211 Q469 245 457 271 Q445 297 424.5 314 Q404 331 375.5 339.5 Q347 348 314 348 Q270 348 228.5 335 Q187 322 159 302 Q156 303 145.5 307.5 Q135 312 122.5 317 Q110 322 99.5 326 Q89 330 87 331 Q88 344 89.5 369 Q91 394 93 425 Q95 456 97.5 490.5 Q100 525 102 556 Q104 587 106 612.5 Q108 638 109 651 L500 651 L500 584 L172 584 Q171 569 169.5 540.5 Q168 512 165.5 481 Q163 450 161 421.5 Q159 393 158 378 L160 377 Q205 400 245 407.5 Q285 415 323 415 Q375 415 416.5 400 Q458 385 486.5 358.5 Q515 332 530 295 Q545 258 545 215 Z " />
<glyph glyph-name="six" unicode="6" horiz-adv-x="609" d="M296 -10 Q247 -10 203.5 4.5 Q160 19 128 50.5 Q96 82 77 130 Q58 178 58 246 Q58 309 77 379 Q96 449 141.5 509 Q187 569 262.5 611 Q338 653 450 659 L450 593 Q322 583 244 518.5 Q166 454 134 324 L137 324 Q157 346 181 360.5 Q205 375 229.5 383 Q254 391 279 394.5 Q304 398 325 398 Q368 398 408 386.5 Q448 375 479.5 351 Q511 327 530 290 Q549 253 549 202 Q549 151 530.5 111.5 Q512 72 478 45 Q444 18 397.5 4 Q351 -10 296 -10 Z M310 335 Q272 335 239.5 326 Q207 317 183.5 299.5 Q160 282 146.5 256.5 Q133 231 133 198 Q133 172 144 146.5 Q155 121 176 100.5 Q197 80 228.5 67 Q260 54 301 54 Q379 54 427 91.5 Q475 129 475 197 Q475 269 428.5 302 Q382 335 310 335 Z " />
<glyph glyph-name="seven" unicode="7" horiz-adv-x="609" d="M523 576 Q475 524 433 459.5 Q391 395 359.5 321 Q328 247 310 166 Q292 85 291 0 L215 0 Q216 75 232 153 Q248 231 277 306.5 Q306 382 348.5 452.5 Q391 523 446 583 L68 583 L68 651 L522 651 L523 576 L523 576 Z " />
<glyph glyph-name="eight" unicode="8" horiz-adv-x="609" d="M305 -10 Q183 -10 118.5 41 Q54 92 54 183 Q54 208 61.5 233.5 Q69 259 85 281 Q101 303 126 320.5 Q151 338 187 349 L187 350 Q154 360 133.5 377.5 Q113 395 101.5 414.5 Q90 434 86.5 453 Q83 472 83 485 Q83 528 100 561 Q117 594 147.5 616.5 Q178 639 219.5 650 Q261 661 309 661 Q355 661 396 650 Q437 639 467 617 Q497 595 514.5 562 Q532 529 532 486 Q532 474 528.5 455.5 Q525 437 514 417.5 Q503 398 482 379.5 Q461 361 426 350 L426 349 Q462 340 487.5 322.5 Q513 305 529.5 283 Q546 261 554 235 Q562 209 562 183 Q562 94 495 42 Q428 -10 305 -10 Z M306 314 Q224 314 175.5 280.5 Q127 247 127 185 Q127 152 140 127 Q153 102 177 85 Q201 68 234 59 Q267 50 307 50 Q346 50 379 58.5 Q412 67 436 84 Q460 101 474 125 Q488 149 488 181 Q488 246 440.5 280 Q393 314 306 314 Z M307 601 Q232 601 194.5 568 Q157 535 157 486 Q157 460 168.5 439.5 Q180 419 200 404.5 Q220 390 247.5 382.5 Q275 375 308 375 Q376 375 417 404.5 Q458 434 458 483 Q458 507 449 528.5 Q440 550 421.5 566 Q403 582 374.5 591.5 Q346 601 307 601 Z " />
<glyph glyph-name="nine" unicode="9" horiz-adv-x="609" d="M308 659 Q357 659 400.5 644.5 Q444 630 476.5 599.5 Q509 569 528 520.5 Q547 472 547 403 Q547 340 528 270 Q509 200 463.5 140 Q418 80 342.5 38 Q267 -4 155 -10 L155 55 Q282 64 359.5 129 Q437 194 471 324 L469 326 Q447 302 421.5 287.5 Q396 273 370.5 265 Q345 257 321 254 Q297 251 278 251 Q235 251 195 262 Q155 273 124 297 Q93 321 74 358 Q55 395 55 447 Q55 499 74.5 538.5 Q94 578 127.5 605 Q161 632 207.5 645.5 Q254 659 308 659 Z M296 313 Q334 313 366 322.5 Q398 332 421.5 350 Q445 368 458.5 394 Q472 420 472 452 Q472 477 461.5 502 Q451 527 430 547 Q409 567 377.5 580 Q346 593 304 593 Q265 593 233 583.5 Q201 574 177.5 556 Q154 538 141 511.5 Q128 485 128 451 Q128 415 140.5 389 Q153 363 175.5 346 Q198 329 229 321 Q260 313 296 313 Z " />
<glyph glyph-name="colon" unicode="&#x3a;" horiz-adv-x="218" d="M160 369 Q160 347 145.5 332.5 Q131 318 110 318 Q89 318 74.5 332.5 Q60 347 60 369 Q60 390 74.5 405.5 Q89 421 110 421 Q131 421 145.5 405.5 Q160 390 160 369 Z M160 43 Q160 22 145.5 7 Q131 -8 110 -8 Q89 -8 74.5 6.5 Q60 21 60 43 Q60 65 74.5 80 Q89 95 110 95 Q131 95 145.5 80 Q160 65 160 43 Z " />
<glyph glyph-name="semicolon" unicode="&#x3b;" horiz-adv-x="226" d="M168 369 Q168 347 153 332 Q138 317 117 317 Q95 317 79.5 332 Q64 347 64 369 Q64 390 79.5 405.5 Q95 421 117 421 Q138 421 153 406 Q168 391 168 369 Z M68 -77 Q86 -63 99 -45 Q112 -27 114 -4 Q92 -6 76 7 Q60 20 60 44 Q60 67 75 82 Q90 97 111 97 Q135 97 152 78 Q169 59 169 26 Q169 -18 146 -49 Q123 -80 88 -102 L68 -77 Z " />
<glyph glyph-name="question" unicode="&#x3f;" horiz-adv-x="488" d="M248 659 Q295 659 331.5 645.5 Q368 632 392.5 609 Q417 586 429.5 555 Q442 524 442 489 Q442 453 430 424 Q418 395 400 370 Q382 345 361 323 Q340 301 321.5 277.5 Q303 254 290.5 227.5 Q278 201 277 169 L206 169 Q206 204 218.5 234.5 Q231 265 249 292 Q267 319 288 344 Q309 369 327 392.5 Q345 416 357 439.5 Q369 463 369 489 Q369 505 363 523.5 Q357 542 342.5 557 Q328 572 304 582 Q280 592 245 592 Q211 592 186.5 580.5 Q162 569 145.5 551 Q129 533 120 512 Q111 491 108 473 L35 473 Q39 518 58 552.5 Q77 587 105.5 610.5 Q134 634 170.5 646.5 Q207 659 248 659 Z M241 -7 Q220 -7 206 6.5 Q192 20 192 42 Q192 67 207.5 79.5 Q223 92 242 92 Q263 92 276.5 77.5 Q290 63 290 42 Q290 21 276 7 Q262 -7 241 -7 Z " />
<glyph glyph-name="at" unicode="&#x40;" horiz-adv-x="830" d="M381 135 Q325 135 288 175 Q251 215 251 292 Q251 348 265 389 Q279 430 301.5 456.5 Q324 483 352 496 Q380 509 409 509 Q431 509 456 500.5 Q481 492 503 470 L506 502 L562 502 L540 239 L540 232 Q540 210 550 197 Q560 184 582 184 Q606 184 628.5 198 Q651 212 667.5 237.5 Q684 263 694 298 Q704 333 704 374 Q704 436 681.5 483.5 Q659 531 621.5 563.5 Q584 596 535 612.5 Q486 629 433 629 Q366 629 309.5 606 Q253 583 211.5 542.5 Q170 502 146.5 446.5 Q123 391 123 326 Q123 255 145.5 198.5 Q168 142 209 101.5 Q250 61 306.5 39.5 Q363 18 432 18 Q489 18 533.5 27 Q578 36 628 58 L645 11 Q596 -7 546 -18.5 Q496 -30 436 -30 Q357 -30 290 -5.5 Q223 19 174 65 Q125 111 97.5 177 Q70 243 70 326 Q70 401 97.5 465 Q125 529 173.5 576 Q222 623 288 650 Q354 677 432 677 Q505 677 565.5 655.5 Q626 634 669 594 Q712 554 735.5 498.5 Q759 443 759 374 Q759 318 744.5 274 Q730 230 705 198.5 Q680 167 646.5 150.5 Q613 134 576 134 Q564 134 550.5 137 Q537 140 525 146 Q513 152 504 161.5 Q495 171 491 183 L489 183 Q466 161 438 148 Q410 135 381 135 Z M396 187 Q419 187 440.5 200 Q462 213 482 236 L496 410 Q483 428 461 442.5 Q439 457 413 457 Q388 457 369 444 Q350 431 337 409 Q324 387 317 358 Q310 329 310 297 Q310 245 333 216 Q356 187 396 187 Z " />
<glyph glyph-name="A" unicode="A" horiz-adv-x="621" d="M446 222 Q413 309 379.5 394.5 Q346 480 314 568 L311 568 Q297 530 281 487.5 Q265 445 252 411 Q246 394 236 369 Q226 344 215.5 316.5 Q205 289 195.5 263.5 Q186 238 180 222 L446 222 Z M155 154 Q141 115 125.5 76.5 Q110 38 96 0 L17 0 Q82 164 145 325.5 Q208 487 273 651 L355 651 Q419 487 482.5 325.5 Q546 164 611 0 L531 0 Q516 38 501 76.5 Q486 115 472 154 L155 154 Z " />
<glyph glyph-name="B" unicode="B" horiz-adv-x="595" d="M545 193 Q545 100 489 50 Q433 0 330 0 L68 0 L68 651 L334 651 Q416 651 466.5 609.5 Q517 568 517 490 Q517 445 492 407 Q467 369 423 354 L423 351 Q449 345 471.5 331 Q494 317 510.5 296 Q527 275 536 249 Q545 223 545 193 Z M140 583 L140 382 L330 382 Q383 382 412.5 411.5 Q442 441 442 484 Q442 529 415 556 Q388 583 334 583 L140 583 Z M140 314 L140 69 L332 69 Q401 69 434.5 102 Q468 135 468 192 Q468 251 429 282.5 Q390 314 330 314 L140 314 Z " />
<glyph glyph-name="C" unicode="C" horiz-adv-x="556" d="M320 662 Q386 662 436.5 640 Q487 618 525 573 L472 520 Q439 557 402 574 Q365 591 319 591 Q272 591 236 571.5 Q200 552 175 516.5 Q150 481 137 432.5 Q124 384 124 327 Q124 271 136.5 222 Q149 173 173.5 137 Q198 101 235 80.5 Q272 60 321 60 Q409 60 475 135 L528 86 Q490 41 440 15.5 Q390 -10 319 -10 Q259 -10 208.5 13 Q158 36 122 79.5 Q86 123 66 185 Q46 247 46 326 Q46 404 66 466 Q86 528 122.5 571.5 Q159 615 209.5 638.5 Q260 662 320 662 Z " />
<glyph glyph-name="D" unicode="D" horiz-adv-x="612" d="M238 651 Q304 651 362.5 633 Q421 615 465.5 576 Q510 537 535.5 475.5 Q561 414 561 326 Q561 238 535 176 Q509 114 464 75 Q419 36 360 18 Q301 0 235 0 L73 0 L73 651 L238 651 Z M148 582 L148 69 L237 69 Q300 69 346 87.5 Q392 106 422.5 139.5 Q453 173 468 220.5 Q483 268 483 325 Q483 382 468 429.5 Q453 477 422.5 510.5 Q392 544 346 563 Q300 582 238 582 L148 582 Z " />
<glyph glyph-name="E" unicode="E" horiz-adv-x="510" d="M66 0 L66 651 L481 651 L481 582 L141 582 L141 382 L383 382 L383 313 L141 313 L141 69 L494 69 L494 0 L66 0 Z " />
<glyph glyph-name="F" unicode="F" horiz-adv-x="495" d="M146 581 L146 374 L386 374 L386 305 L146 305 L146 0 L71 0 L71 651 L489 651 L489 581 L146 581 Z " />
<glyph glyph-name="G" unicode="G" horiz-adv-x="594" d="M315 660 Q381 660 432 637.5 Q483 615 522 569 L468 517 Q403 589 314 589 Q266 589 229.5 569.5 Q193 550 168.5 514.5 Q144 479 131.5 430.5 Q119 382 119 325 Q119 266 131.5 217.5 Q144 169 169 133.5 Q194 98 231 78.5 Q268 59 317 59 Q364 59 396 74.5 Q428 90 448 115 Q468 140 477 170.5 Q486 201 486 230 L486 253 L376 253 L376 320 L563 320 L563 260 Q563 197 545.5 146.5 Q528 96 495.5 61.5 Q463 27 417.5 8.5 Q372 -10 315 -10 Q251 -10 200.5 13.5 Q150 37 114.5 81 Q79 125 60 186.5 Q41 248 41 325 Q41 404 61 466 Q81 528 117.5 571 Q154 614 204.5 637 Q255 660 315 660 Z " />
<glyph glyph-name="H" unicode="H" horiz-adv-x="622" d="M480 0 L480 305 L141 305 L141 0 L65 0 L65 651 L141 651 L141 375 L480 375 L480 651 L556 651 L556 0 L480 0 Z " />
<glyph glyph-name="I" unicode="I" horiz-adv-x="243" d="M83 0 L83 651 L160 651 L160 0 L83 0 Z " />
<glyph glyph-name="J" unicode="J" horiz-adv-x="549" d="M476 254 Q476 120 420 55 Q364 -10 247 -10 Q157 -10 105 30 Q53 70 27 142 L99 169 Q120 117 154.5 89 Q189 61 249 61 Q333 61 366.5 113.5 Q400 166 400 262 L400 651 L476 651 L476 254 Z " />
<glyph glyph-name="K" unicode="K" horiz-adv-x="579" d="M472 0 Q464 16 449 44 Q434 72 415.5 106.5 Q397 141 377 179 Q357 217 338.5 251.5 Q320 286 305 314.5 Q290 343 282 359 Q272 346 252.5 321.5 Q233 297 211.5 269.5 Q190 242 170.5 217.5 Q151 193 141 180 L141 0 L65 0 L65 651 L141 651 L141 286 L143 286 L229 401 L424 651 L512 651 L332 423 Q341 405 359 372 Q377 339 399.5 297.5 Q422 256 446 211.5 Q470 167 492 125.5 Q514 84 532 51 Q550 18 559 0 L472 0 Z " />
<glyph glyph-name="L" unicode="L" horiz-adv-x="485" d="M65 0 L65 651 L141 651 L141 70 L478 70 L478 0 L65 0 Z " />
<glyph glyph-name="M" unicode="M" horiz-adv-x="713" d="M569 481 L567 481 L509 343 Q487 295 465 246 Q443 197 422.5 152.5 Q402 108 384.5 70.5 Q367 33 354 6 Q324 66 296 128 Q284 154 271 183 Q258 212 245 241 Q232 270 219.5 298 Q207 326 197 352 Q191 366 182.5 387 Q174 408 166 428 Q158 448 152 463.5 Q146 479 145 482 L143 482 L143 0 L69 0 L69 651 L146 651 Q158 624 174.5 588 Q191 552 210 511 Q229 470 248 426.5 Q267 383 284 343 L354 179 L358 179 Q376 220 393.5 260 Q411 300 428 342 Q432 351 443 375 Q454 399 468 431 Q482 463 498 498 Q514 533 528 564 Q542 595 552.5 618.5 Q563 642 567 651 L643 651 L643 0 L569 0 L569 481 Z " />
<glyph glyph-name="N" unicode="N" horiz-adv-x="610" d="M478 0 Q454 36 420.5 87.5 Q387 139 348.5 197.5 Q310 256 270.5 316.5 Q231 377 196 431 Q179 457 163.5 482 Q148 507 141 519 L139 519 L139 0 L64 0 L64 651 L138 651 Q196 562 253.5 475 Q311 388 369 300 Q381 282 394.5 261 Q408 240 421.5 218 Q435 196 447.5 175.5 Q460 155 471 139 L473 139 L473 651 L548 651 L548 0 L478 0 L478 0 Z " />
<glyph glyph-name="O" unicode="O" horiz-adv-x="635" d="M589 326 Q589 250 569.5 188 Q550 126 514.5 82 Q479 38 429 14 Q379 -10 317 -10 Q252 -10 202 15 Q152 40 117 84.5 Q82 129 64 190.5 Q46 252 46 325 Q46 397 64.5 458.5 Q83 520 117.5 565 Q152 610 202.5 635.5 Q253 661 317 661 Q379 661 429 637 Q479 613 514.5 568.5 Q550 524 569.5 462.5 Q589 401 589 326 Z M511 325 Q511 382 499 431 Q487 480 462.5 516 Q438 552 401.5 572 Q365 592 317 592 Q269 592 232.5 572 Q196 552 172 516.5 Q148 481 135.5 432.5 Q123 384 123 326 Q123 271 135 222.5 Q147 174 171.5 137.5 Q196 101 232.5 80 Q269 59 317 59 Q366 59 402.5 80.5 Q439 102 463 138 Q487 174 499 222.5 Q511 271 511 325 Z " />
<glyph glyph-name="P" unicode="P" horiz-adv-x="552" d="M540 454 Q540 403 524 365.5 Q508 328 479.5 302.5 Q451 277 411.5 264.5 Q372 252 324 252 L140 252 L140 0 L66 0 L66 651 L331 651 Q377 651 415 639 Q453 627 481 602 Q509 577 524.5 540 Q540 503 540 454 Z M140 583 L140 321 L329 321 Q393 321 428 355 Q463 389 463 452 Q463 515 426.5 549 Q390 583 330 583 L140 583 Z " />
<glyph glyph-name="Q" unicode="Q" horiz-adv-x="637" d="M593 327 Q593 236 565 166.5 Q537 97 486 52 L526 -10 L470 -47 L430 15 Q403 2 376.5 -3.5 Q350 -9 321 -9 Q259 -9 209 14.5 Q159 38 124 81.5 Q89 125 69.5 187 Q50 249 50 326 Q50 402 69.5 464 Q89 526 124 570 Q159 614 209 637.5 Q259 661 321 661 Q383 661 433 637.5 Q483 614 518.5 570.5 Q554 527 573.5 465 Q593 403 593 327 Z M516 326 Q516 384 503.5 432.5 Q491 481 466.5 516.5 Q442 552 405.5 572 Q369 592 321 592 Q273 592 236.5 572.5 Q200 553 175.5 518 Q151 483 139 434 Q127 385 127 327 Q127 270 139 220.5 Q151 171 175 135 Q199 99 235.5 78.5 Q272 58 321 58 Q338 58 357 61 Q376 64 393 72 L347 143 L403 178 L446 111 Q484 151 500 206 Q516 261 516 326 Z " />
<glyph glyph-name="R" unicode="R" horiz-adv-x="583" d="M447 0 L329 257 L139 257 L139 0 L65 0 L65 651 L333 651 Q378 651 416.5 639 Q455 627 482.5 603 Q510 579 525.5 542.5 Q541 506 541 456 Q541 381 505 333 Q469 285 404 267 L534 0 L447 0 Z M465 454 Q465 517 428 550 Q391 583 331 583 L139 583 L139 324 L331 324 Q395 324 430 358.5 Q465 393 465 454 Z " />
<glyph glyph-name="S" unicode="S" horiz-adv-x="534" d="M508 173 Q508 89 448.5 39.5 Q389 -10 269 -10 Q203 -10 146.5 13 Q90 36 48 75 L98 130 Q135 97 180.5 78 Q226 59 274 59 Q345 59 387.5 84.5 Q430 110 430 171 Q430 199 417.5 219 Q405 239 383 253.5 Q361 268 331 278.5 Q301 289 267 300 Q220 315 183 330 Q146 345 120 365.5 Q94 386 80 415 Q66 444 66 486 Q66 525 82 557.5 Q98 590 126.5 613 Q155 636 194.5 648.5 Q234 661 280 661 Q340 661 391 643 Q442 625 484 591 Q482 588 475 580 Q468 572 460.5 563 Q453 554 446 546 Q439 538 437 536 Q401 565 361 578.5 Q321 592 272 592 Q209 592 175.5 563 Q142 534 142 490 Q142 466 153 448.5 Q164 431 181.5 419 Q199 407 221.5 398 Q244 389 267 381 Q304 369 346 355.5 Q388 342 424 319.5 Q460 297 484 262.5 Q508 228 508 173 Z " />
<glyph glyph-name="T" unicode="T" horiz-adv-x="502" d="M291 582 L291 0 L217 0 L217 582 L19 582 L19 651 L490 651 L490 582 L291 582 Z " />
<glyph glyph-name="U" unicode="U" horiz-adv-x="616" d="M556 270 Q556 128 491 59 Q426 -10 308 -10 Q192 -10 129 60.5 Q66 131 66 271 L66 651 L141 651 L141 274 Q141 176 183 118.5 Q225 61 310 61 Q398 61 439 116.5 Q480 172 480 268 L480 651 L556 651 L556 270 Z " />
<glyph glyph-name="V" unicode="V" horiz-adv-x="595" d="M258 0 L27 651 L108 651 L256 231 L300 100 L303 100 Q318 144 332.5 187 Q347 230 361 274 L493 651 L573 651 L344 0 L258 0 Z " />
<glyph glyph-name="W" unicode="W" horiz-adv-x="753" d="M378 518 L342 369 Q338 354 331 325 Q324 296 315 260 Q306 224 296.5 184.5 Q287 145 278.5 109 Q270 73 263 44 Q256 15 252 0 L165 0 L26 651 L103 651 Q106 636 112 606 Q118 576 125.5 539.5 Q133 503 140.5 463 Q148 423 155.5 386.5 Q163 350 169 320.5 Q175 291 178 276 L210 114 L212 114 L251 275 Q255 290 262.5 320 Q270 350 278.5 386.5 Q287 423 297 463 Q307 503 315.5 539.5 Q324 576 331.5 605.5 Q339 635 343 651 L416 651 Q420 636 427.5 606 Q435 576 444 539 Q453 502 463 461 Q473 420 482 383 Q491 346 498.5 316 Q506 286 510 271 L547 114 L548 114 Q551 127 555.5 148.5 Q560 170 564.5 193 Q569 216 573 237 Q577 258 580 271 L657 651 L731 651 Q725 624 714.5 573 Q704 522 690.5 458.5 Q677 395 662 325.5 Q647 256 633.5 192.5 Q620 129 609 78 Q598 27 592 0 L504 0 Q500 15 493 44 Q486 73 477.5 108.5 Q469 144 460 183.5 Q451 223 442.5 258.5 Q434 294 427 323 Q420 352 416 367 Q415 371 410 393.5 Q405 416 398.5 442.5 Q392 469 386.5 491.5 Q381 514 380 518 L378 518 Z " />
<glyph glyph-name="X" unicode="X" horiz-adv-x="549" d="M431 0 L273 270 L116 0 L29 0 L235 334 L42 651 L131 651 L275 402 L421 651 L506 651 L314 336 L519 0 L431 0 Z " />
<glyph glyph-name="Y" unicode="Y" horiz-adv-x="560" d="M317 231 L317 0 L242 0 L242 231 L8 651 L94 651 L280 300 L467 651 L551 651 L317 231 Z " />
<glyph glyph-name="Z" unicode="Z" horiz-adv-x="553" d="M523 582 L126 69 L521 69 L521 0 L37 0 L37 68 L435 582 L56 582 L56 651 L523 651 L523 582 Z " />
<glyph glyph-name="bracketleft" unicode="&#x5b;" horiz-adv-x="311" d="M69 -113 L69 702 L269 702 L269 638 L142 638 L142 -48 L269 -48 L269 -113 L69 -113 Z " />
<glyph glyph-name="backslash" unicode="&#x5c;" horiz-adv-x="410" d="M341 -80 L2 729 L70 729 L410 -80 L341 -80 Z " />
<glyph glyph-name="bracketright" unicode="&#x5d;" horiz-adv-x="319" d="M66 -113 L66 -48 L193 -48 L193 638 L66 638 L66 702 L266 702 L266 -113 L66 -113 Z " />
<glyph glyph-name="asciicircum" unicode="&#x5e;" horiz-adv-x="520" d="M393 335 L262 586 L130 335 L62 335 L234 651 L292 651 L463 335 L393 335 Z " />
<glyph glyph-name="underscore" unicode="&#x5f;" horiz-adv-x="497" d="M0 -124 L0 -70 L497 -70 L497 -124 L0 -124 Z " />
<glyph glyph-name="grave" unicode="&#x60;" horiz-adv-x="483" d="M143 713 L226 728 L298 569 L260 556 L143 713 Z " />
<glyph glyph-name="a" unicode="a" horiz-adv-x="477" d="M245 497 Q330 497 375.5 457.5 Q421 418 421 339 L421 0 L351 0 L351 48 L349 48 Q310 13 271.5 2 Q233 -9 198 -9 Q169 -9 140 -0.5 Q111 8 87.5 26.5 Q64 45 49.5 74 Q35 103 35 145 Q35 181 48.5 210 Q62 239 86.5 259.5 Q111 280 144.5 291 Q178 302 218 302 Q250 302 282.5 295.5 Q315 289 351 269 L351 329 Q351 385 322.5 410.5 Q294 436 237 436 Q201 436 170 427 Q139 418 108 403 L84 459 Q119 476 158 486.5 Q197 497 245 497 Z M351 209 Q321 226 291 236 Q261 246 219 246 Q171 246 138 220.5 Q105 195 105 147 Q105 99 133 74 Q161 49 214 49 Q253 51 288.5 70 Q324 89 351 116 L351 209 Z " />
<glyph glyph-name="b" unicode="b" horiz-adv-x="501" d="M270 497 Q305 497 338.5 483.5 Q372 470 397.5 440.5 Q423 411 438.5 363.5 Q454 316 454 249 Q454 183 438 134.5 Q422 86 395.5 53.5 Q369 21 335 5.5 Q301 -10 265 -10 Q232 -10 198 1 Q164 12 129 47 L127 47 L127 0 L56 0 L56 660 L127 692 L127 437 L129 437 Q169 472 203 484.5 Q237 497 270 497 Z M253 435 Q234 435 216 429 Q198 423 181.5 413 Q165 403 151 390.5 Q137 378 127 366 L127 120 Q148 93 180.5 71.5 Q213 50 254 50 Q282 50 306 63.5 Q330 77 347 101.5 Q364 126 374 160.5 Q384 195 384 237 Q384 334 351.5 384.5 Q319 435 253 435 Z " />
<glyph glyph-name="c" unicode="c" horiz-adv-x="438" d="M251 497 Q349 497 411 428 L364 381 Q337 410 309 422 Q281 434 249 434 Q218 434 193.5 419.5 Q169 405 152 379.5 Q135 354 126 319.5 Q117 285 117 244 Q117 203 125.5 168.5 Q134 134 151.5 108.5 Q169 83 194 68.5 Q219 54 252 54 Q285 54 311.5 66.5 Q338 79 365 107 L412 64 Q383 30 344.5 10 Q306 -10 249 -10 Q207 -10 170 5.5 Q133 21 105.5 52.5 Q78 84 62 132 Q46 180 46 244 Q46 305 61.5 352 Q77 399 105 431.5 Q133 464 170 480.5 Q207 497 251 497 Z " />
<glyph glyph-name="d" unicode="d" horiz-adv-x="498" d="M246 497 Q316 497 370 446 L372 446 L372 660 L443 692 L443 0 L372 0 L372 48 L370 48 Q334 12 298 1 Q262 -10 228 -10 Q192 -10 159 4 Q126 18 100.5 48 Q75 78 60 124 Q45 170 45 234 Q45 305 63 355 Q81 405 109.5 436.5 Q138 468 174 482.5 Q210 497 246 497 Z M251 435 Q187 435 151 384 Q115 333 115 240 Q115 152 150 101 Q185 50 245 50 Q286 50 318.5 71.5 Q351 93 373 120 L373 367 Q353 394 320.5 414.5 Q288 435 251 435 Z " />
<glyph glyph-name="e" unicode="e" horiz-adv-x="489" d="M251 497 Q300 497 337.5 479.5 Q375 462 400.5 429.5 Q426 397 439.5 351.5 Q453 306 453 250 L453 217 L116 217 Q121 136 161 94 Q201 52 258 52 Q290 52 320 65 Q350 78 373 99 L415 54 Q348 -10 251 -10 Q210 -10 172.5 6 Q135 22 106.5 54 Q78 86 61.5 133.5 Q45 181 45 243 Q45 302 61 349 Q77 396 104.5 429 Q132 462 169.5 479.5 Q207 497 251 497 Z M383 274 Q383 307 375 336.5 Q367 366 350.5 387.5 Q334 409 309 422 Q284 435 249 435 Q223 435 200 423.5 Q177 412 159 390.5 Q141 369 129.5 339.5 Q118 310 116 274 L383 274 Z " />
<glyph glyph-name="f" unicode="f" horiz-adv-x="286" d="M166 0 L94 0 L94 429 L31 429 L31 488 L94 488 L94 581 Q94 638 125.5 663.5 Q157 689 208 689 Q220 689 239 688 Q258 687 270 685 L268 627 Q257 628 247.5 628 Q238 628 230 628 Q199 628 182.5 617 Q166 606 166 574 L166 488 L269 488 L269 429 L166 429 L166 0 Z " />
<glyph glyph-name="g" unicode="g" horiz-adv-x="500" d="M444 34 Q444 -54 398.5 -116.5 Q353 -179 247 -207 L224 -147 Q273 -131 302.5 -112 Q332 -93 348 -72 Q364 -51 369 -28.5 Q374 -6 374 15 L374 53 L372 53 Q331 17 297 5 Q263 -7 231 -7 Q195 -7 161.5 6 Q128 19 102.5 48.5 Q77 78 61.5 126 Q46 174 46 245 Q46 309 62.5 356 Q79 403 105.5 434.5 Q132 466 166 481.5 Q200 497 235 497 Q268 497 302.5 485.5 Q337 474 370 440 L372 440 L372 488 L444 488 L444 34 Z M373 366 Q352 393 319.5 415 Q287 437 246 437 Q218 437 194 423 Q170 409 153 384.5 Q136 360 126 325.5 Q116 291 116 249 Q116 152 149 103 Q182 54 248 54 Q286 54 319.5 76 Q353 98 373 124 L373 366 Z " />
<glyph glyph-name="h" unicode="h" horiz-adv-x="487" d="M439 0 L367 0 L367 293 Q367 362 340 398.5 Q313 435 252 435 Q207 435 175 405.5 Q143 376 132 333 Q127 315 127 291 L127 0 L56 0 L56 660 L127 692 L127 420 L130 420 Q157 461 197 479 Q237 497 273 497 Q358 497 398.5 447.5 Q439 398 439 304 L439 0 Z " />
<glyph glyph-name="i" unicode="i" horiz-adv-x="229" d="M160 619 Q160 601 146.5 587.5 Q133 574 115 574 Q96 574 82.5 587.5 Q69 601 69 619 Q69 638 82.5 651 Q96 664 114 664 Q133 664 146.5 651 Q160 638 160 619 Z M79 0 L79 488 L150 488 L150 0 L79 0 Z " />
<glyph glyph-name="j" unicode="j" horiz-adv-x="229" d="M167 619 Q167 601 153.5 587.5 Q140 574 122 574 Q103 574 90 587.5 Q77 601 77 619 Q77 638 90 651 Q103 664 122 664 Q140 664 153.5 651 Q167 638 167 619 Z M156 -5 Q156 -50 150 -85 Q144 -120 126.5 -144 Q109 -168 76 -181 Q43 -194 -11 -196 L-17 -136 Q18 -130 38.5 -121 Q59 -112 69.5 -97.5 Q80 -83 82.5 -62.5 Q85 -42 85 -13 L85 488 L156 488 L156 -5 Z " />
<glyph glyph-name="k" unicode="k" horiz-adv-x="437" d="M345 0 L229 270 L126 139 L126 0 L56 0 L56 660 L126 692 L126 241 L128 241 Q134 248 144 262 Q154 276 164.5 290 Q175 304 184.5 316.5 Q194 329 198 335 L316 487 L403 487 L278 329 Q284 315 295.5 289 Q307 263 321 231 Q335 199 350.5 164 Q366 129 380 97 Q394 65 405.5 39 Q417 13 423 0 L345 0 Z " />
<glyph glyph-name="l" unicode="l" horiz-adv-x="205" d="M67 0 L67 660 L138 693 L138 0 L67 0 Z " />
<glyph glyph-name="m" unicode="m" horiz-adv-x="757" d="M128 421 Q154 464 191.5 480 Q229 496 264 496 Q314 496 348.5 473.5 Q383 451 398 409 L399 409 Q435 458 473.5 477 Q512 496 553 496 Q637 496 672 446.5 Q707 397 707 304 L707 0 L636 0 L636 293 Q636 359 614.5 396.5 Q593 434 533 434 Q512 434 494 426 Q476 418 461 404 Q446 390 435.5 371.5 Q425 353 421 332 Q416 314 416 295 L416 0 L345 0 L345 297 Q345 361 323 397.5 Q301 434 242 434 Q199 434 170.5 406.5 Q142 379 131 337 Q129 326 127 314 Q125 302 125 290 L125 0 L54 0 L54 488 L125 488 L125 421 L128 421 Z " />
<glyph glyph-name="n" unicode="n" horiz-adv-x="487" d="M438 0 L366 0 L366 293 Q366 362 339 398.5 Q312 435 251 435 Q206 435 174 405.5 Q142 376 131 334 Q126 314 126 291 L126 0 L55 0 L55 488 L126 488 L126 419 L128 418 Q155 460 195 478.5 Q235 497 272 497 Q357 497 397.5 447.5 Q438 398 438 304 L438 0 Z " />
<glyph glyph-name="o" unicode="o" horiz-adv-x="513" d="M468 246 Q468 185 451.5 137.5 Q435 90 406.5 57 Q378 24 339 7 Q300 -10 254 -10 Q207 -10 168.5 7.5 Q130 25 102.5 58 Q75 91 60 138 Q45 185 45 244 Q45 305 61 352.5 Q77 400 105.5 432 Q134 464 172.5 480.5 Q211 497 256 497 Q301 497 340 480 Q379 463 407.5 430.5 Q436 398 452 351.5 Q468 305 468 246 Z M397 244 Q397 285 388 320 Q379 355 361 380.5 Q343 406 316 420.5 Q289 435 254 435 Q221 435 195 420 Q169 405 152 379.5 Q135 354 126 319.5 Q117 285 117 246 Q117 158 154.5 105.5 Q192 53 258 53 Q293 53 319 68.5 Q345 84 362.5 110 Q380 136 388.5 170.5 Q397 205 397 244 Z " />
<glyph glyph-name="p" unicode="p" horiz-adv-x="500" d="M454 248 Q454 179 436.5 130 Q419 81 390.5 50.5 Q362 20 327 5.5 Q292 -9 256 -9 Q221 -9 190 3 Q159 15 128 46 L126 46 L126 -159 L56 -192 L56 489 L127 489 L127 440 L129 440 Q163 473 199 485.5 Q235 498 269 498 Q304 498 337.5 483.5 Q371 469 397 438.5 Q423 408 438.5 361 Q454 314 454 248 Z M384 249 Q384 337 348 387 Q312 437 254 437 Q212 437 179.5 416 Q147 395 126 368 L126 121 Q146 94 179 73.5 Q212 53 248 53 Q314 53 349 103.5 Q384 154 384 249 Z " />
<glyph glyph-name="q" unicode="q" horiz-adv-x="498" d="M45 249 Q45 313 61.5 359.5 Q78 406 104.5 436.5 Q131 467 165 482 Q199 497 234 497 Q267 497 301.5 486 Q336 475 370 440 L372 440 L372 488 L443 488 L443 -160 L372 -192 L372 50 L370 50 Q330 15 296 2.5 Q262 -10 230 -10 Q194 -10 160.5 4 Q127 18 101.5 48.5 Q76 79 60.5 128.5 Q45 178 45 249 Z M115 253 Q115 156 148 104 Q181 52 247 52 Q285 52 318.5 74 Q352 96 372 121 L372 366 Q351 393 318.5 415 Q286 437 245 437 Q217 437 193.5 424 Q170 411 152.5 387 Q135 363 125 329 Q115 295 115 253 Z " />
<glyph glyph-name="r" unicode="r" horiz-adv-x="349" d="M328 416 Q311 419 296 421 Q281 423 267 423 Q205 423 173.5 387 Q142 351 142 285 L142 0 L71 0 L71 488 L142 488 L142 421 L144 420 Q164 461 200.5 479 Q237 497 278 497 Q309 497 344 486 L328 416 Z " />
<glyph glyph-name="s" unicode="s" horiz-adv-x="438" d="M399 129 Q399 95 384.5 69 Q370 43 345 25.5 Q320 8 286 -1 Q252 -10 213 -10 Q168 -10 122 2 Q76 14 38 36 L65 91 Q103 71 142 60.5 Q181 50 215 50 Q235 50 255.5 54 Q276 58 292.5 67 Q309 76 319 90 Q329 104 329 124 Q329 145 319.5 159.5 Q310 174 293.5 185 Q277 196 254.5 204.5 Q232 213 205 222 Q171 232 142.5 245 Q114 258 93 275 Q72 292 60.5 314 Q49 336 49 365 Q49 394 61.5 418.5 Q74 443 97 460.5 Q120 478 152.5 487.5 Q185 497 226 497 Q309 497 380 461 L356 404 Q320 423 285 429.5 Q250 436 225 436 Q177 436 147.5 416.5 Q118 397 118 370 Q118 344 140.5 323.5 Q163 303 225 285 Q262 274 293.5 261 Q325 248 348.5 230 Q372 212 385.5 187.5 Q399 163 399 129 Z " />
<glyph glyph-name="t" unicode="t" horiz-adv-x="313" d="M169 488 L271 488 L271 428 L169 428 L169 115 Q169 82 182 69.5 Q195 57 223 57 Q237 57 252 59 Q267 61 287 64 Q287 62 288 54 Q289 46 290 37 Q291 28 292 20 Q293 12 293 10 Q277 3 251 -2 Q225 -7 203 -7 Q150 -7 125.5 20.5 Q101 48 101 105 L101 428 L27 428 L27 488 L102 488 L102 606 L169 636 L169 488 Z " />
<glyph glyph-name="u" unicode="u" horiz-adv-x="486" d="M52 488 L123 488 L123 194 Q123 122 149 87 Q175 52 236 52 Q281 52 311.5 80.5 Q342 109 353 151 Q359 172 359 197 L359 488 L430 488 L430 0 L359 0 L359 68 L356 68 Q329 26 290.5 8 Q252 -10 216 -10 Q52 -10 52 177 L52 488 Z " />
<glyph glyph-name="v" unicode="v" horiz-adv-x="450" d="M186 0 L11 488 L85 488 Q108 417 132 348 Q156 279 180 209 Q183 199 189 182 Q195 165 201.5 146 Q208 127 213.5 109.5 Q219 92 222 82 L225 82 Q236 114 246 145.5 Q256 177 266 209 Q290 279 313 348 Q336 417 360 488 L433 488 L260 0 L186 0 Z " />
<glyph glyph-name="w" unicode="w" horiz-adv-x="623" d="M407 0 L327 303 L308 381 L306 381 Q300 355 293 329.5 Q286 304 279 278 L205 0 L142 0 L12 488 L84 488 L143 248 L174 109 L177 109 L213 250 L276 488 L341 488 L407 239 L438 109 L441 109 L472 240 L534 488 L606 488 Q572 365 539 244 Q506 123 473 0 L407 0 Z " />
<glyph glyph-name="x" unicode="x" horiz-adv-x="419" d="M316 0 L207 193 L97 0 L17 0 L169 252 L28 488 L109 488 L209 312 L310 488 L389 488 L247 255 L400 0 L316 0 Z " />
<glyph glyph-name="y" unicode="y" horiz-adv-x="463" d="M135 -187 L198 -7 L15 488 L90 488 L180 230 L229 83 L232 83 Q245 120 257.5 156.5 Q270 193 282 230 Q290 252 302.5 286.5 Q315 321 328.5 358.5 Q342 396 354 431 Q366 466 374 488 L446 488 Q385 320 323.5 150 Q262 -20 201 -187 L135 -187 Z " />
<glyph glyph-name="z" unicode="z" horiz-adv-x="450" d="M126 61 L406 61 L406 0 L39 0 L39 58 Q51 75 73 104 Q95 133 122.5 168 Q150 203 179 241.5 Q208 280 235.5 315 Q263 350 285 379 Q307 408 319 425 L318 428 L58 428 L58 488 L406 488 L406 431 Q393 414 371 385 Q349 356 322 320.5 Q295 285 265.5 247 Q236 209 208.5 173.5 Q181 138 159 109 Q137 80 125 63 L126 61 Z " />
<glyph glyph-name="braceleft" unicode="&#x7b;" horiz-adv-x="317" d="M240 -112 Q180 -112 151 -77 Q122 -42 122 19 L122 144 Q122 165 118.5 185.5 Q115 206 106.5 223 Q98 240 84.5 251.5 Q71 263 51 266 L51 315 Q72 317 85.5 328.5 Q99 340 107 357 Q115 374 118.5 395.5 Q122 417 122 439 L122 559 Q122 620 151 655 Q180 690 241 690 L288 690 L288 633 L249 633 Q232 633 220.5 625.5 Q209 618 202.5 605 Q196 592 193.5 574 Q191 556 191 536 L191 435 Q191 374 168 338.5 Q145 303 117 292 L117 288 Q131 283 144.5 272 Q158 261 168.5 243.5 Q179 226 185 201.5 Q191 177 191 144 L191 42 Q191 22 193.5 4 Q196 -14 202.5 -27 Q209 -40 220.5 -47.5 Q232 -55 249 -55 L288 -55 L288 -112 L240 -112 Z " />
<glyph glyph-name="bar" unicode="&#x7c;" horiz-adv-x="231" d="M88 -123 L88 748 L154 748 L154 -123 L88 -123 Z " />
<glyph glyph-name="braceright" unicode="&#x7d;" horiz-adv-x="317" d="M52 -112 L52 -55 L91 -55 Q125 -55 137 -27 Q149 1 149 42 L149 144 Q149 210 171.5 244 Q194 278 223 288 L223 292 Q194 303 171.5 338.5 Q149 374 149 435 L149 536 Q149 556 146.5 574 Q144 592 137.5 605 Q131 618 119.5 625.5 Q108 633 91 633 L52 633 L52 690 L99 690 Q159 690 188 655 Q217 620 217 559 L217 439 Q217 417 220.5 395.5 Q224 374 232.5 357 Q241 340 254.5 328.5 Q268 317 289 315 L289 266 Q269 263 255 251.5 Q241 240 232.5 223 Q224 206 220.5 185.5 Q217 165 217 144 L217 19 Q217 -42 188.5 -77 Q160 -112 100 -112 L52 -112 Z " />
<glyph glyph-name="asciitilde" unicode="&#x7e;" horiz-adv-x="609" d="M540 365 Q495 271 410 271 Q386 271 359.5 281.5 Q333 292 307 304 Q281 316 256 326.5 Q231 337 209 337 Q180 337 160.5 321 Q141 305 122 280 L79 302 Q91 329 107 347.5 Q123 366 140.5 377 Q158 388 176 393 Q194 398 210 398 Q236 398 263 388 Q290 378 316 365.5 Q342 353 366 343 Q390 333 411 333 Q440 333 460 347.5 Q480 362 499 391 L540 365 Z " />
<glyph glyph-name="dieresistonos" unicode="&#x385;" horiz-adv-x="483" d="M414 627 Q414 609 401 596 Q388 583 371 583 Q353 583 339.5 596 Q326 609 326 627 Q326 646 339 658.5 Q352 671 371 671 Q388 671 401 658.5 Q414 646 414 627 Z M168 627 Q168 609 154.5 596 Q141 583 124 583 Q106 583 93 596 Q80 609 80 627 Q80 646 93 658.5 Q106 671 124 671 Q141 671 154.5 658.5 Q168 646 168 627 Z M219 556 L181 570 L244 721 L327 706 L219 556 Z " />
<glyph glyph-name="tonos" unicode="&#x384;" horiz-adv-x="483" d="M241 556 L203 569 L273 730 L355 715 L241 556 Z " />
<glyph glyph-name="dieresis" unicode="&#xa8;" horiz-adv-x="483" d="M393 627 Q393 609 380 596 Q367 583 350 583 Q332 583 318.5 596 Q305 609 305 627 Q305 646 318 658.5 Q331 671 350 671 Q367 671 380 658.5 Q393 646 393 627 Z M201 627 Q201 609 187.5 596 Q174 583 157 583 Q139 583 125.5 596 Q112 609 112 627 Q112 646 125.5 658.5 Q139 671 157 671 Q174 671 187.5 658.5 Q201 646 201 627 Z " />
<glyph glyph-name="sterling" unicode="&#xa3;" horiz-adv-x="609" d="M80 67 Q123 110 144 156.5 Q165 203 166 269 L79 269 L79 329 L159 329 Q154 351 146.5 371 Q139 391 132.5 410 Q126 429 121.5 448.5 Q117 468 117 489 Q117 523 131 554 Q145 585 171.5 609 Q198 633 235.5 647 Q273 661 320 661 Q397 661 446.5 632.5 Q496 604 528 555 L467 514 Q441 551 406 572.5 Q371 594 320 594 Q299 594 276 587.5 Q253 581 234.5 567.5 Q216 554 204 532.5 Q192 511 192 481 Q192 465 197 447.5 Q202 430 208.5 410.5 Q215 391 221.5 371 Q228 351 232 330 L387 330 L387 270 L239 270 L239 257 Q239 206 221 157 Q203 108 165 66 L529 66 L529 0 L80 0 L80 67 Z " />
<glyph glyph-name="trademark" unicode="&#x2122;" horiz-adv-x="762" d="M650 563 L614 480 L526 285 Q520 300 506 331 Q492 362 476 396.5 Q460 431 446 462.5 Q432 494 426 508 L404 557 L404 286 L353 286 L353 652 L414 652 Q420 639 432 611.5 Q444 584 458 553.5 Q472 523 484.5 496 Q497 469 503 456 L526 400 L551 455 Q557 468 569.5 495.5 Q582 523 596 553.5 Q610 584 622 611.5 Q634 639 640 652 L701 652 L701 286 L650 286 L650 563 Z M198 602 L198 286 L147 286 L147 602 L31 602 L31 651 L314 651 L314 602 L198 602 Z " />
<glyph glyph-name="bullet" unicode="&#x2022;" horiz-adv-x="355" d="M281 307 Q281 286 273 267 Q265 248 251.5 234.5 Q238 221 219.5 213 Q201 205 180 205 Q137 205 107.5 234.5 Q78 264 78 307 Q78 328 86 347 Q94 366 107.5 380 Q121 394 140 402 Q159 410 180 410 Q201 410 219.5 402 Q238 394 251.5 380 Q265 366 273 347 Q281 328 281 307 Z " />
<glyph glyph-name="sfthyphen" unicode="&#xad;" horiz-adv-x="336" d="M53 274 L53 347 L285 347 L285 274 L53 274 Z " />
<glyph glyph-name="dagger" unicode="&#x2020;" horiz-adv-x="514" d="M302 374 L302 -93 L232 -93 L232 374 L50 374 L50 437 L232 437 L232 651 L302 651 L302 438 L483 438 L483 374 L302 374 Z " />
<glyph glyph-name="Gamma" unicode="&#x393;" horiz-adv-x="487" d="M142 582 L142 0 L66 0 L66 651 L484 651 L484 582 L142 582 Z " />
<glyph glyph-name="&amp;#x394;" unicode="&#x394;" horiz-adv-x="619" d="M268 651 L350 651 Q414 487 477.5 325.5 Q541 164 604 0 L13 0 L268 651 Z M306 561 Q295 532 284.5 502.5 Q274 473 263 444 Q262 442 252.5 416.5 Q243 391 228 353 Q213 315 196 270 Q179 225 163 183.5 Q147 142 134.5 110.5 Q122 79 117 67 L499 67 Q496 74 484.5 103.5 Q473 133 457.5 173 Q442 213 424.5 258.5 Q407 304 391.5 343 Q376 382 365.5 408.5 Q355 435 354 439 L309 561 L306 561 Z " />
<glyph glyph-name="&amp;#x2206;" unicode="&#x2206;" horiz-adv-x="619" d="M268 651 L350 651 Q414 487 477.5 325.5 Q541 164 604 0 L13 0 L268 651 Z M306 561 Q295 532 284.5 502.5 Q274 473 263 444 Q262 442 252.5 416.5 Q243 391 228 353 Q213 315 196 270 Q179 225 163 183.5 Q147 142 134.5 110.5 Q122 79 117 67 L499 67 Q496 74 484.5 103.5 Q473 133 457.5 173 Q442 213 424.5 258.5 Q407 304 391.5 343 Q376 382 365.5 408.5 Q355 435 354 439 L309 561 L306 561 Z " />
<glyph glyph-name="Theta" unicode="&#x398;" horiz-adv-x="651" d="M607 326 Q607 250 586 188 Q565 126 527.5 82 Q490 38 438.5 14 Q387 -10 325 -10 Q260 -10 208.5 15 Q157 40 120 84.5 Q83 129 63.5 190.5 Q44 252 44 325 Q44 397 63.5 458.5 Q83 520 120 565 Q157 610 208.5 635.5 Q260 661 325 661 Q387 661 438.5 637 Q490 613 527.5 568.5 Q565 524 586 462.5 Q607 401 607 326 Z M529 325 Q529 382 515.5 431 Q502 480 475.5 516 Q449 552 411 572 Q373 592 325 592 Q277 592 239 572 Q201 552 174.5 516.5 Q148 481 134.5 432.5 Q121 384 121 326 Q121 271 134.5 222.5 Q148 174 174 137.5 Q200 101 238 80 Q276 59 325 59 Q374 59 412 80.5 Q450 102 476 138 Q502 174 515.5 222.5 Q529 271 529 325 Z M168 367 L484 367 L484 300 L168 300 L168 367 Z " />
<glyph glyph-name="Lambda" unicode="&#x39b;" horiz-adv-x="592" d="M493 0 L353 397 Q349 408 341.5 429 Q334 450 326.5 473.5 Q319 497 312 518 Q305 539 301 551 L296 551 Q292 539 284.5 517.5 Q277 496 269.5 472.5 Q262 449 254.5 427.5 Q247 406 243 394 L104 0 L22 0 L256 651 L340 651 L574 0 L493 0 Z " />
<glyph glyph-name="Xi" unicode="&#x39e;" horiz-adv-x="515" d="M31 0 L31 69 L218 69 L218 313 L101 313 L101 382 L218 382 L218 582 L45 582 L45 651 L475 651 L475 582 L294 582 L294 382 L420 382 L420 313 L294 313 L294 69 L488 69 L488 0 L31 0 Z " />
<glyph glyph-name="Pi" unicode="&#x3a0;" horiz-adv-x="621" d="M480 0 L480 582 L142 582 L142 0 L66 0 L66 651 L556 651 L556 0 L480 0 Z " />
<glyph glyph-name="germandbls" unicode="&#xdf;" horiz-adv-x="502" d="M255 410 Q271 411 288 419 Q305 427 318.5 441.5 Q332 456 341 475.5 Q350 495 350 519 Q350 538 343 557.5 Q336 577 322.5 593 Q309 609 289.5 618.5 Q270 628 244 628 Q218 628 198 617.5 Q178 607 164.5 589.5 Q151 572 144 548.5 Q137 525 137 500 L137 0 Q119 -8 101.5 -15.5 Q84 -23 67 -31 L67 497 Q67 539 79.5 574 Q92 609 115 634.5 Q138 660 171 674.5 Q204 689 245 689 Q285 689 316.5 675 Q348 661 370.5 637.5 Q393 614 405 584 Q417 554 417 522 Q417 482 395 445 Q373 408 329 388 L329 384 Q356 378 380 362 Q404 346 422 321.5 Q440 297 450.5 266 Q461 235 461 199 Q461 156 448.5 118 Q436 80 412 51.5 Q388 23 353.5 6 Q319 -11 276 -11 Q265 -11 249 -9 Q233 -7 222 -3 Q226 11 229 25 Q232 39 235 53 Q254 50 271 50 Q300 50 322 63 Q344 76 359 97 Q374 118 382 143.5 Q390 169 390 195 Q390 231 379 259.5 Q368 288 349.5 308.5 Q331 329 306.5 340.5 Q282 352 255 354 L255 410 Z " />
<glyph glyph-name="registered" unicode="&#xae;" horiz-adv-x="526" d="M263 269 Q221 269 185 284 Q149 299 122.5 325.5 Q96 352 81 388.5 Q66 425 66 468 Q66 511 81 547.5 Q96 584 122.5 611 Q149 638 185 653 Q221 668 263 668 Q305 668 341 653 Q377 638 403.5 611 Q430 584 445 547.5 Q460 511 460 468 Q460 425 445 388.5 Q430 352 403.5 325.5 Q377 299 341 284 Q305 269 263 269 Z M263 638 Q228 638 198 625 Q168 612 146 589.5 Q124 567 111.5 535.5 Q99 504 99 468 Q99 432 111.5 401.5 Q124 371 146 348 Q168 325 198 312 Q228 299 263 299 Q298 299 328 312 Q358 325 379.5 348 Q401 371 413.5 401.5 Q426 432 426 468 Q426 504 413.5 535 Q401 566 379.5 589 Q358 612 328 625 Q298 638 263 638 Z M274 440 L223 440 L223 352 L187 352 L187 585 L281 585 Q314 585 335 567 Q356 549 356 513 Q356 466 313 445 Q317 438 323 425.5 Q329 413 336 399 Q343 385 349 372 Q355 359 359 352 L316 352 L274 440 Z M223 551 L223 473 L280 473 Q300 473 310 483.5 Q320 494 320 512 Q320 551 280 551 L223 551 Z " />
<glyph glyph-name="copyright" unicode="&#xa9;" horiz-adv-x="753" d="M380 -10 Q310 -10 250 15.5 Q190 41 146 86 Q102 131 77 192.5 Q52 254 52 325 Q52 397 77 458.5 Q102 520 146 565 Q190 610 250 635.5 Q310 661 380 661 Q450 661 510 635.5 Q570 610 614 565 Q658 520 683.5 458.5 Q709 397 709 325 Q709 254 683.5 192.5 Q658 131 614 86 Q570 41 510 15.5 Q450 -10 380 -10 Z M380 614 Q320 614 268.5 592 Q217 570 179.5 531 Q142 492 120.5 439 Q99 386 99 325 Q99 264 120.5 211 Q142 158 179.5 119 Q217 80 268.5 58 Q320 36 380 36 Q440 36 491.5 58 Q543 80 580.5 119 Q618 158 639.5 211 Q661 264 661 325 Q661 386 639.5 439 Q618 492 580.5 531 Q543 570 491.5 592 Q440 614 380 614 Z M384 121 Q346 121 315 135.5 Q284 150 262.5 176.5 Q241 203 229.5 240.5 Q218 278 218 323 Q218 369 230 406.5 Q242 444 264 470.5 Q286 497 316.5 511.5 Q347 526 384 526 Q429 526 460.5 508 Q492 490 514 455 L471 430 Q454 454 433.5 466.5 Q413 479 384 479 Q327 479 298.5 435.5 Q270 392 270 323 Q270 255 298.5 211.5 Q327 168 384 168 Q416 168 436 180 Q456 192 475 216 L516 190 Q464 121 384 121 Z " />
<glyph glyph-name="Sigma" unicode="&#x3a3;" horiz-adv-x="559" d="M531 582 L149 582 L340 337 L131 69 L527 69 L527 0 L43 0 L43 68 L252 337 L62 582 L62 651 L531 651 L531 582 Z " />
<glyph glyph-name="section" unicode="&#xa7;" horiz-adv-x="554" d="M229 340 Q201 332 184.5 316 Q168 300 168 281 Q168 255 194.5 235.5 Q221 216 283 196 Q322 184 357 170.5 Q392 157 419 139 Q446 121 462 97 Q478 73 478 40 Q478 6 461.5 -20 Q445 -46 417 -64 Q389 -82 352 -91 Q315 -100 274 -100 Q227 -100 176.5 -87.5 Q126 -75 85 -53 L114 3 Q154 -17 197 -28.5 Q240 -40 276 -40 Q298 -40 321 -36 Q344 -32 363 -23 Q382 -14 393.5 0.5 Q405 15 405 35 Q405 53 394 67.5 Q383 82 363.5 93 Q344 104 318 114 Q292 124 262 133 Q226 144 196 157.5 Q166 171 144 188 Q122 205 109.5 226.5 Q97 248 97 276 Q97 321 126.5 353 Q156 385 209 399 L229 340 Z M341 272 Q364 281 379 296.5 Q394 312 394 336 Q394 355 384 368.5 Q374 382 357 393 Q340 404 316 413.5 Q292 423 264 432 Q228 444 198 456.5 Q168 469 146.5 485.5 Q125 502 112.5 524 Q100 546 100 575 Q100 634 148.5 670.5 Q197 707 286 707 Q373 707 448 671 L421 614 Q383 633 347 640 Q311 647 285 647 Q232 647 201.5 627 Q171 607 171 580 Q171 554 196.5 534.5 Q222 515 285 495 Q324 482 357.5 468.5 Q391 455 415.5 438 Q440 421 453.5 397.5 Q467 374 467 341 Q467 294 439 263 Q411 232 365 216 L341 272 Z " />
<glyph glyph-name="degree" unicode="&#xb0;" horiz-adv-x="432" d="M351 512 Q351 481 340.5 455 Q330 429 311.5 410.5 Q293 392 267.5 381.5 Q242 371 213 371 Q184 371 158.5 381.5 Q133 392 114 410.5 Q95 429 84 455 Q73 481 73 512 Q73 542 84 568 Q95 594 114 613 Q133 632 158.5 642.5 Q184 653 213 653 Q242 653 267.5 642.5 Q293 632 311.5 613 Q330 594 340.5 568 Q351 542 351 512 Z M304 512 Q304 532 297 549.5 Q290 567 277.5 579.5 Q265 592 248.5 599.5 Q232 607 213 607 Q194 607 177 599.5 Q160 592 147.5 579.5 Q135 567 128 549.5 Q121 532 121 512 Q121 492 128 474.5 Q135 457 147.5 444 Q160 431 177 423.5 Q194 416 213 416 Q251 416 277.5 443 Q304 470 304 512 Z " />
<glyph glyph-name="periodcentered" unicode="&#xb7;" horiz-adv-x="233" d="M170 309 Q170 286 155 271 Q140 256 117 256 Q95 256 80 271 Q65 286 65 309 Q65 332 80 347.5 Q95 363 117 363 Q139 363 154.5 347.5 Q170 332 170 309 Z " />
<glyph glyph-name="plusminus" unicode="&#xb1;" horiz-adv-x="609" d="M338 378 L338 211 L271 211 L271 378 L103 378 L103 442 L271 442 L271 618 L338 618 L338 442 L506 442 L506 378 L338 378 Z M103 92 L103 152 L505 152 L505 92 L103 92 Z " />
<glyph glyph-name="yen" unicode="&#xa5;" horiz-adv-x="609" d="M77 293 L246 293 L204 368 L77 368 L77 426 L173 426 L49 651 L136 651 L307 317 L479 651 L564 651 L439 426 L538 426 L538 368 L407 368 L365 293 L538 293 L538 235 L343 235 L343 0 L268 0 L268 235 L77 235 L77 293 Z " />
<glyph glyph-name="Phi" unicode="&#x3a6;" horiz-adv-x="703" d="M658 330 Q658 271 639.5 221 Q621 171 586 133.5 Q551 96 501 73 Q451 50 387 45 L387 0 L314 0 L314 46 Q253 52 203.5 75.5 Q154 99 119.5 136 Q85 173 66.5 222 Q48 271 48 329 Q48 385 66 434 Q84 483 118 521 Q152 559 201.5 583 Q251 607 314 612 L314 651 L387 651 L387 612 Q453 606 503.5 582.5 Q554 559 588.5 522 Q623 485 640.5 436 Q658 387 658 330 Z M583 329 Q583 370 572 407.5 Q561 445 537 474.5 Q513 504 476 524 Q439 544 387 550 L387 106 Q438 112 475 132.5 Q512 153 536 183 Q560 213 571.5 250.5 Q583 288 583 329 Z M314 549 Q267 543 231.5 524 Q196 505 171.5 475.5 Q147 446 134.5 409 Q122 372 122 330 Q122 289 133.5 251.5 Q145 214 168.5 184 Q192 154 228 134 Q264 114 314 107 L314 549 Z " />
<glyph glyph-name="Psi" unicode="&#x3a8;" horiz-adv-x="673" d="M619 421 Q619 290 554.5 221.5 Q490 153 372 143 L372 0 L300 0 L300 143 Q179 154 117.5 222.5 Q56 291 56 422 L56 651 L130 651 L130 423 Q130 329 171 276.5 Q212 224 299 213 L299 651 L372 651 L372 213 Q464 223 504.5 274.5 Q545 326 545 420 L545 651 L619 651 L619 421 L619 421 Z " />
<glyph glyph-name="Omega" unicode="&#x3a9;" horiz-adv-x="658" d="M383 0 L383 84 Q420 96 446.5 119.5 Q473 143 490 176 Q507 209 515 250 Q523 291 523 337 Q523 392 510 438.5 Q497 485 472 519 Q447 553 410.5 572.5 Q374 592 327 592 Q278 592 241 572 Q204 552 179 517.5 Q154 483 141.5 437 Q129 391 129 338 Q129 293 137 252 Q145 211 162 177.5 Q179 144 206.5 119.5 Q234 95 272 84 L272 0 L47 0 L47 65 L176 65 Q139 84 115.5 115 Q92 146 78.5 183 Q65 220 59.5 259.5 Q54 299 54 337 Q54 411 73.5 471 Q93 531 129 573 Q165 615 215 638 Q265 661 327 661 Q388 661 438.5 638 Q489 615 525 573 Q561 531 581 471 Q601 411 601 338 Q601 300 595.5 260.5 Q590 221 576 185 Q562 149 538 117.5 Q514 86 477 65 L608 65 L608 0 L383 0 Z " />
<glyph glyph-name="guillemotleft" unicode="&#xab;" horiz-adv-x="476" d="M369 40 L232 245 L369 451 L436 451 L301 245 L436 40 L369 40 Z M189 40 L52 245 L189 451 L257 451 L121 245 L257 40 L189 40 Z " />
<glyph glyph-name="guillemotright" unicode="&#xbb;" horiz-adv-x="476" d="M302 40 L234 40 L369 245 L234 451 L302 451 L439 245 L302 40 Z M122 40 L54 40 L190 245 L54 451 L123 451 L259 245 L122 40 Z " />
<glyph glyph-name="ellipsis" unicode="&#x2026;" horiz-adv-x="701" d="M641 43 Q641 22 626.5 7 Q612 -8 592 -8 Q572 -8 557 7 Q542 22 542 43 Q542 64 557 79 Q572 94 592 94 Q612 94 626.5 79.5 Q641 65 641 43 Z M403 43 Q403 22 389 7 Q375 -8 354 -8 Q333 -8 319 7 Q305 22 305 43 Q305 64 319 79 Q333 94 354 94 Q375 94 389 79.5 Q403 65 403 43 Z M169 43 Q169 22 154 7 Q139 -8 119 -8 Q99 -8 84.5 7 Q70 22 70 43 Q70 64 84.5 79 Q99 94 119 94 Q139 94 154 79.5 Q169 65 169 43 Z " />
<glyph glyph-name="oe" unicode="&#x153;" horiz-adv-x="842" d="M603 497 Q652 497 689.5 479.5 Q727 462 753 429.5 Q779 397 792.5 351.5 Q806 306 806 250 L806 217 L468 217 Q473 134 513.5 93 Q554 52 610 52 Q642 52 671.5 64.5 Q701 77 724 98 L768 54 Q701 -10 604 -10 Q550 -10 504 17 Q458 44 432 101 Q405 47 358.5 18.5 Q312 -10 254 -10 Q209 -10 171 7.5 Q133 25 105 58 Q77 91 61 138 Q45 185 45 244 Q45 305 61 352.5 Q77 400 105.5 432 Q134 464 172.5 480.5 Q211 497 256 497 Q315 497 361 468.5 Q407 440 433 386 Q459 439 503.5 468 Q548 497 603 497 Z M395 244 Q395 285 386 320 Q377 355 359 380.5 Q341 406 314.5 420.5 Q288 435 253 435 Q220 435 194 420 Q168 405 151 379.5 Q134 354 125 319.5 Q116 285 116 246 Q116 158 153.5 105.5 Q191 53 257 53 Q290 53 316 68.5 Q342 84 359.5 110 Q377 136 386 170.5 Q395 205 395 244 Z M736 274 Q736 307 728 336.5 Q720 366 703.5 388.5 Q687 411 661.5 424 Q636 437 601 437 Q575 437 552 425.5 Q529 414 511 392.5 Q493 371 482 341 Q471 311 469 274 L736 274 Z " />
<glyph glyph-name="endash" unicode="&#x2013;" horiz-adv-x="500" d="M31 276 L31 342 L469 342 L469 276 L31 276 Z " />
<glyph glyph-name="afii00208" unicode="&#x2015;" horiz-adv-x="997" d="M30 279 L30 345 L967 345 L967 279 L30 279 Z " />
<glyph glyph-name="quotedblleft" unicode="&#x201c;" horiz-adv-x="365" d="M136 661 Q147 648 156 635 Q137 623 124.5 604.5 Q112 586 110 563 Q112 563 112.5 563.5 Q113 564 115 564 Q135 564 149.5 551.5 Q164 539 164 516 Q164 494 149 478.5 Q134 463 113 463 Q90 463 72.5 482 Q55 501 55 534 Q55 577 78 608.5 Q101 640 136 661 Z M281 661 Q292 648 301 635 Q283 623 270 604.5 Q257 586 255 563 Q257 563 258 563.5 Q259 564 260 564 Q280 564 294.5 551.5 Q309 539 309 516 Q309 494 294 478.5 Q279 463 258 463 Q235 463 217.5 482 Q200 501 200 534 Q200 577 223 608.5 Q246 640 281 661 Z " />
<glyph glyph-name="quotedblright" unicode="&#x201d;" horiz-adv-x="365" d="M83 463 Q74 476 63 489 Q82 502 95 520.5 Q108 539 110 562 Q87 562 71 572.5 Q55 583 55 609 Q55 631 70.5 646 Q86 661 106 661 Q129 661 147 642 Q165 623 165 591 Q165 547 141.5 516 Q118 485 83 463 Z M209 489 Q227 502 240 520.5 Q253 539 255 562 Q233 562 217 572.5 Q201 583 201 609 Q201 631 216 646 Q231 661 252 661 Q275 661 292.5 642 Q310 623 310 591 Q310 547 287 516 Q264 485 229 463 L209 489 Z " />
<glyph glyph-name="quoteleft" unicode="&#x2018;" horiz-adv-x="230" d="M139 661 Q150 648 159 635 Q140 623 127.5 604.5 Q115 586 113 563 Q115 563 115.5 563.5 Q116 564 118 564 Q138 564 152.5 551.5 Q167 539 167 516 Q167 494 152 478.5 Q137 463 116 463 Q93 463 75.5 482 Q58 501 58 534 Q58 577 81 608.5 Q104 640 139 661 Z " />
<glyph glyph-name="quoteright" unicode="&#x2019;" horiz-adv-x="230" d="M66 489 Q85 502 97.5 520.5 Q110 539 112 562 Q90 562 74 572.5 Q58 583 58 609 Q58 631 73 646 Q88 661 109 661 Q132 661 149.5 642 Q167 623 167 591 Q167 547 144 516 Q121 485 86 463 L66 489 Z " />
<glyph glyph-name="alpha" unicode="&#x3b1;" horiz-adv-x="502" d="M45 242 Q45 306 61.5 353.5 Q78 401 104.5 433 Q131 465 165 481 Q199 497 234 497 Q267 497 303 486 Q339 475 373 440 L375 440 L375 488 L443 488 L443 0 L385 0 Q385 3 383.5 10.5 Q382 18 380.5 26 Q379 34 377.5 41 Q376 48 376 52 L374 52 Q307 -10 228 -10 Q145 -10 95 53.5 Q45 117 45 242 Z M115 246 Q115 152 147 102 Q179 52 245 52 Q264 52 282.5 58 Q301 64 317.5 74 Q334 84 348 96.5 Q362 109 372 121 L372 366 Q351 393 318.5 415 Q286 437 245 437 Q217 437 193.5 423 Q170 409 152.5 383.5 Q135 358 125 323 Q115 288 115 246 Z " />
<glyph glyph-name="beta" unicode="&#x3b2;" horiz-adv-x="498" d="M266 -8 Q225 -8 192.5 6.5 Q160 21 132 48 L129 48 L129 -137 L60 -168 L60 498 Q60 540 73 576 Q86 612 109.5 637.5 Q133 663 166.5 677.5 Q200 692 241 692 Q283 692 314.5 679 Q346 666 367 643.5 Q388 621 399 592 Q410 563 410 532 Q410 512 404 490.5 Q398 469 386 450 Q374 431 356.5 416 Q339 401 317 394 L317 393 Q345 388 370 371 Q395 354 414 328.5 Q433 303 443.5 271 Q454 239 454 203 Q454 160 441 121.5 Q428 83 403.5 54.5 Q379 26 344 9 Q309 -8 266 -8 Z M196 362 L196 415 L202 415 Q220 415 244.5 420.5 Q269 426 291 439 Q313 452 328.5 474 Q344 496 344 529 Q344 571 316 601 Q288 631 240 631 Q213 631 192.5 621 Q172 611 158 593.5 Q144 576 136.5 553.5 Q129 531 129 506 L129 120 Q138 108 150.5 96.5 Q163 85 179 75 Q195 65 214.5 59 Q234 53 257 53 Q288 53 312 66 Q336 79 351.5 100 Q367 121 375 147.5 Q383 174 383 200 Q383 236 370.5 266 Q358 296 337.5 317.5 Q317 339 290 350.5 Q263 362 233 362 L196 362 Z " />
<glyph glyph-name="psi" unicode="&#x3c8;" horiz-adv-x="590" d="M537 214 Q537 114 483 57.5 Q429 1 329 -7 L329 -165 L259 -194 L259 -7 Q214 -3 176 12 Q138 27 110.5 54 Q83 81 67.5 121 Q52 161 52 215 L52 490 L122 490 L122 218 Q122 138 159 100.5 Q196 63 259 55 L259 536 L329 566 L329 56 Q390 61 428.5 99.5 Q467 138 467 218 L467 473 L537 502 L537 214 L537 214 Z " />
<glyph glyph-name="delta" unicode="&#x3b4;" horiz-adv-x="497" d="M263 692 Q349 692 415 659 Q410 644 404 629.5 Q398 615 392 600 Q357 619 326 626.5 Q295 634 266 634 Q242 634 223 627 Q204 620 191.5 609 Q179 598 172 584.5 Q165 571 165 557 Q165 528 193.5 503 Q222 478 272 454 Q308 436 340.5 414 Q373 392 398.5 363.5 Q424 335 439 298 Q454 261 454 214 Q454 164 438 122.5 Q422 81 394 52 Q366 23 329 7 Q292 -9 249 -9 Q149 -9 95.5 49.5 Q42 108 42 205 Q42 234 51 265 Q60 296 78.5 324.5 Q97 353 125.5 377 Q154 401 192 415 L192 417 Q148 443 121.5 476.5 Q95 510 95 549 Q95 578 106.5 604 Q118 630 139.5 649.5 Q161 669 192 680.5 Q223 692 263 692 Z M255 385 Q226 379 200.5 360.5 Q175 342 156 317 Q137 292 126 263 Q115 234 115 206 Q115 174 123.5 146 Q132 118 148.5 97 Q165 76 190 64 Q215 52 248 52 Q284 52 309.5 67.5 Q335 83 351 106 Q367 129 374.5 156 Q382 183 382 207 Q382 262 353 308.5 Q324 355 255 385 Z " />
<glyph glyph-name="epsilon" unicode="&#x3b5;" horiz-adv-x="428" d="M414 61 Q372 20 325.5 5 Q279 -10 233 -10 Q200 -10 166.5 -2.5 Q133 5 106.5 22 Q80 39 63 66.5 Q46 94 46 134 Q46 170 69.5 203 Q93 236 135 248 L135 250 Q113 257 97.5 269 Q82 281 72.5 295 Q63 309 58.5 325 Q54 341 54 356 Q54 388 69 414 Q84 440 109.5 458.5 Q135 477 168 487 Q201 497 236 497 Q283 497 324 484 Q365 471 403 436 L361 388 Q306 437 243 437 Q211 437 189 428.5 Q167 420 153 407.5 Q139 395 132.5 381 Q126 367 126 357 Q126 335 134 320.5 Q142 306 155.5 297 Q169 288 185.5 284.5 Q202 281 220 281 L287 281 L287 226 L226 226 Q208 226 189 221 Q170 216 154 206 Q138 196 127.5 180 Q117 164 117 143 Q117 105 146.5 78 Q176 51 235 51 Q260 51 296.5 60.5 Q333 70 372 107 L414 61 L414 61 Z " />
<glyph glyph-name="phi" unicode="&#x3c6;" horiz-adv-x="625" d="M580 252 Q580 192 563 144.5 Q546 97 514.5 64 Q483 31 439.5 13 Q396 -5 344 -6 L344 -162 L274 -192 L274 -6 Q222 -4 179.5 14 Q137 32 107 65 Q77 98 60.5 145 Q44 192 44 252 Q44 302 57 340.5 Q70 379 89.5 406.5 Q109 434 131.5 452 Q154 470 174 479 L195 418 Q182 410 168 396.5 Q154 383 142 362.5 Q130 342 122.5 313.5 Q115 285 115 249 Q115 189 133 152 Q151 115 176.5 94 Q202 73 229 65 Q256 57 274 57 L274 498 L352 498 Q400 498 442 481 Q484 464 514.5 432.5 Q545 401 562.5 355.5 Q580 310 580 252 Z M344 57 Q360 57 387.5 63 Q415 69 442 88.5 Q469 108 488.5 146 Q508 184 508 249 Q508 331 466.5 382 Q425 433 344 435 L344 57 Z " />
<glyph glyph-name="gamma" unicode="&#x3b3;" horiz-adv-x="442" d="M255 -159 L185 -191 L185 44 Q141 155 98 265.5 Q55 376 10 488 L84 488 Q106 431 126.5 375 Q147 319 169 262 L220 130 L222 130 Q234 163 246.5 196.5 Q259 230 272 263 Q279 282 290.5 312.5 Q302 343 314.5 375.5 Q327 408 338 438.5 Q349 469 356 488 L430 488 Q386 376 343 265 Q300 154 255 42 L255 -159 Z " />
<glyph glyph-name="eta" unicode="&#x3b7;" horiz-adv-x="486" d="M438 0 L366 0 L366 293 Q366 362 339 398.5 Q312 435 251 435 Q206 435 174 405.5 Q142 376 131 334 Q126 314 126 291 L126 0 L55 0 L55 488 L126 488 L126 419 L128 418 Q155 460 195 478.5 Q235 497 272 497 Q357 497 397.5 447.5 Q438 398 438 304 L438 0 Z " />
<glyph glyph-name="iota" unicode="&#x3b9;" horiz-adv-x="233" d="M80 0 L80 487 L152 487 L152 0 L80 0 Z " />
<glyph glyph-name="xi" unicode="&#x3be;" horiz-adv-x="390" d="M109 189 Q109 161 118 141.5 Q127 122 148 106.5 Q169 91 204 77.5 Q239 64 290 49 Q339 36 356.5 19 Q374 2 374 -24 Q374 -39 366.5 -57.5 Q359 -76 347 -95 Q335 -114 320.5 -131 Q306 -148 293 -161 L251 -130 Q272 -101 284 -78 Q296 -55 301 -41 Q303 -31 298 -27.5 Q293 -24 279 -19 Q229 -4 185 11 Q141 26 108.5 48 Q76 70 57 103 Q38 136 38 187 Q38 210 45 237.5 Q52 265 67 290.5 Q82 316 105 337 Q128 358 160 370 L160 371 Q128 381 107.5 398 Q87 415 75 435 Q63 455 58 476.5 Q53 498 53 518 Q53 558 68 589 Q83 620 108.5 642 Q134 664 168 675.5 Q202 687 239 687 Q281 687 325 674.5 Q369 662 401 630 L365 583 Q339 606 308 616 Q277 626 240 626 Q212 626 191 617 Q170 608 155.5 592.5 Q141 577 133.5 557 Q126 537 126 515 Q126 487 137.5 465.5 Q149 444 167 429 Q185 414 207.5 406 Q230 398 253 398 L349 398 L349 342 L256 342 Q221 342 194 328.5 Q167 315 148 293.5 Q129 272 119 244.5 Q109 217 109 189 Z " />
<glyph glyph-name="kappa" unicode="&#x3ba;" horiz-adv-x="445" d="M348 0 L229 268 L129 139 L129 0 L58 0 L58 487 L129 487 L129 239 L130 239 Q136 247 146.5 260.5 Q157 274 167.5 288 Q178 302 187 314 Q196 326 201 332 L321 487 L405 487 Q397 477 379.5 455 Q362 433 342.5 408.5 Q323 384 305.5 361.5 Q288 339 281 329 Q287 316 298.5 290 Q310 264 324 232 Q338 200 353.5 164.5 Q369 129 383 97 Q397 65 408.5 39 Q420 13 426 0 L348 0 Z " />
<glyph glyph-name="lambda" unicode="&#x3bb;" horiz-adv-x="452" d="M334 49 Q315 97 304 137 Q293 177 279 220 L231 376 L229 376 Q224 363 217 343.5 Q210 324 201 301 Q192 278 182 252 Q172 226 161 200 Q157 191 146 163.5 Q135 136 123 104 Q111 72 99.5 42.5 Q88 13 82 0 L7 0 Q56 116 103.5 232 Q151 348 200 465 L164 584 Q156 610 146.5 621.5 Q137 633 108 633 Q104 633 100 633 Q96 633 91 632 L88 687 Q100 689 112 690 Q124 691 133 691 Q165 691 186.5 680 Q208 669 217 640 L391 91 Q399 66 408 58.5 Q417 51 438 51 L439 0 Q429 -2 420 -2.5 Q411 -3 403 -3 Q377 -3 361 8.5 Q345 20 334 49 Z " />
<glyph glyph-name="&amp;#xb5;" unicode="&#xb5;" horiz-adv-x="493" d="M128 199 Q128 121 156.5 86 Q185 51 243 51 Q287 51 317 78.5 Q347 106 359 148 Q366 170 366 199 L366 489 L437 489 L437 0 L366 0 L366 67 L364 67 Q338 26 302 8.5 Q266 -9 233 -9 Q199 -9 173.5 2 Q148 13 128 33 L127 33 L127 -149 Q109 -157 91.5 -165 Q74 -173 56 -181 L56 489 L128 489 L128 199 Z " />
<glyph glyph-name="&amp;#x3bc;" unicode="&#x3bc;" horiz-adv-x="493" d="M128 199 Q128 121 156.5 86 Q185 51 243 51 Q287 51 317 78.5 Q347 106 359 148 Q366 170 366 199 L366 489 L437 489 L437 0 L366 0 L366 67 L364 67 Q338 26 302 8.5 Q266 -9 233 -9 Q199 -9 173.5 2 Q148 13 128 33 L127 33 L127 -149 Q109 -157 91.5 -165 Q74 -173 56 -181 L56 489 L128 489 L128 199 Z " />
<glyph glyph-name="nu" unicode="&#x3bd;" horiz-adv-x="450" d="M189 0 L15 488 L88 488 Q112 417 136 348 Q160 279 183 209 Q194 177 204 145.5 Q214 114 225 82 L228 82 Q231 92 241 122 Q251 152 264.5 192.5 Q278 233 293 278.5 Q308 324 322 365.5 Q336 407 347 440 Q358 473 363 488 L436 488 L263 0 L189 0 Z " />
<glyph glyph-name="pi" unicode="&#x3c0;" horiz-adv-x="501" d="M374 0 L374 426 L127 426 L127 0 L55 0 L55 489 L446 489 L446 0 L374 0 Z " />
<glyph glyph-name="rho" unicode="&#x3c1;" horiz-adv-x="516" d="M471 244 Q471 187 455.5 140.5 Q440 94 414 61 Q388 28 353.5 10 Q319 -8 280 -8 Q239 -8 202 5 Q165 18 125 59 L125 -161 L55 -191 L55 239 Q55 360 107.5 429 Q160 498 258 498 Q304 498 343.5 481.5 Q383 465 411 432.5 Q439 400 455 352.5 Q471 305 471 244 Z M399 237 Q399 271 392 306.5 Q385 342 368.5 370.5 Q352 399 326 417 Q300 435 263 435 Q226 435 200 420 Q174 405 157 379 Q140 353 132 318 Q124 283 124 243 L124 129 Q147 100 184.5 77.5 Q222 55 264 55 Q294 55 318.5 68.5 Q343 82 361 106 Q379 130 389 163.5 Q399 197 399 237 Z " />
<glyph glyph-name="sigma" unicode="&#x3c3;" horiz-adv-x="531" d="M388 426 L388 424 Q428 397 448 349 Q468 301 468 246 Q468 183 451.5 135.5 Q435 88 406.5 55.5 Q378 23 339 6.5 Q300 -10 254 -10 Q209 -10 171 7 Q133 24 105.5 57 Q78 90 62 137 Q46 184 46 244 Q46 306 62 352 Q78 398 106 428 Q134 458 172 473 Q210 488 255 488 L510 488 L510 426 L388 426 Z M395 244 Q395 326 357.5 375.5 Q320 425 253 425 Q186 425 151 375.5 Q116 326 116 246 Q116 158 153.5 105.5 Q191 53 257 53 Q290 53 316 68.5 Q342 84 359.5 110 Q377 136 386 170.5 Q395 205 395 244 Z " />
<glyph glyph-name="tau" unicode="&#x3c4;" horiz-adv-x="331" d="M308 488 L308 426 L179 426 L179 115 Q179 82 192 69.5 Q205 57 231 57 Q256 57 297 63 L303 9 Q287 2 261 -2.5 Q235 -7 213 -7 Q158 -7 134.5 22 Q111 51 111 105 L111 426 L13 426 L13 488 L308 488 Z " />
<glyph glyph-name="theta" unicode="&#x3b8;" horiz-adv-x="514" d="M468 351 Q468 277 455.5 211.5 Q443 146 417 96.5 Q391 47 351 18 Q311 -11 255 -11 Q205 -11 166.5 13.5 Q128 38 101 84.5 Q74 131 60 197.5 Q46 264 46 347 Q46 433 61.5 497.5 Q77 562 104.5 605.5 Q132 649 171 670.5 Q210 692 257 692 Q304 692 343 669 Q382 646 409.5 602 Q437 558 452.5 495 Q468 432 468 351 Z M396 390 Q391 504 354 567 Q317 630 254 630 Q192 630 157.5 568.5 Q123 507 118 390 L396 390 Z M118 330 Q119 195 153.5 123.5 Q188 52 258 52 Q294 52 320 72 Q346 92 363 128.5 Q380 165 388.5 216 Q397 267 397 329 L118 330 Z " />
<glyph glyph-name="omega" unicode="&#x3c9;" horiz-adv-x="738" d="M500 -9 Q462 -9 426.5 9.5 Q391 28 369 71 L368 71 Q343 29 309 10 Q275 -9 236 -9 Q195 -9 160.5 6.5 Q126 22 100 53 Q74 84 59.5 131.5 Q45 179 45 243 Q45 287 57.5 328 Q70 369 92 403 Q114 437 144.5 460.5 Q175 484 211 493 L235 435 Q205 426 183 406 Q161 386 146 359.5 Q131 333 123.5 303 Q116 273 116 243 Q116 152 149 102 Q182 52 239 52 Q263 52 281.5 62 Q300 72 312.5 89 Q325 106 331 128.5 Q337 151 337 176 L337 305 L403 305 L403 176 Q403 150 408.5 127.5 Q414 105 426 88.5 Q438 72 456 62 Q474 52 498 52 Q558 52 589.5 100 Q621 148 621 240 Q621 270 613.5 300.5 Q606 331 591 357 Q576 383 554 403.5 Q532 424 504 434 L528 492 Q566 481 596.5 456.5 Q627 432 648 398 Q669 364 680.5 323 Q692 282 692 240 Q692 177 677.5 130 Q663 83 637 52 Q611 21 576 6 Q541 -9 500 -9 Z " />
<glyph glyph-name="sigma1" unicode="&#x3c2;" horiz-adv-x="431" d="M45 235 Q45 296 60 344.5 Q75 393 102.5 426.5 Q130 460 168 478 Q206 496 252 496 Q300 496 339 480.5 Q378 465 410 431 L367 386 Q339 413 310.5 424 Q282 435 250 435 Q218 435 193 420 Q168 405 151 379 Q134 353 125.5 317 Q117 281 117 238 Q117 198 125.5 170 Q134 142 154 121 Q174 100 207 83.5 Q240 67 290 50 Q338 33 356 19 Q374 5 374 -21 Q374 -36 366.5 -54.5 Q359 -73 347 -91.5 Q335 -110 320.5 -127.5 Q306 -145 292 -158 L250 -126 Q268 -99 280.5 -78 Q293 -57 299 -40 Q302 -32 298 -26.5 Q294 -21 277 -16 Q226 0 183 19 Q140 38 109.5 66 Q79 94 62 134.5 Q45 175 45 235 Z " />
<glyph glyph-name="upsilon" unicode="&#x3c5;" horiz-adv-x="491" d="M444 210 Q444 97 394 43.5 Q344 -10 249 -10 Q154 -10 102 43.5 Q50 97 50 210 L50 489 L123 489 L123 214 Q123 133 151.5 91.5 Q180 50 247 50 Q319 50 345.5 92 Q372 134 372 214 L372 489 L444 489 L444 210 L444 210 Z " />
<glyph glyph-name="zeta" unicode="&#x3b6;" horiz-adv-x="388" d="M313 616 L69 616 L69 671 L410 671 L410 620 Q350 575 296 525 Q242 475 201 422.5 Q160 370 135.5 316.5 Q111 263 111 211 Q111 183 117 160 Q123 137 143.5 117 Q164 97 203 79 Q242 61 307 44 Q353 32 372.5 17.5 Q392 3 392 -23 Q392 -38 384.5 -56.5 Q377 -75 365 -94.5 Q353 -114 337.5 -133 Q322 -152 306 -167 Q304 -166 298 -161.5 Q292 -157 285 -151.5 Q278 -146 272 -141.5 Q266 -137 264 -136 Q281 -112 293.5 -89 Q306 -66 313 -49 Q318 -38 316 -32.5 Q314 -27 298 -23 Q243 -9 195.5 8 Q148 25 113.5 51 Q79 77 59.5 114 Q40 151 40 205 Q40 253 59.5 305.5 Q79 358 115 411 Q151 464 201.5 515.5 Q252 567 313 614 L313 616 Z " />
<glyph glyph-name="dollar" unicode="&#x24;" horiz-adv-x="609" d="M261 6 Q208 11 163 32.5 Q118 54 83 87 L131 139 Q166 107 209 89 Q252 71 299 71 Q366 71 406.5 96.5 Q447 122 447 178 Q447 223 415.5 247 Q384 271 324 291 Q274 308 232.5 323 Q191 338 161.5 358 Q132 378 116 407 Q100 436 100 481 Q100 514 112 541.5 Q124 569 145.5 590.5 Q167 612 196.5 626 Q226 640 261 645 L261 740 L330 740 L330 647 Q428 639 498 581 L453 529 Q418 556 380.5 569.5 Q343 583 297 583 Q237 583 205 555 Q173 527 173 485 Q173 462 183.5 445.5 Q194 429 211 417 Q228 405 249 396 Q270 387 292 380 Q327 368 367 355 Q407 342 441.5 320.5 Q476 299 498.5 265.5 Q521 232 521 180 Q521 107 473.5 60.5 Q426 14 330 6 L330 -87 L261 -87 L261 6 Z " />
<glyph glyph-name="Euro" unicode="&#x20ac;" horiz-adv-x="609" d="M113 403 Q121 465 144 513 Q167 561 201.5 594 Q236 627 281 644.5 Q326 662 379 662 Q486 662 557 599 L509 540 Q453 590 378 590 Q299 590 251.5 539 Q204 488 192 403 L460 403 L460 346 L52 346 L52 403 L113 403 Z M197 234 Q210 151 257.5 105.5 Q305 60 380 60 Q457 60 518 116 L565 61 Q530 27 483.5 8.5 Q437 -10 377 -10 Q326 -10 282 5 Q238 20 204 50 Q170 80 147.5 126 Q125 172 116 234 L52 234 L52 291 L460 291 L460 234 L197 234 Z " />
<glyph glyph-name="emdash" unicode="&#x2014;" horiz-adv-x="1000" d="M31 279 L31 345 L969 345 L969 279 L31 279 Z " />
<glyph glyph-name="Eth" unicode="&#xd0;" horiz-adv-x="612" d="M238 651 Q304 651 362.5 633 Q421 615 465.5 576 Q510 537 535.5 475.5 Q561 414 561 326 Q561 238 535 176 Q509 114 464 75 Q419 36 360 18 Q301 0 235 0 L73 0 L73 303 L7 303 L7 351 L73 351 L73 651 L238 651 Z M148 582 L148 351 L278 351 L278 303 L148 303 L148 69 L237 69 Q300 69 346 87.5 Q392 106 422.5 139.5 Q453 173 468 220.5 Q483 268 483 325 Q483 382 468 429.5 Q453 477 422.5 510.5 Q392 544 346 563 Q300 582 238 582 L148 582 Z " />
<glyph glyph-name="Oslash" unicode="&#xd8;" horiz-adv-x="635" d="M589 326 Q589 250 569.5 188 Q550 126 514.5 82 Q479 38 429 14 Q379 -10 317 -10 Q261 -10 217 8 Q173 26 139 60 L81 -15 L47 12 L110 94 Q78 139 62 197.5 Q46 256 46 325 Q46 397 64.5 458.5 Q83 520 117.5 565 Q152 610 202.5 635.5 Q253 661 317 661 Q371 661 415 643 Q459 625 493 591 L555 671 L590 642 L524 556 Q555 512 572 454 Q589 396 589 326 Z M123 326 Q123 278 132 235.5 Q141 193 159 158 L449 533 Q425 561 392 576.5 Q359 592 317 592 Q269 592 232.5 572 Q196 552 172 516.5 Q148 481 135.5 432.5 Q123 384 123 326 Z M511 325 Q511 425 475 494 L185 119 Q209 90 242 74.5 Q275 59 317 59 Q366 59 402.5 80.5 Q439 102 463 138 Q487 174 499 222.5 Q511 271 511 325 Z " />
<glyph glyph-name="Thorn" unicode="&#xde;" horiz-adv-x="557" d="M539 330 Q539 279 523.5 241.5 Q508 204 479.5 179 Q451 154 411.5 141.5 Q372 129 324 129 L140 129 L140 0 L65 0 L65 651 L140 651 L140 528 L331 528 Q377 528 415 516 Q453 504 480.5 479 Q508 454 523.5 417 Q539 380 539 330 Z M140 460 L140 198 L328 198 Q392 198 427 231.5 Q462 265 462 328 Q462 392 425.5 426 Q389 460 329 460 L140 460 Z " />
<glyph glyph-name="ae" unicode="&#xe6;" horiz-adv-x="805" d="M565 496 Q613 496 651 478 Q689 460 714.5 427.5 Q740 395 753.5 350.5 Q767 306 767 253 L767 217 L430 217 Q434 132 474.5 92 Q515 52 570 52 Q602 52 632.5 65 Q663 78 685 99 L728 54 Q689 19 651 4.5 Q613 -10 564 -10 Q515 -10 473.5 12 Q432 34 403 79 Q368 49 340.5 31.5 Q313 14 290 5 Q267 -4 246.5 -6.5 Q226 -9 206 -9 Q177 -9 148 -0.5 Q119 8 95.5 26.5 Q72 45 57.5 74.5 Q43 104 43 146 Q43 181 56.5 210 Q70 239 94.5 259.5 Q119 280 152.5 291 Q186 302 226 302 Q260 302 292 294 Q324 286 360 269 Q360 280 360.5 294 Q361 308 362 324 Q364 377 333 407 Q302 437 245 437 Q209 437 179.5 428.5 Q150 420 119 404 L94 461 Q129 478 167 488 Q205 498 253 498 Q314 498 353.5 474 Q393 450 410 408 Q436 450 476.5 473 Q517 496 565 496 Z M377 130 Q371 147 366.5 168.5 Q362 190 361 213 Q332 227 299.5 237 Q267 247 228 247 Q204 247 182 240.5 Q160 234 144 221 Q128 208 118.5 190 Q109 172 109 148 Q109 100 139 73 Q169 46 222 46 Q263 46 305 69.5 Q347 93 377 130 Z M696 273 Q696 306 688.5 335 Q681 364 664.5 386 Q648 408 622.5 421 Q597 434 562 434 Q536 434 513 423 Q490 412 472 391 Q454 370 443 340 Q432 310 430 273 L696 273 Z " />
<glyph glyph-name="oslash" unicode="&#xf8;" horiz-adv-x="513" d="M468 246 Q468 185 451.5 137.5 Q435 90 406.5 57 Q378 24 339 7 Q300 -10 254 -10 Q175 -10 123 36 L80 -20 L46 3 L94 68 Q71 100 58 144.5 Q45 189 45 244 Q45 305 61 352.5 Q77 400 105.5 432 Q134 464 172.5 480.5 Q211 497 256 497 Q293 497 325.5 485.5 Q358 474 384 453 L424 506 L459 480 L415 421 Q440 389 454 345 Q468 301 468 246 Z M397 244 Q397 314 371 364 L165 92 Q202 53 258 53 Q293 53 319 68.5 Q345 84 362.5 110 Q380 136 388.5 170.5 Q397 205 397 244 Z M117 246 Q117 177 140 129 L344 400 Q327 417 304.5 426 Q282 435 254 435 Q221 435 195 420 Q169 405 152 379.5 Q135 354 126 319.5 Q117 285 117 246 Z " />
<glyph glyph-name="thorn" unicode="&#xfe;" horiz-adv-x="499" d="M126 651 L126 439 L128 439 Q164 475 200 486 Q236 497 270 497 Q304 497 337 482.5 Q370 468 395.5 437.5 Q421 407 437 360 Q453 313 453 248 Q453 179 435.5 130 Q418 81 389.5 50 Q361 19 326 5 Q291 -9 255 -9 Q220 -9 188.5 3 Q157 15 126 46 L125 46 L125 -149 Q107 -157 89.5 -165 Q72 -173 54 -181 L54 651 L126 651 Z M125 120 Q145 94 177.5 73 Q210 52 247 52 Q313 52 348 103.5 Q383 155 383 249 Q383 337 347 387 Q311 437 253 437 Q212 437 179 416 Q146 395 125 368 L125 120 Z " />
<glyph glyph-name="OE" unicode="&#x152;" horiz-adv-x="856" d="M394 0 Q377 -5 358 -7.5 Q339 -10 319 -10 Q254 -10 204 15 Q154 40 119 84.5 Q84 129 66 190.5 Q48 252 48 325 Q48 397 66 458.5 Q84 520 119 565 Q154 610 204 635.5 Q254 661 319 661 Q338 661 356 658.5 Q374 656 391 651 L805 651 L805 582 L465 582 L465 382 L707 382 L707 313 L465 313 L465 69 L818 69 L818 0 L394 0 Z M319 59 Q358 59 390 74 L390 577 Q358 592 319 592 Q271 592 234.5 572 Q198 552 173.5 516.5 Q149 481 136.5 432.5 Q124 384 124 326 Q124 271 136 222.5 Q148 174 172.5 137.5 Q197 101 233.5 80 Q270 59 319 59 Z " />
<glyph glyph-name="cent" unicode="&#xa2;" horiz-adv-x="609" d="M294 -7 Q256 -2 223.5 16.5 Q191 35 167.5 66.5 Q144 98 130.5 142 Q117 186 117 243 Q117 298 130 342.5 Q143 387 166.5 418.5 Q190 450 222.5 469 Q255 488 294 494 L294 602 L347 602 L347 496 Q429 488 487 424 L441 378 Q412 407 385.5 420.5 Q359 434 324 434 Q292 434 266.5 419.5 Q241 405 224 380 Q207 355 198 320 Q189 285 189 245 Q189 204 197.5 169 Q206 134 223 108.5 Q240 83 266 68 Q292 53 328 53 Q363 53 389 67 Q415 81 442 109 L488 69 Q464 37 429.5 16.5 Q395 -4 347 -8 L347 -118 L294 -118 L294 -7 Z " />
<glyph glyph-name="florin" unicode="&#x192;" horiz-adv-x="609" d="M174 405 L271 405 Q274 424 277.5 445.5 Q281 467 283 486 Q288 523 298.5 558 Q309 593 328.5 620 Q348 647 378 663.5 Q408 680 453 680 Q476 680 497 676 Q518 672 535 666 L520 604 Q488 616 454 616 Q411 616 388.5 579.5 Q366 543 358 488 L347 405 L450 405 L450 342 L338 342 Q335 319 330.5 286 Q326 253 321 218.5 Q316 184 311.5 152 Q307 120 304 100 Q297 53 285 16.5 Q273 -20 253.5 -46 Q234 -72 206 -85.5 Q178 -99 139 -99 Q119 -99 95.5 -94 Q72 -89 52 -80 L73 -20 Q107 -34 131 -34 Q178 -34 197.5 3 Q217 40 228 103 Q232 129 236.5 159.5 Q241 190 245.5 222 Q250 254 254.5 285 Q259 316 263 342 L174 342 L174 405 Z " />
<glyph glyph-name="quotesinglbase" unicode="&#x201a;" horiz-adv-x="204" d="M50 -76 Q69 -62 81.5 -44 Q94 -26 96 -3 Q74 -3 58 7.5 Q42 18 42 43 Q42 66 57 81 Q72 96 93 96 Q117 96 134 77 Q151 58 151 25 Q151 -18 128 -49 Q105 -80 70 -101 L50 -76 Z " />
<glyph glyph-name="quotedblbase" unicode="&#x201e;" horiz-adv-x="374" d="M57 -76 Q75 -62 88 -44 Q101 -26 103 -3 Q81 -3 65 7.5 Q49 18 49 43 Q49 66 64 81 Q79 96 100 96 Q123 96 140.5 77 Q158 58 158 25 Q158 -18 135 -49 Q112 -80 77 -101 L57 -76 Z M226 -76 Q245 -62 257.5 -44 Q270 -26 272 -3 Q250 -3 234 7.5 Q218 18 218 43 Q218 66 233 81 Q248 96 269 96 Q292 96 309.5 77 Q327 58 327 25 Q327 -17 304 -48.5 Q281 -80 246 -101 L226 -76 Z " />
<glyph glyph-name="daggerdbl" unicode="&#x2021;" horiz-adv-x="514" d="M302 115 L302 -93 L232 -93 L232 115 L50 115 L50 178 L232 178 L232 390 L50 390 L50 453 L232 453 L232 651 L302 651 L302 454 L483 454 L483 390 L302 390 L302 179 L483 179 L483 115 L302 115 Z " />
<glyph glyph-name="questiondown" unicode="&#xbf;" horiz-adv-x="488" d="M34 -11 Q34 27 52.5 61 Q71 95 92 116 Q112 136 130.5 154 Q149 172 163.5 191.5 Q178 211 187.5 234.5 Q197 258 199 288 L271 288 Q269 260 263 237.5 Q257 215 246.5 195.5 Q236 176 221 158 Q206 140 188 120 Q177 108 163.5 93.5 Q150 79 138 62.5 Q126 46 117.5 28.5 Q109 11 109 -7 Q109 -22 115 -41 Q121 -60 136 -76.5 Q151 -93 176 -104 Q201 -115 240 -115 Q277 -115 301.5 -101.5 Q326 -88 340 -69.5 Q354 -51 361 -30.5 Q368 -10 371 4 L445 4 Q440 -41 421.5 -75.5 Q403 -110 374.5 -134 Q346 -158 309.5 -170.5 Q273 -183 233 -183 Q189 -183 152.5 -169.5 Q116 -156 90 -133 Q64 -110 49 -78.5 Q34 -47 34 -11 Z M287 435 Q287 410 271 397 Q255 384 236 384 Q215 384 201 398.5 Q187 413 187 434 Q187 455 201.5 469.5 Q216 484 237 484 Q258 484 272.5 470 Q287 456 287 435 Z " />
<glyph glyph-name="exclamdown" unicode="&#xa1;" horiz-adv-x="251" d="M110 295 L153 295 L168 83 L168 -173 L94 -173 L94 82 L110 295 Z M180 436 Q180 411 165 398 Q150 385 131 385 Q109 385 95 399.5 Q81 414 81 435 Q81 456 95.5 470.5 Q110 485 131 485 Q152 485 166 471 Q180 457 180 436 Z " />
<glyph glyph-name="guilsinglright" unicode="&#x203a;" horiz-adv-x="432" d="M187 40 L119 40 L255 245 L119 451 L188 451 L324 245 L187 40 Z " />
<glyph glyph-name="guilsinglleft" unicode="&#x2039;" horiz-adv-x="432" d="M248 33 L111 238 L248 444 L316 444 L180 238 L316 33 L248 33 Z " />
<glyph glyph-name="brokenbar" unicode="&#xa6;" horiz-adv-x="231" d="M88 313 L88 748 L154 748 L154 313 L88 313 Z M88 -187 L88 246 L154 246 L154 -187 L88 -187 Z " />
<glyph glyph-name="logicalnot" unicode="&#xac;" horiz-adv-x="609" d="M432 287 L106 287 L106 353 L502 353 L502 124 L432 124 L432 287 Z " />
<glyph glyph-name="macron" unicode="&#xaf;" horiz-adv-x="481" d="M144 605 L144 660 L386 660 L386 605 L144 605 Z " />
<glyph glyph-name="Dcroat" unicode="&#x110;" horiz-adv-x="612" d="M238 651 Q304 651 362.5 633 Q421 615 465.5 576 Q510 537 535.5 475.5 Q561 414 561 326 Q561 238 535 176 Q509 114 464 75 Q419 36 360 18 Q301 0 235 0 L73 0 L73 303 L7 303 L7 351 L73 351 L73 651 L238 651 Z M148 582 L148 351 L278 351 L278 303 L148 303 L148 69 L237 69 Q300 69 346 87.5 Q392 106 422.5 139.5 Q453 173 468 220.5 Q483 268 483 325 Q483 382 468 429.5 Q453 477 422.5 510.5 Q392 544 346 563 Q300 582 238 582 L148 582 Z " />
<glyph glyph-name="Lslash" unicode="&#x141;" horiz-adv-x="485" d="M65 0 L65 223 L0 186 L-26 231 L65 283 L65 651 L141 651 L141 327 L254 393 L279 348 L141 267 L141 70 L478 70 L478 0 L65 0 Z " />
<glyph glyph-name="lslash" unicode="&#x142;" horiz-adv-x="247" d="M82 0 L82 221 L21 186 L-5 231 L82 280 L82 660 L153 693 L153 321 L242 372 L267 327 L153 261 L153 0 L82 0 Z " />
<glyph glyph-name="dcroat" unicode="&#x111;" horiz-adv-x="509" d="M45 231 Q45 300 62.5 347.5 Q80 395 108.5 424.5 Q137 454 172 466.5 Q207 479 243 479 Q278 479 308.5 466.5 Q339 454 370 424 L372 424 L372 529 L234 529 L234 577 L372 577 L372 650 Q375 651 385.5 656 Q396 661 408 666 Q420 671 430 676 Q440 681 443 682 L443 577 L492 577 L492 529 L443 529 L443 0 L372 0 L372 48 L370 48 Q334 12 298 1 Q262 -10 228 -10 Q193 -10 160.5 3 Q128 16 102 45 Q76 74 60.5 119.5 Q45 165 45 231 Z M115 230 Q115 143 151 96.5 Q187 50 245 50 Q286 50 318.5 71.5 Q351 93 373 120 L373 349 Q353 376 320.5 397 Q288 418 251 418 Q185 418 150 369 Q115 320 115 230 Z " />
<glyph glyph-name="dotaccent" unicode="&#x2d9;" horiz-adv-x="316" d="M210 626 Q210 608 196.5 594.5 Q183 581 164 581 Q145 581 132 594.5 Q119 608 119 626 Q119 646 132 659.5 Q145 673 164 673 Q183 673 196.5 659.5 Q210 646 210 626 Z " />
<glyph glyph-name="multiply" unicode="&#xd7;" horiz-adv-x="609" d="M350 317 L490 177 L445 130 L305 269 L163 127 L117 173 L259 314 L117 457 Q128 468 140.5 480 Q153 492 164 503 L306 362 L449 504 L494 460 L350 317 Z " />
<glyph glyph-name="divide" unicode="&#xf7;" horiz-adv-x="609" d="M353 472 Q353 452 338.5 437 Q324 422 304 422 Q284 422 270 436.5 Q256 451 256 472 Q256 494 270 508 Q284 522 304 522 Q324 522 338.5 508 Q353 494 353 472 Z M353 143 Q353 123 338.5 108.5 Q324 94 304 94 Q284 94 270 108 Q256 122 256 143 Q256 165 270 179.5 Q284 194 304 194 Q324 194 338.5 179.5 Q353 165 353 143 Z M103 279 L103 343 L507 343 L507 279 L103 279 Z " />
<glyph glyph-name="cedilla" unicode="&#xb8;" horiz-adv-x="509" d="M275 -204 Q259 -204 239 -200.5 Q219 -197 196 -187 L209 -151 Q244 -164 273 -164 Q296 -164 309.5 -154 Q323 -144 323 -126 Q323 -105 307.5 -94 Q292 -83 270 -83 Q268 -83 265.5 -83.5 Q263 -84 261 -84 L241 -63 L271 28 L308 25 Q302 8 296 -9.5 Q290 -27 285 -44 Q313 -47 331 -55.5 Q349 -64 359.5 -75.5 Q370 -87 374 -100 Q378 -113 378 -124 Q378 -137 372.5 -151 Q367 -165 355 -177 Q343 -189 323.5 -196.5 Q304 -204 275 -204 Z " />
<glyph glyph-name="acute" unicode="&#xb4;" horiz-adv-x="483" d="M241 556 L203 569 L273 730 L355 715 L241 556 Z " />
<glyph glyph-name="hungarumlaut" unicode="&#x2dd;" horiz-adv-x="539" d="M244 556 L206 570 L270 721 L352 706 L244 556 Z M354 556 L317 570 L380 721 L463 706 L354 556 Z " />
<glyph glyph-name="currency" unicode="&#xa4;" horiz-adv-x="609" d="M46 510 Q57 521 67.5 532 Q78 543 89 554 L157 486 Q183 505 213.5 515 Q244 525 279 525 Q343 525 399 486 L467 554 L511 509 L442 442 Q481 386 481 322 Q481 289 471 259 Q461 229 442 201 L511 136 L467 91 Q450 108 433 125 Q416 142 399 159 Q370 137 340 128 Q310 119 278 119 Q246 119 216.5 128 Q187 137 158 159 L89 90 L46 135 L114 201 Q93 232 83.5 262 Q74 292 74 321 Q74 353 84.5 384.5 Q95 416 114 442 L46 510 Z M135 321 Q135 292 146 266 Q157 240 176.5 220.5 Q196 201 222 190 Q248 179 277 179 Q306 179 332 190 Q358 201 377.5 220.5 Q397 240 408.5 266 Q420 292 420 321 Q420 351 409 377 Q398 403 378.5 422.5 Q359 442 333 453 Q307 464 277 464 Q248 464 222 453 Q196 442 176.5 422.5 Q157 403 146 377 Q135 351 135 321 Z " />
<glyph glyph-name="paragraph" unicode="&#xb6;" horiz-adv-x="488" d="M218 288 Q179 288 146 302 Q113 316 89 340 Q65 364 51.5 396.5 Q38 429 38 467 Q38 504 51.5 536.5 Q65 569 89 593.5 Q113 618 146 632.5 Q179 647 218 647 L311 647 L311 288 L218 288 Z M428 -1 Q428 -45 420.5 -78.5 Q413 -112 393 -135.5 Q373 -159 337.5 -172.5 Q302 -186 245 -189 L241 -136 Q290 -131 316.5 -118.5 Q343 -106 356 -87.5 Q369 -69 371.5 -45 Q374 -21 374 7 L374 647 L428 647 L428 -1 Z " />
<glyph glyph-name="eth" unicode="&#xf0;" horiz-adv-x="514" d="M414 710 L446 684 L388 617 Q431 570 455 501.5 Q479 433 479 327 Q479 257 467 195.5 Q455 134 428 88.5 Q401 43 358 16.5 Q315 -10 254 -10 Q208 -10 170 7.5 Q132 25 105 57 Q78 89 63 134.5 Q48 180 48 236 Q48 294 64.5 338.5 Q81 383 109 413.5 Q137 444 174.5 459.5 Q212 475 254 475 Q294 475 338 453 Q382 431 407 387 L411 387 Q409 441 392.5 487 Q376 533 345 568 L292 506 L259 534 L314 597 Q260 639 180 648 L191 707 Q243 702 282.5 687 Q322 672 357 646 L414 710 Z M396 239 Q396 319 357.5 366.5 Q319 414 253 414 Q221 414 195.5 401 Q170 388 152.5 364.5 Q135 341 125.5 308.5 Q116 276 116 238 Q116 195 126.5 160.5 Q137 126 155.5 102 Q174 78 199.5 65 Q225 52 255 52 Q287 52 313 67 Q339 82 357.5 107.5 Q376 133 386 167 Q396 201 396 239 Z " />
<glyph glyph-name="tilde" unicode="&#x2dc;" horiz-adv-x="499" d="M416 652 Q399 611 373.5 594 Q348 577 319 577 Q302 577 284.5 583 Q267 589 250 596.5 Q233 604 217 610.5 Q201 617 186 617 Q169 617 153.5 609 Q138 601 121 578 L88 594 Q106 640 133.5 657 Q161 674 187 674 Q204 674 221 667.5 Q238 661 255.5 653 Q273 645 289.5 638.5 Q306 632 321 632 Q339 632 353 639.5 Q367 647 383 669 L416 652 Z " />
<glyph glyph-name="circumflex" unicode="&#x2c6;" horiz-adv-x="512" d="M253 644 L124 554 L96 577 L221 702 L289 702 L413 576 L385 553 L253 644 Z " />
<glyph glyph-name="ogonek" unicode="&#x2db;" horiz-adv-x="421" d="M235 2 Q209 -32 197.5 -57 Q186 -82 186 -101 Q186 -124 200.5 -136.5 Q215 -149 239 -149 Q261 -149 291 -136 L306 -174 Q287 -184 266.5 -189.5 Q246 -195 225 -195 Q186 -195 159 -173 Q132 -151 132 -113 Q132 -90 146 -61.5 Q160 -33 191 4 L235 4 L235 2 Z " />
<glyph glyph-name="caron" unicode="&#x2c7;" horiz-adv-x="450" d="M360 705 L388 683 L264 556 L196 556 L71 682 L100 704 L228 614 L360 705 Z " />
<glyph glyph-name="breve" unicode="&#x2d8;" horiz-adv-x="496" d="M197 682 Q201 654 219 636 Q237 618 269 618 Q303 618 320.5 638 Q338 658 340 682 L394 682 Q393 664 386 643.5 Q379 623 364.5 606.5 Q350 590 327 579 Q304 568 270 568 Q235 568 211 579 Q187 590 172 606.5 Q157 623 150.5 643.5 Q144 664 143 682 L197 682 Z " />
<glyph glyph-name="uni1FBD" unicode="&#x1fbd;" horiz-adv-x="504" d="M228 563 Q240 580 248.5 600 Q257 620 257 637 Q257 658 244 675 Q231 692 193 700 L216 765 Q266 754 293.5 729.5 Q321 705 321 666 Q321 643 307 611 Q293 579 261 549 L228 563 Z " />
<glyph glyph-name="uni1FBE" unicode="&#x1fbe;" horiz-adv-x="504" d="M289 -58 L289 -150 Q289 -171 297 -178.5 Q305 -186 325 -187 L344 -187 L344 -237 Q335 -241 320.5 -243 Q306 -245 297 -245 Q255 -245 241 -222 Q227 -199 227 -156 L227 -58 L289 -58 Z " />
<glyph glyph-name="uni1FC1" unicode="&#x1fc1;" horiz-adv-x="493" d="M388 579 Q388 561 374.5 547.5 Q361 534 344 534 Q325 534 312 547.5 Q299 561 299 579 Q299 597 312 610 Q325 623 344 623 Q361 623 374.5 610 Q388 597 388 579 Z M215 579 Q215 561 201.5 547.5 Q188 534 171 534 Q153 534 139 547.5 Q125 561 125 579 Q125 597 139 610 Q153 623 171 623 Q188 623 201.5 610 Q215 597 215 579 Z M420 732 Q403 692 377.5 674.5 Q352 657 323 657 Q306 657 288.5 663 Q271 669 254 676.5 Q237 684 221 690.5 Q205 697 190 697 Q173 697 157.5 689 Q142 681 125 658 L92 674 Q110 720 137.5 736.5 Q165 753 191 753 Q208 753 225 746.5 Q242 740 259.5 732.5 Q277 725 293.5 718.5 Q310 712 325 712 Q343 712 357 719.5 Q371 727 387 749 L420 732 Z " />
<glyph glyph-name="uni1FCD" unicode="&#x1fcd;" horiz-adv-x="504" d="M248 743 L338 761 L410 568 L371 557 L248 743 Z M142 565 Q154 582 162.5 601.5 Q171 621 171 639 Q171 659 158 676 Q145 693 107 701 Q108 702 111.5 712 Q115 722 119 733.5 Q123 745 126 755 Q129 765 129 766 Q180 756 207.5 731 Q235 706 235 668 Q235 645 221 612.5 Q207 580 176 551 L142 565 Z " />
<glyph glyph-name="uni1FCE" unicode="&#x1fce;" horiz-adv-x="520" d="M182 568 Q194 585 202 605 Q210 625 210 642 Q210 663 197 680 Q184 697 147 705 L169 770 Q220 759 247.5 734.5 Q275 710 275 671 Q275 648 261 616 Q247 584 215 554 L182 568 Z M328 555 L290 566 L361 758 L452 741 L328 555 Z " />
<glyph glyph-name="uni1FCF" unicode="&#x1fcf;" horiz-adv-x="504" d="M239 568 Q253 585 260.5 596.5 Q268 608 268 619 Q268 633 256 643.5 Q244 654 209 659 L228 709 Q278 703 302 683.5 Q326 664 326 639 Q326 623 313 600 Q300 577 265 551 L239 568 Z M429 793 Q412 751 386.5 733.5 Q361 716 332 716 Q316 716 299.5 722 Q283 728 266 735.5 Q249 743 233 749.5 Q217 756 202 756 Q185 756 171 748.5 Q157 741 138 717 L106 733 Q123 781 150.5 798.5 Q178 816 203 816 Q220 816 237.5 809.5 Q255 803 272 795 Q289 787 304.5 780.5 Q320 774 334 774 Q351 774 364 781.5 Q377 789 397 812 L429 793 Z " />
<glyph glyph-name="uni1FDD" unicode="&#x1fdd;" horiz-adv-x="504" d="M244 743 L335 761 L407 568 L368 557 L244 743 Z M166 548 Q134 578 120.5 610 Q107 642 107 665 Q107 704 134 728.5 Q161 753 212 764 Q213 762 216.5 752.5 Q220 743 223.5 731.5 Q227 720 230.5 710 Q234 700 234 698 Q197 691 184 674 Q171 657 171 636 Q171 619 179.5 599 Q188 579 200 562 L166 548 Z " />
<glyph glyph-name="uni1FDE" unicode="&#x1fde;" horiz-adv-x="520" d="M211 555 Q179 585 165 617 Q151 649 151 672 Q151 711 178.5 735.5 Q206 760 256 771 Q257 769 260.5 759.5 Q264 750 268 738.5 Q272 727 275.5 717 Q279 707 279 706 Q242 698 229 681 Q216 664 216 643 Q216 626 224 606 Q232 586 244 569 L211 555 Z M327 556 L289 567 L361 760 L451 742 L327 556 Z " />
<glyph glyph-name="uni1FDF" unicode="&#x1fdf;" horiz-adv-x="504" d="M269 553 Q230 573 217.5 594 Q205 615 205 631 Q205 656 228 678.5 Q251 701 304 706 L317 659 Q288 653 275.5 642.5 Q263 632 263 618 Q263 607 270.5 596 Q278 585 292 571 L269 553 Z M428 793 Q411 751 386 733.5 Q361 716 332 716 Q316 716 299.5 722 Q283 728 266 735.5 Q249 743 233 749.5 Q217 756 202 756 Q185 756 171 749 Q157 742 138 717 L106 733 Q123 781 150.5 798.5 Q178 816 203 816 Q219 816 236.5 809.5 Q254 803 271.5 795 Q289 787 304.5 780.5 Q320 774 334 774 Q351 774 364 781.5 Q377 789 397 812 L428 793 Z " />
<glyph glyph-name="uni1FED" unicode="&#x1fed;" horiz-adv-x="452" d="M57 623 Q57 642 70.5 655 Q84 668 101 668 Q119 668 132.5 655 Q146 642 146 623 Q146 606 132.5 592.5 Q119 579 101 579 Q84 579 70.5 592.5 Q57 606 57 623 Z M296 623 Q296 642 309.5 655 Q323 668 340 668 Q358 668 371.5 655 Q385 642 385 623 Q385 606 371.5 592.5 Q358 579 340 579 Q323 579 309.5 592.5 Q296 606 296 623 Z M117 742 L207 760 L279 567 L241 556 L117 742 Z " />
<glyph glyph-name="uni1FEE" unicode="&#x1fee;" horiz-adv-x="452" d="M388 623 Q388 606 375 592.5 Q362 579 345 579 Q327 579 314 592.5 Q301 606 301 623 Q301 642 314 655 Q327 668 345 668 Q362 668 375 655 Q388 642 388 623 Z M150 623 Q150 606 136.5 592.5 Q123 579 106 579 Q88 579 75 592.5 Q62 606 62 623 Q62 642 75 655 Q88 668 106 668 Q123 668 136.5 655 Q150 642 150 623 Z M206 556 L167 567 L239 760 L329 742 L206 556 Z " />
<glyph glyph-name="uni1FFE" unicode="&#x1ffe;" horiz-adv-x="504" d="M254 549 Q222 579 208 611 Q194 643 194 666 Q194 705 221.5 729.5 Q249 754 299 765 L321 700 Q284 692 271 675 Q258 658 258 637 Q258 620 266.5 600 Q275 580 287 563 L254 549 Z " />
<glyph glyph-name="less" unicode="&#x3c;" horiz-adv-x="609" d="M111 289 L111 349 Q145 365 197 392 Q249 419 304.5 448 Q360 477 412 503.5 Q464 530 497 547 L497 475 L191 320 Q207 312 231.5 299 Q256 286 284.5 271 Q313 256 344 239.5 Q375 223 403.5 207.5 Q432 192 456.5 179.5 Q481 167 497 159 L497 87 L111 289 Z " />
<glyph glyph-name="equal" unicode="&#x3d;" horiz-adv-x="609" d="M106 376 L106 442 L503 442 L503 376 L106 376 Z M106 185 L106 251 L503 251 L503 185 L106 185 Z " />
<glyph glyph-name="greater" unicode="&#x3e;" horiz-adv-x="609" d="M111 87 L111 159 L417 320 Q393 331 351 352.5 Q309 374 264 397.5 Q219 421 177 442.5 Q135 464 111 475 L111 547 Q145 530 197 503.5 Q249 477 304.5 448 Q360 419 411.5 392 Q463 365 497 349 L497 289 L111 87 Z " />
<glyph glyph-name="afii10051" unicode="&#x402;" horiz-adv-x="730" d="M684 214 Q684 164 670 119 Q656 74 627.5 39.5 Q599 5 556.5 -16 Q514 -37 456 -40 L456 20 Q498 24 527 41.5 Q556 59 573.5 86 Q591 113 599 145.5 Q607 178 607 212 Q607 296 567 340 Q527 384 452 384 Q413 384 367 371 Q321 358 282 329 L282 0 L207 0 L207 583 L16 583 L16 651 L564 651 L564 583 L282 583 L282 400 Q299 413 321.5 422.5 Q344 432 367.5 438.5 Q391 445 414 448 Q437 451 457 451 Q510 451 552 434.5 Q594 418 623.5 387 Q653 356 668.5 312.5 Q684 269 684 214 Z " />
<glyph glyph-name="afii10053" unicode="&#x404;" horiz-adv-x="551" d="M474 134 Q487 122 500.5 110 Q514 98 527 85 Q489 40 438.5 15 Q388 -10 318 -10 Q258 -10 207.5 13 Q157 36 121 79 Q85 122 65 184.5 Q45 247 45 325 Q45 404 65 466.5 Q85 529 121.5 572 Q158 615 208.5 638 Q259 661 319 661 Q385 661 435.5 639 Q486 617 524 573 L470 519 Q437 556 400.5 573 Q364 590 318 590 Q275 590 241.5 574 Q208 558 184 529.5 Q160 501 145.5 461.5 Q131 422 126 375 L427 375 L427 306 L124 306 Q124 260 136 216 Q148 172 173 137 Q198 102 234.5 80.5 Q271 59 320 59 Q407 59 474 134 Z " />
<glyph glyph-name="afii10058" unicode="&#x409;" horiz-adv-x="898" d="M398 0 L398 582 L203 582 L203 311 Q203 255 200.5 199 Q198 143 181.5 97.5 Q165 52 129 23 Q93 -6 26 -7 L19 57 Q58 64 80.5 79 Q103 94 114 123.5 Q125 153 127.5 201 Q130 249 130 323 L130 650 L473 650 L473 378 L662 378 Q760 378 815 329 Q870 280 870 187 Q870 94 815.5 47 Q761 0 668 0 L398 0 Z M473 311 L473 66 L661 66 Q720 66 758 95 Q796 124 796 189 Q796 249 759 280 Q722 311 660 311 L473 311 Z " />
<glyph glyph-name="afii10059" unicode="&#x40a;" horiz-adv-x="896" d="M871 188 Q871 138 855 102.5 Q839 67 810.5 44.5 Q782 22 743.5 11 Q705 0 660 0 L397 0 L397 314 L140 314 L140 0 L65 0 L65 650 L140 650 L140 379 L397 379 L397 650 L473 650 L473 379 L660 379 Q758 379 814.5 329.5 Q871 280 871 188 Z M795 188 Q795 247 760.5 280.5 Q726 314 661 314 L473 314 L473 68 L662 68 Q719 68 757 95.5 Q795 123 795 188 Z " />
<glyph glyph-name="afii10060" unicode="&#x40b;" horiz-adv-x="722" d="M596 0 L596 238 Q596 313 559 352 Q522 391 444 391 Q425 391 403.5 387 Q382 383 360.5 376 Q339 369 319.5 359 Q300 349 285 336 L285 0 L210 0 L210 583 L21 583 L21 651 L560 651 L560 583 L285 583 L285 408 L287 407 Q323 430 370 443.5 Q417 457 459 457 Q562 457 615.5 401.5 Q669 346 669 248 L669 0 L596 0 Z " />
<glyph glyph-name="afii10145" unicode="&#x40f;" horiz-adv-x="621" d="M349 0 L349 -169 L270 -169 L270 0 L65 0 L65 651 L140 651 L140 68 L482 68 L482 651 L556 651 L556 0 L349 0 Z " />
<glyph glyph-name="afii10018" unicode="&#x411;" horiz-adv-x="582" d="M330 379 Q429 379 485.5 332 Q542 285 542 190 Q542 98 487 49 Q432 0 333 0 L66 0 L66 651 L481 651 L481 583 L139 583 L139 379 L330 379 Z M468 190 Q468 248 432.5 280.5 Q397 313 334 313 L139 313 L139 68 L334 68 Q398 68 433 99 Q468 130 468 190 Z " />
<glyph glyph-name="afii10021" unicode="&#x414;" horiz-adv-x="680" d="M577 -155 L577 0 L94 0 L94 -155 L18 -155 L18 67 L70 67 Q98 91 115.5 129 Q133 167 143 215 Q153 263 157.5 319.5 Q162 376 164 437 L170 650 L591 650 L591 65 L652 65 Q652 10 652.5 -44.5 Q653 -99 653 -155 L577 -155 Z M242 583 L236 430 Q234 382 231.5 331 Q229 280 222 232 Q215 184 202 141.5 Q189 99 167 67 L516 67 L516 583 L242 583 Z " />
<glyph glyph-name="afii10024" unicode="&#x416;" horiz-adv-x="801" d="M789 0 L695 0 L440 316 L437 315 L437 0 L363 0 L363 315 L360 316 L105 0 L11 0 L287 335 L14 651 L101 651 L360 349 L363 350 L363 651 L437 651 L437 350 L440 349 L699 651 L786 651 L513 335 L789 0 Z " />
<glyph glyph-name="afii10025" unicode="&#x417;" horiz-adv-x="528" d="M258 661 Q362 661 418.5 616.5 Q475 572 475 498 Q475 474 467 450.5 Q459 427 444 406 Q429 385 406 368.5 Q383 352 353 343 L353 340 Q389 332 412.5 315.5 Q436 299 450 277.5 Q464 256 470 232 Q476 208 476 187 Q476 140 458 103.5 Q440 67 407 42 Q374 17 328.5 3.5 Q283 -10 229 -10 Q164 -10 106 13.5 Q48 37 10 79 Q12 81 19 88 Q26 95 34 103 Q42 111 49 118 Q56 125 58 128 Q94 93 137.5 75 Q181 57 228 57 Q312 57 354 93.5 Q396 130 396 187 Q396 219 385 242 Q374 265 354.5 280 Q335 295 309 302.5 Q283 310 254 310 L154 310 L154 371 L250 371 Q280 371 306.5 380 Q333 389 352.5 404 Q372 419 383.5 439.5 Q395 460 395 483 Q395 505 387 525 Q379 545 362 560 Q345 575 318.5 584 Q292 593 255 593 Q234 593 210.5 588.5 Q187 584 164.5 576.5 Q142 569 122 559 Q102 549 87 537 Q85 539 78.5 546.5 Q72 554 64.5 562.5 Q57 571 51 578.5 Q45 586 43 588 Q84 623 142.5 642 Q201 661 258 661 Z " />
<glyph glyph-name="afii10026" unicode="&#x418;" horiz-adv-x="637" d="M497 0 L497 532 L495 532 L379 359 L139 0 L64 0 L64 651 L139 651 L139 119 L141 119 L250 283 L497 651 L572 651 L572 0 L497 0 Z " />
<glyph glyph-name="afii10029" unicode="&#x41b;" horiz-adv-x="595" d="M206 583 L206 302 Q206 243 202 188.5 Q198 134 181 91 Q164 48 127.5 21 Q91 -6 27 -8 L21 57 Q56 63 78 77.5 Q100 92 112 117.5 Q124 143 128.5 181 Q133 219 133 274 L133 650 L528 650 L528 0 L452 0 L452 583 L206 583 Z " />
<glyph glyph-name="afii10037" unicode="&#x423;" horiz-adv-x="530" d="M520 649 Q463 515 406 383 Q349 251 292 117 Q275 77 257.5 52 Q240 27 221.5 13.5 Q203 0 182.5 -5 Q162 -10 139 -10 L101 -10 L101 55 L124 55 Q152 55 173 65.5 Q194 76 208 107 Q213 117 217 126 Q221 135 225 145 L11 649 L88 649 L262 225 Q269 239 283.5 271.5 Q298 304 315.5 345 Q333 386 352.5 432.5 Q372 479 390 521 Q408 563 422 597.5 Q436 632 444 649 L520 649 L520 649 Z " />
<glyph glyph-name="afii10040" unicode="&#x426;" horiz-adv-x="626" d="M539 -157 L539 0 L64 0 L64 650 L139 650 L139 68 L479 68 L479 650 L555 650 L555 66 L615 66 L615 -157 L539 -157 Z " />
<glyph glyph-name="afii10041" unicode="&#x427;" horiz-adv-x="588" d="M448 0 L448 281 L447 281 Q428 270 404.5 260.5 Q381 251 356 244.5 Q331 238 305.5 234.5 Q280 231 257 231 Q200 231 160 247 Q120 263 94.5 291 Q69 319 57.5 357.5 Q46 396 46 440 L46 651 L118 651 L118 454 Q118 368 156.5 331.5 Q195 295 271 295 Q292 295 316 299 Q340 303 364 310.5 Q388 318 410 328.5 Q432 339 448 351 L448 651 L523 651 L523 0 L448 0 Z " />
<glyph glyph-name="afii10042" unicode="&#x428;" horiz-adv-x="833" d="M64 0 L64 651 L140 651 L140 68 L378 68 L378 651 L455 651 L455 68 L693 68 L693 651 L768 651 L768 0 L64 0 Z " />
<glyph glyph-name="afii10043" unicode="&#x429;" horiz-adv-x="846" d="M829 -157 L752 -157 L752 0 L65 0 L65 651 L140 651 L140 67 L379 67 L379 651 L455 651 L455 67 L693 67 L693 651 L769 651 L769 67 L829 67 L829 -157 Z " />
<glyph glyph-name="afii10044" unicode="&#x42a;" horiz-adv-x="757" d="M12 650 L326 650 L326 379 L515 379 Q613 379 668.5 329.5 Q724 280 724 188 Q724 95 668.5 47.5 Q613 0 521 0 L251 0 L251 582 L12 582 L12 650 Z M648 189 Q648 248 611 278.5 Q574 309 513 309 L326 309 L326 69 L515 69 Q543 69 567 75.5 Q591 82 609 96.5 Q627 111 637.5 133.5 Q648 156 648 189 Z " />
<glyph glyph-name="afii10045" unicode="&#x42b;" horiz-adv-x="747" d="M606 0 L606 651 L681 651 L681 0 L606 0 Z M64 650 L139 650 L139 379 L328 379 Q426 379 481 329.5 Q536 280 536 188 Q536 95 481 47.5 Q426 0 333 0 L64 0 L64 650 Z M460 189 Q460 248 423 279 Q386 310 326 310 L139 310 L139 69 L327 69 Q355 69 379 75.5 Q403 82 421 96.5 Q439 111 449.5 133.5 Q460 156 460 189 Z " />
<glyph glyph-name="afii10046" unicode="&#x42c;" horiz-adv-x="572" d="M64 650 L139 650 L139 379 L328 379 Q426 379 481 329.5 Q536 280 536 188 Q536 95 481 47.5 Q426 0 333 0 L64 0 L64 650 Z M460 189 Q460 248 423 278.5 Q386 309 326 309 L139 309 L139 69 L327 69 Q355 69 379 75.5 Q403 82 421 96.5 Q439 111 449.5 133.5 Q460 156 460 189 Z " />
<glyph glyph-name="afii10047" unicode="&#x42d;" horiz-adv-x="561" d="M137 375 L433 375 Q429 421 414.5 460 Q400 499 376 528 Q352 557 318.5 573.5 Q285 590 243 590 Q202 590 165 575.5 Q128 561 92 526 L43 577 Q86 622 133 642 Q180 662 248 662 Q309 662 358 639 Q407 616 442 572.5 Q477 529 496 467 Q515 405 515 326 Q515 247 494 185 Q473 123 436.5 79.5 Q400 36 349 13 Q298 -10 238 -10 Q167 -10 117.5 14.5 Q68 39 30 84 L81 134 Q114 98 153 79 Q192 60 236 60 Q283 60 319 79.5 Q355 99 380 132 Q405 165 419 209.5 Q433 254 436 305 L137 305 L137 375 Z " />
<glyph glyph-name="afii10048" unicode="&#x42e;" horiz-adv-x="777" d="M731 326 Q731 248 713.5 185.5 Q696 123 663 79.5 Q630 36 582 13 Q534 -10 474 -10 Q354 -10 288 74 Q222 158 218 306 L139 306 L139 0 L64 0 L64 651 L139 651 L139 374 L221 374 Q227 438 246 490.5 Q265 543 296.5 581 Q328 619 372.5 640 Q417 661 474 661 Q533 661 580.5 638 Q628 615 661.5 571.5 Q695 528 713 466 Q731 404 731 326 Z M656 325 Q656 384 644.5 433.5 Q633 483 610.5 518.5 Q588 554 554 573.5 Q520 593 474 593 Q428 593 394.5 573 Q361 553 338.5 517.5 Q316 482 305 433 Q294 384 294 326 Q294 268 304.5 219 Q315 170 337 134 Q359 98 393 78 Q427 58 474 58 Q522 58 556 79 Q590 100 612.5 136 Q635 172 645.5 220.5 Q656 269 656 325 Z " />
<glyph glyph-name="afii10049" unicode="&#x42f;" horiz-adv-x="585" d="M43 449 Q43 499 59 536.5 Q75 574 103.5 599.5 Q132 625 170 638 Q208 651 253 651 L520 651 L520 0 L445 0 L445 257 L257 257 L135 0 L50 0 L180 265 Q115 283 79 328.5 Q43 374 43 449 Z M258 584 Q198 584 159.5 548 Q121 512 121 449 Q121 386 156.5 354.5 Q192 323 256 323 L445 323 L445 584 L258 584 Z " />
<glyph glyph-name="afii10066" unicode="&#x431;" horiz-adv-x="528" d="M121 377 Q141 422 185 452 Q229 482 282 482 Q376 482 429.5 419 Q483 356 483 242 Q483 184 467.5 137.5 Q452 91 423.5 58 Q395 25 355 7 Q315 -11 266 -11 Q208 -11 166 12 Q124 35 97 76 Q70 117 57.5 173.5 Q45 230 45 297 Q45 357 54 411 Q63 465 85.5 509.5 Q108 554 146 588.5 Q184 623 242 644 Q266 653 289 659.5 Q312 666 335.5 671 Q359 676 383.5 681.5 Q408 687 434 695 L451 641 Q419 630 394 624 Q369 618 346 613 Q323 608 301.5 602.5 Q280 597 256 587 Q184 557 153 501.5 Q122 446 118 378 L121 377 Z M274 422 Q244 422 217.5 409.5 Q191 397 171 372.5 Q151 348 139.5 311 Q128 274 128 226 Q128 190 136.5 158.5 Q145 127 162.5 103 Q180 79 206.5 65 Q233 51 269 51 Q305 51 331.5 66 Q358 81 375.5 107 Q393 133 401.5 168 Q410 203 410 244 Q410 323 375 372.5 Q340 422 274 422 Z " />
<glyph glyph-name="afii10067" unicode="&#x432;" horiz-adv-x="473" d="M348 264 Q388 253 412.5 221 Q437 189 437 147 Q437 75 390 37.5 Q343 0 262 0 L52 0 L52 488 L266 488 Q331 488 373 456.5 Q415 425 415 365 Q415 334 398.5 306 Q382 278 348 265 L348 264 Z M123 229 L123 60 L262 60 Q316 60 340 83 Q364 106 364 145 Q364 186 335.5 207.5 Q307 229 262 229 L123 229 Z M123 427 L123 291 L259 291 Q299 291 320.5 310.5 Q342 330 342 359 Q342 390 323 408.5 Q304 427 262 427 L123 427 Z " />
<glyph glyph-name="afii10068" unicode="&#x433;" horiz-adv-x="404" d="M125 427 L125 0 L54 0 L54 488 L399 488 L399 427 L125 427 Z " />
<glyph glyph-name="afii10069" unicode="&#x434;" horiz-adv-x="544" d="M450 -141 L450 0 L85 0 L85 -141 L17 -141 L17 58 L63 58 Q84 82 96.5 118.5 Q109 155 116.5 207 Q124 259 128 328 Q132 397 135 487 L473 487 L473 58 L518 58 L518 -141 L450 -141 Z M200 429 L194 313 Q190 249 180 181.5 Q170 114 142 58 L403 58 L403 429 L200 429 Z " />
<glyph glyph-name="afii10072" unicode="&#x436;" horiz-adv-x="660" d="M93 487 L294 271 L294 487 L365 487 L365 271 L566 487 L650 487 L437 262 L650 0 L565 0 L365 249 L365 0 L294 0 L294 249 L93 0 L10 0 L223 259 L13 487 L93 487 Z " />
<glyph glyph-name="afii10073" unicode="&#x437;" horiz-adv-x="444" d="M201 -8 Q148 -8 101.5 9.5 Q55 27 22 60 L63 106 Q92 78 127.5 64.5 Q163 51 201 51 Q258 51 292.5 76 Q327 101 327 142 Q327 186 295.5 205 Q264 224 219 224 L139 224 L139 281 L212 281 Q261 281 290 303 Q319 325 319 357 Q319 388 294.5 411 Q270 434 212 434 Q179 434 145.5 422 Q112 410 87 390 Q76 402 67.5 414 Q59 426 48 437 Q83 466 127 480 Q171 494 218 494 Q263 494 295.5 484.5 Q328 475 349 458 Q370 441 380.5 418 Q391 395 391 369 Q391 337 371.5 304.5 Q352 272 306 256 L306 254 Q332 248 349.5 235.5 Q367 223 378 207 Q389 191 394 174 Q399 157 399 142 Q399 105 384.5 77 Q370 49 343.5 30 Q317 11 280.5 1.5 Q244 -8 201 -8 Z " />
<glyph glyph-name="afii10074" unicode="&#x438;" horiz-adv-x="500" d="M371 370 L304 269 L124 0 L53 0 L53 489 L124 489 L124 114 L128 114 L199 223 L375 489 L447 489 L447 0 L375 0 L375 370 L371 370 Z " />
<glyph glyph-name="afii10077" unicode="&#x43b;" horiz-adv-x="494" d="M366 428 L174 428 L174 256 Q174 209 171 163 Q168 117 153 80 Q138 43 105.5 19 Q73 -5 15 -8 L9 49 Q45 56 64.5 71.5 Q84 87 93.5 114 Q103 141 105 181.5 Q107 222 107 281 L107 488 L436 488 L436 0 L366 0 L366 428 Z " />
<glyph glyph-name="afii10078" unicode="&#x43c;" horiz-adv-x="577" d="M292 151 L344 259 L453 488 L524 488 L524 0 L452 0 L452 331 L449 331 L402 236 L287 2 L174 234 L125 334 L123 334 L123 0 L52 0 L52 488 L123 488 L238 256 L288 151 L292 151 Z " />
<glyph glyph-name="afii10079" unicode="&#x43d;" horiz-adv-x="508" d="M382 0 L382 225 L126 225 L126 0 L55 0 L55 489 L126 489 L126 287 L382 287 L382 489 L453 489 L453 0 L382 0 Z " />
<glyph glyph-name="afii10084" unicode="&#x442;" horiz-adv-x="405" d="M240 427 L240 0 L168 0 L168 427 L13 427 L13 488 L396 488 L396 427 L240 427 Z " />
<glyph glyph-name="afii10086" unicode="&#x444;" horiz-adv-x="658" d="M365 -160 L293 -189 L293 -8 Q179 -5 111 60 Q43 125 43 248 Q43 303 62 348 Q81 393 115 425 Q149 457 194.5 475 Q240 493 293 495 L293 657 L364 687 L364 495 Q419 493 465 476 Q511 459 544 427.5 Q577 396 595.5 351 Q614 306 614 248 Q614 187 594.5 140.5 Q575 94 541 62 Q507 30 461.5 12.5 Q416 -5 365 -7 L365 -160 Z M293 438 Q208 433 159 380.5 Q110 328 110 245 Q110 191 127 154 Q144 117 170.5 93.5 Q197 70 229.5 58.5 Q262 47 293 46 L293 438 Z M365 45 Q394 47 426 58.5 Q458 70 485 93.5 Q512 117 529.5 154.5 Q547 192 547 245 Q547 328 500 381 Q453 434 365 438 L365 45 Z " />
<glyph glyph-name="afii10088" unicode="&#x446;" horiz-adv-x="523" d="M498 -141 L429 -141 L429 0 L53 0 L53 489 L123 489 L123 59 L381 59 L381 489 L454 489 L454 59 L498 59 L498 -141 Z " />
<glyph glyph-name="afii10089" unicode="&#x447;" horiz-adv-x="472" d="M344 233 Q312 197 272 181 Q232 165 199 165 Q117 165 76 207 Q35 249 35 344 L35 488 L106 488 L106 355 Q106 289 130 258 Q154 227 212 227 Q247 227 282.5 243.5 Q318 260 347 298 L347 488 L418 488 L418 0 L347 0 L347 233 L344 233 Z " />
<glyph glyph-name="afii10090" unicode="&#x448;" horiz-adv-x="706" d="M54 0 L54 490 L124 490 L124 59 L316 59 L316 490 L386 490 L386 59 L582 59 L582 490 L652 490 L652 0 L54 0 Z " />
<glyph glyph-name="afii10091" unicode="&#x449;" horiz-adv-x="719" d="M54 489 L123 489 L123 59 L316 59 L316 489 L386 489 L386 59 L582 59 L582 489 L653 489 L653 59 L697 59 L697 -142 L628 -142 L628 0 L54 0 L54 489 Z " />
<glyph glyph-name="afii10092" unicode="&#x44a;" horiz-adv-x="592" d="M567 150 Q567 75 521 37.5 Q475 0 397 0 L187 0 L187 427 L9 427 L9 489 L257 489 L257 296 L390 296 Q474 296 520.5 257.5 Q567 219 567 150 Z M496 149 Q496 190 468.5 213 Q441 236 396 236 L257 236 L257 61 L397 61 Q440 61 468 82.5 Q496 104 496 149 Z " />
<glyph glyph-name="afii10093" unicode="&#x44b;" horiz-adv-x="616" d="M492 0 L492 489 L562 489 L562 0 L492 0 Z M438 147 Q438 72 392 36 Q346 0 268 0 L54 0 L54 489 L124 489 L124 294 L265 294 Q346 294 392 256 Q438 218 438 147 Z M365 147 Q365 189 339 212 Q313 235 265 235 L124 235 L124 59 L266 59 Q311 59 338 80.5 Q365 102 365 147 Z " />
<glyph glyph-name="afii10094" unicode="&#x44c;" horiz-adv-x="470" d="M437 149 Q437 72 391.5 36 Q346 0 267 0 L55 0 L55 489 L126 489 L126 296 L263 296 Q345 296 391 257.5 Q437 219 437 149 Z M366 149 Q366 190 340 213 Q314 236 266 236 L126 236 L126 61 L267 61 Q312 61 339 82.5 Q366 104 366 149 Z " />
<glyph glyph-name="afii10095" unicode="&#x44d;" horiz-adv-x="448" d="M201 497 Q246 497 283 480.5 Q320 464 347 431.5 Q374 399 388.5 351.5 Q403 304 403 243 Q403 182 387.5 135 Q372 88 344.5 55.5 Q317 23 279.5 6.5 Q242 -10 199 -10 Q141 -10 101.5 10.5 Q62 31 34 66 L79 109 Q107 80 133.5 66.5 Q160 53 195 53 Q226 53 250.5 66.5 Q275 80 292 103 Q309 126 318.5 156.5 Q328 187 329 221 L102 221 L102 283 L328 283 Q322 349 289 391.5 Q256 434 200 434 Q169 434 142 423.5 Q115 413 83 385 L41 433 Q76 465 113 481 Q150 497 201 497 Z " />
<glyph glyph-name="afii10096" unicode="&#x44e;" horiz-adv-x="637" d="M592 244 Q592 188 578.5 142 Q565 96 539.5 62.5 Q514 29 476 10.5 Q438 -8 389 -8 Q334 -8 297 13 Q260 34 236.5 67.5 Q213 101 202 142.5 Q191 184 188 225 L125 225 L125 0 L56 0 L56 488 L125 488 L125 284 L190 284 Q194 322 207 360 Q220 398 244 428 Q268 458 303.5 476.5 Q339 495 389 495 Q439 495 477 476.5 Q515 458 540.5 424.5 Q566 391 579 345 Q592 299 592 244 Z M525 244 Q525 284 517 319 Q509 354 492.5 380 Q476 406 450 421 Q424 436 389 436 Q354 436 329 421 Q304 406 287.5 380 Q271 354 263 319 Q255 284 255 244 Q255 206 262.5 171 Q270 136 286 109 Q302 82 327.5 66 Q353 50 389 50 Q424 50 450 65.5 Q476 81 492.5 108 Q509 135 517 170 Q525 205 525 244 Z " />
<glyph glyph-name="afii10097" unicode="&#x44f;" horiz-adv-x="483" d="M43 0 L146 198 Q97 212 70 245 Q43 278 43 334 Q43 371 55.5 400 Q68 429 90.5 448.5 Q113 468 143 478 Q173 488 208 488 L431 488 L431 0 L359 0 L359 188 L214 188 L119 0 L43 0 Z M112 333 Q112 289 140.5 268.5 Q169 248 212 248 L359 248 L359 429 L212 429 Q170 429 141 403 Q112 377 112 333 Z " />
<glyph glyph-name="afii10099" unicode="&#x452;" horiz-adv-x="528" d="M157 0 L86 0 L86 535 L22 535 L22 587 L86 587 L86 661 L157 693 L157 587 L373 587 L373 535 L157 535 L157 398 L160 398 Q189 442 228.5 459.5 Q268 477 304 477 Q385 477 433.5 417.5 Q482 358 482 246 Q482 199 471.5 154.5 Q461 110 436 72 Q411 34 369 5 Q327 -24 263 -39 L250 25 Q333 46 371.5 100 Q410 154 410 239 Q410 331 373.5 373 Q337 415 280 415 Q254 415 231.5 403.5 Q209 392 192.5 371.5 Q176 351 166.5 324 Q157 297 157 266 L157 0 Z " />
<glyph glyph-name="afii10101" unicode="&#x454;" horiz-adv-x="448" d="M253 497 Q304 497 342 479.5 Q380 462 412 426 L366 380 Q338 409 310 421.5 Q282 434 250 434 Q222 434 199.5 422.5 Q177 411 160.5 390.5 Q144 370 133.5 342 Q123 314 120 281 L346 281 L346 219 L119 219 Q121 183 131 153 Q141 123 158.5 100.5 Q176 78 200 65.5 Q224 53 255 53 Q290 53 315.5 66.5 Q341 80 368 109 L414 68 Q386 32 347.5 11 Q309 -10 251 -10 Q209 -10 171.5 6.5 Q134 23 106.5 55.5 Q79 88 62.5 135 Q46 182 46 243 Q46 304 62 351.5 Q78 399 105.5 431.5 Q133 464 171 480.5 Q209 497 253 497 Z " />
<glyph glyph-name="afii10106" unicode="&#x459;" horiz-adv-x="714" d="M315 0 L315 429 L171 429 L171 256 Q171 209 168.5 163 Q166 117 151 80 Q136 43 103.5 19 Q71 -5 11 -8 L5 50 Q40 56 60 70 Q80 84 89.5 110.5 Q99 137 101.5 178 Q104 219 104 281 L104 488 L386 488 L386 293 L520 293 Q601 293 648.5 255.5 Q696 218 696 146 Q696 71 649 35.5 Q602 0 527 0 L315 0 Z M386 234 L386 59 L527 59 Q570 59 597 80.5 Q624 102 624 147 Q624 187 598 210.5 Q572 234 527 234 L386 234 Z " />
<glyph glyph-name="afii10107" unicode="&#x45a;" horiz-adv-x="718" d="M697 149 Q697 71 652 35 Q607 -1 527 -1 L316 -1 L316 235 L124 235 L124 0 L55 0 L55 489 L124 489 L124 295 L316 295 L316 488 L388 488 L388 296 L526 296 Q604 296 650.5 258 Q697 220 697 149 Z M626 149 Q626 189 600.5 212 Q575 235 527 235 L388 235 L388 61 L527 61 Q573 61 599.5 82.5 Q626 104 626 149 Z " />
<glyph glyph-name="afii10108" unicode="&#x45b;" horiz-adv-x="496" d="M448 0 L376 0 L376 270 Q376 338 349 374.5 Q322 411 261 411 Q223 411 196.5 390 Q170 369 155 338 Q147 322 141.5 304 Q136 286 136 267 L136 0 L65 0 L65 534 L12 534 L12 586 L65 586 L65 660 L136 692 L136 586 L354 586 L354 534 L136 534 L136 395 L138 395 Q165 437 205.5 455.5 Q246 474 282 474 Q367 474 407.5 424.5 Q448 375 448 281 L448 0 Z " />
<glyph glyph-name="afii10050" unicode="&#x490;" horiz-adv-x="487" d="M64 651 L411 651 L411 785 L484 785 L484 583 L140 583 L140 0 L64 0 L64 651 Z " />
<glyph glyph-name="afii10098" unicode="&#x491;" horiz-adv-x="408" d="M397 428 L122 428 L122 0 L53 0 L53 488 L330 488 L330 596 L397 596 L397 428 Z " />
<glyph glyph-name="afii61352" unicode="&#x2116;" horiz-adv-x="910" d="M572 224 L572 274 L838 274 L838 224 L572 224 Z M425 0 L132 518 L132 0 L66 0 L66 651 L132 651 L421 141 L421 651 L488 651 L488 0 L425 0 Z M853 493 Q853 452 841.5 420 Q830 388 809.5 366.5 Q789 345 761 334 Q733 323 701 323 Q669 323 642 334.5 Q615 346 595.5 368 Q576 390 564.5 421.5 Q553 453 553 493 Q553 533 564.5 564 Q576 595 596 616.5 Q616 638 643 649 Q670 660 702 660 Q734 660 761.5 648.5 Q789 637 809.5 615.5 Q830 594 841.5 563 Q853 532 853 493 Z M791 493 Q791 541 768 574 Q745 607 700 607 Q657 607 635.5 574 Q614 541 614 493 Q614 439 637.5 407 Q661 375 703 375 Q745 375 768 410 Q791 445 791 493 Z " />
<glyph glyph-name="afii10193" unicode="&#x45f;" horiz-adv-x="503" d="M286 0 L286 -154 L218 -154 L218 0 L54 0 L54 489 L125 489 L125 60 L377 60 L377 489 L449 489 L449 0 L286 0 Z " />
<glyph glyph-name="exclam" unicode="&#x21;" horiz-adv-x="251" d="M153 170 L109 170 L94 381 L94 651 L168 651 L168 382 L153 170 Z M81 42 Q81 68 97 80.5 Q113 93 131 93 Q153 93 166.5 78 Q180 63 180 43 Q180 22 166 7 Q152 -8 131 -8 Q110 -8 95.5 6.5 Q81 21 81 42 Z " />
<glyph glyph-name="Hbar" unicode="&#x126;" horiz-adv-x="622" d="M480 0 L480 305 L141 305 L141 0 L65 0 L65 509 L23 509 L23 559 L65 559 L65 651 L141 651 L141 559 L480 559 L480 651 L556 651 L556 559 L601 559 L601 509 L556 509 L556 0 L480 0 Z M480 375 L480 509 L141 509 L141 375 L480 375 Z " />
<glyph glyph-name="hbar" unicode="&#x127;" horiz-adv-x="489" d="M439 0 L367 0 L367 268 Q367 337 340 373.5 Q313 410 252 410 Q207 410 175 380.5 Q143 351 132 309 Q127 289 127 266 L127 0 L56 0 L56 535 L14 535 L14 582 L56 582 L56 662 L127 694 L127 582 L330 582 L330 535 L127 535 L127 395 L130 395 Q157 436 197 454 Q237 472 273 472 Q358 472 398.5 423 Q439 374 439 279 L439 0 Z " />
<glyph glyph-name="Tbar" unicode="&#x166;" horiz-adv-x="502" d="M291 582 L291 394 L486 394 L486 337 L291 337 L291 0 L217 0 L217 337 L19 337 L19 394 L217 394 L217 582 L19 582 L19 651 L490 651 L490 582 L291 582 Z " />
<glyph glyph-name="tbar" unicode="&#x167;" horiz-adv-x="313" d="M169 488 L271 488 L271 428 L169 428 L169 296 L267 296 L267 243 L169 243 L169 115 Q169 82 182 69.5 Q195 57 223 57 Q237 57 252 59 Q267 61 287 64 Q287 62 288 54 Q289 46 290 37 Q291 28 292 20 Q293 12 293 10 Q277 3 251 -2 Q225 -7 203 -7 Q150 -7 125.5 20.5 Q101 48 101 105 L101 243 L22 243 L22 296 L101 296 L101 428 L27 428 L27 488 L102 488 L102 606 L169 636 L169 488 Z " />
<glyph glyph-name="Hungarumlaut" unicode="&#xe296;" horiz-adv-x="616" d="M373 691 L344 718 L464 829 L533 784 L373 691 Z M226 691 L197 718 L317 829 L387 784 L226 691 Z " />
<glyph glyph-name="Caron" unicode="&#xe297;" horiz-adv-x="534" d="M409 828 L437 805 L312 692 L245 692 L120 804 L149 827 L277 750 L409 828 Z " />
<glyph glyph-name="Circumflex" unicode="&#xe298;" horiz-adv-x="626" d="M317 765 L189 689 L160 712 L285 823 L353 823 L477 711 L449 688 L317 765 Z " />
<glyph glyph-name="ring" unicode="&#x2da;" horiz-adv-x="481" d="M354 637 Q354 598 328 572.5 Q302 547 264 547 Q226 547 200.5 572 Q175 597 175 637 Q175 675 200.5 700 Q226 725 264 725 Q302 725 328 700 Q354 675 354 637 Z M314 637 Q314 658 299.5 672 Q285 686 264 686 Q243 686 228.5 671.5 Q214 657 214 637 Q214 615 228.5 600 Q243 585 264 585 Q285 585 299.5 600 Q314 615 314 637 Z " />
<glyph glyph-name="UniE29A" unicode="&#xe29a;" horiz-adv-x="818" d="M747 487 L747 111 Q747 75 756.5 64.5 Q766 54 789 54 Q793 54 796.5 54.5 Q800 55 804 55 L804 4 Q795 0 779.5 -2.5 Q764 -5 756 -5 Q739 -5 724.5 -1 Q710 3 699.5 13 Q689 23 683 40.5 Q677 58 677 84 L677 487 L747 487 Z " />
<glyph glyph-name="commaaccent" unicode="&#xe29b;" horiz-adv-x="594" d="M275 -207 Q293 -194 303.5 -182.5 Q314 -171 315 -149 Q312 -150 306 -150 Q288 -150 275.5 -137 Q263 -124 263 -103 Q263 -80 277.5 -65.5 Q292 -51 313 -51 Q336 -51 352 -69.5 Q368 -88 368 -120 Q368 -163 347 -189.5 Q326 -216 294 -232 L275 -207 L275 -207 Z " />
<glyph glyph-name="Grave" unicode="&#xe29c;" horiz-adv-x="626" d="M175 762 L237 818 L371 724 L346 692 L175 762 Z " />
<glyph glyph-name="Acute" unicode="&#xe29d;" horiz-adv-x="626" d="M283 692 L258 724 L392 818 L454 762 L283 692 Z " />
<glyph glyph-name="uniE29E" unicode="&#xe29e;" horiz-adv-x="498" d="M119 743 L210 761 L281 568 L243 557 L119 743 Z " />
<glyph glyph-name="uniE29F" unicode="&#xe29f;" horiz-adv-x="498" d="M265 557 L226 568 L298 761 L389 743 L265 557 Z " />
<glyph glyph-name="uniE2A0" unicode="&#xe2a0;" horiz-adv-x="504" d="M432 658 Q415 618 390.5 600.5 Q366 583 334 583 Q316 583 297.5 589.5 Q279 596 261 604.5 Q243 613 226 619.5 Q209 626 194 626 Q177 626 161.5 618 Q146 610 129 587 L96 603 Q114 649 141.5 666 Q169 683 195 683 Q212 683 230.5 676 Q249 669 267 660.5 Q285 652 302.5 645 Q320 638 334 638 Q354 638 368.5 646 Q383 654 400 676 L432 658 Z " />
<glyph glyph-name="Scaron" unicode="&#x160;" horiz-adv-x="534" d="M508 173 Q508 89 448.5 39.5 Q389 -10 269 -10 Q203 -10 146.5 13 Q90 36 48 75 L98 130 Q135 97 180.5 78 Q226 59 274 59 Q345 59 387.5 84.5 Q430 110 430 171 Q430 199 417.5 219 Q405 239 383 253.5 Q361 268 331 278.5 Q301 289 267 300 Q220 315 183 330 Q146 345 120 365.5 Q94 386 80 415 Q66 444 66 486 Q66 525 82 557.5 Q98 590 126.5 613 Q155 636 194.5 648.5 Q234 661 280 661 Q340 661 391 643 Q442 625 484 591 Q482 588 475 580 Q468 572 460.5 563 Q453 554 446 546 Q439 538 437 536 Q401 565 361 578.5 Q321 592 272 592 Q209 592 175.5 563 Q142 534 142 490 Q142 466 153 448.5 Q164 431 181.5 419 Q199 407 221.5 398 Q244 389 267 381 Q304 369 346 355.5 Q388 342 424 319.5 Q460 297 484 262.5 Q508 228 508 173 Z M408 828 L436 805 L311 692 L244 692 L119 804 L148 827 L276 750 L408 828 Z " />
<glyph glyph-name="Zcaron" unicode="&#x17d;" horiz-adv-x="553" d="M523 582 L126 69 L521 69 L521 0 L37 0 L37 68 L435 582 L56 582 L56 651 L523 651 L523 582 Z M431 828 L459 805 L334 692 L267 692 L142 804 L171 827 L299 750 L431 828 Z " />
<glyph glyph-name="scaron" unicode="&#x161;" horiz-adv-x="438" d="M399 129 Q399 95 384.5 69 Q370 43 345 25.5 Q320 8 286 -1 Q252 -10 213 -10 Q168 -10 122 2 Q76 14 38 36 L65 91 Q103 71 142 60.5 Q181 50 215 50 Q235 50 255.5 54 Q276 58 292.5 67 Q309 76 319 90 Q329 104 329 124 Q329 145 319.5 159.5 Q310 174 293.5 185 Q277 196 254.5 204.5 Q232 213 205 222 Q171 232 142.5 245 Q114 258 93 275 Q72 292 60.5 314 Q49 336 49 365 Q49 394 61.5 418.5 Q74 443 97 460.5 Q120 478 152.5 487.5 Q185 497 226 497 Q309 497 380 461 L356 404 Q320 423 285 429.5 Q250 436 225 436 Q177 436 147.5 416.5 Q118 397 118 370 Q118 344 140.5 323.5 Q163 303 225 285 Q262 274 293.5 261 Q325 248 348.5 230 Q372 212 385.5 187.5 Q399 163 399 129 Z M343 705 L371 683 L247 556 L179 556 L54 682 L83 704 L211 614 L343 705 Z " />
<glyph glyph-name="zcaron" unicode="&#x17e;" horiz-adv-x="450" d="M126 61 L406 61 L406 0 L39 0 L39 58 Q51 75 73 104 Q95 133 122.5 168 Q150 203 179 241.5 Q208 280 235.5 315 Q263 350 285 379 Q307 408 319 425 L318 428 L58 428 L58 488 L406 488 L406 431 Q393 414 371 385 Q349 356 322 320.5 Q295 285 265.5 247 Q236 209 208.5 173.5 Q181 138 159 109 Q137 80 125 63 L126 61 Z M364 705 L392 683 L268 556 L200 556 L75 682 L104 704 L232 614 L364 705 Z " />
<glyph glyph-name="Ydieresis" unicode="&#x178;" horiz-adv-x="560" d="M317 231 L317 0 L242 0 L242 231 L8 651 L94 651 L280 300 L467 651 L551 651 L317 231 Z M432 754 Q432 736 419 723 Q406 710 389 710 Q371 710 357.5 723 Q344 736 344 754 Q344 773 357 785.5 Q370 798 389 798 Q406 798 419 785.5 Q432 773 432 754 Z M240 754 Q240 736 226.5 723 Q213 710 196 710 Q178 710 164.5 723 Q151 736 151 754 Q151 773 164.5 785.5 Q178 798 196 798 Q213 798 226.5 785.5 Q240 773 240 754 Z " />
<glyph glyph-name="Agrave" unicode="&#xc0;" horiz-adv-x="621" d="M446 222 Q413 309 379.5 394.5 Q346 480 314 568 L311 568 Q297 530 281 487.5 Q265 445 252 411 Q246 394 236 369 Q226 344 215.5 316.5 Q205 289 195.5 263.5 Q186 238 180 222 L446 222 Z M155 154 Q141 115 125.5 76.5 Q110 38 96 0 L17 0 Q82 164 145 325.5 Q208 487 273 651 L355 651 Q419 487 482.5 325.5 Q546 164 611 0 L531 0 Q516 38 501 76.5 Q486 115 472 154 L155 154 Z M142 762 L204 818 L338 724 L313 692 L142 762 Z " />
<glyph glyph-name="Aacute" unicode="&#xc1;" horiz-adv-x="621" d="M446 222 Q413 309 379.5 394.5 Q346 480 314 568 L311 568 Q297 530 281 487.5 Q265 445 252 411 Q246 394 236 369 Q226 344 215.5 316.5 Q205 289 195.5 263.5 Q186 238 180 222 L446 222 Z M155 154 Q141 115 125.5 76.5 Q110 38 96 0 L17 0 Q82 164 145 325.5 Q208 487 273 651 L355 651 Q419 487 482.5 325.5 Q546 164 611 0 L531 0 Q516 38 501 76.5 Q486 115 472 154 L155 154 Z M308 692 L283 724 L417 818 L479 762 L308 692 Z " />
<glyph glyph-name="Acircumflex" unicode="&#xc2;" horiz-adv-x="621" d="M446 222 Q413 309 379.5 394.5 Q346 480 314 568 L311 568 Q297 530 281 487.5 Q265 445 252 411 Q246 394 236 369 Q226 344 215.5 316.5 Q205 289 195.5 263.5 Q186 238 180 222 L446 222 Z M155 154 Q141 115 125.5 76.5 Q110 38 96 0 L17 0 Q82 164 145 325.5 Q208 487 273 651 L355 651 Q419 487 482.5 325.5 Q546 164 611 0 L531 0 Q516 38 501 76.5 Q486 115 472 154 L155 154 Z M313 765 L185 689 L156 712 L281 823 L349 823 L473 711 L445 688 L313 765 Z " />
<glyph glyph-name="Atilde" unicode="&#xc3;" horiz-adv-x="621" d="M446 222 Q413 309 379.5 394.5 Q346 480 314 568 L311 568 Q297 530 281 487.5 Q265 445 252 411 Q246 394 236 369 Q226 344 215.5 316.5 Q205 289 195.5 263.5 Q186 238 180 222 L446 222 Z M155 154 Q141 115 125.5 76.5 Q110 38 96 0 L17 0 Q82 164 145 325.5 Q208 487 273 651 L355 651 Q419 487 482.5 325.5 Q546 164 611 0 L531 0 Q516 38 501 76.5 Q486 115 472 154 L155 154 Z M478 783 Q461 742 435.5 725 Q410 708 381 708 Q364 708 346.5 714 Q329 720 312 727.5 Q295 735 279 741.5 Q263 748 248 748 Q231 748 215.5 740 Q200 732 183 709 L150 725 Q168 771 195.5 788 Q223 805 249 805 Q266 805 283 798.5 Q300 792 317.5 784 Q335 776 351.5 769.5 Q368 763 383 763 Q401 763 415 770.5 Q429 778 445 800 L478 783 Z " />
<glyph glyph-name="Adieresis" unicode="&#xc4;" horiz-adv-x="621" d="M446 222 Q413 309 379.5 394.5 Q346 480 314 568 L311 568 Q297 530 281 487.5 Q265 445 252 411 Q246 394 236 369 Q226 344 215.5 316.5 Q205 289 195.5 263.5 Q186 238 180 222 L446 222 Z M155 154 Q141 115 125.5 76.5 Q110 38 96 0 L17 0 Q82 164 145 325.5 Q208 487 273 651 L355 651 Q419 487 482.5 325.5 Q546 164 611 0 L531 0 Q516 38 501 76.5 Q486 115 472 154 L155 154 Z M453 756 Q453 738 440 725 Q427 712 410 712 Q392 712 378.5 725 Q365 738 365 756 Q365 775 378 787.5 Q391 800 410 800 Q427 800 440 787.5 Q453 775 453 756 Z M261 756 Q261 738 247.5 725 Q234 712 217 712 Q199 712 185.5 725 Q172 738 172 756 Q172 775 185.5 787.5 Q199 800 217 800 Q234 800 247.5 787.5 Q261 775 261 756 Z " />
<glyph glyph-name="Aring" unicode="&#xc5;" horiz-adv-x="621" d="M446 222 Q413 309 379.5 394.5 Q346 480 314 568 L311 568 Q297 530 281 487.5 Q265 445 252 411 Q246 394 236 369 Q226 344 215.5 316.5 Q205 289 195.5 263.5 Q186 238 180 222 L446 222 Z M155 154 Q141 115 125.5 76.5 Q110 38 96 0 L17 0 Q82 164 145 325.5 Q208 487 273 651 L355 651 Q419 487 482.5 325.5 Q546 164 611 0 L531 0 Q516 38 501 76.5 Q486 115 472 154 L155 154 Z M404 762 Q404 723 378 697.5 Q352 672 314 672 Q276 672 250.5 697 Q225 722 225 762 Q225 800 250.5 825 Q276 850 314 850 Q352 850 378 825 Q404 800 404 762 Z M364 762 Q364 783 349.5 797 Q335 811 314 811 Q293 811 278.5 796.5 Q264 782 264 762 Q264 740 278.5 725 Q293 710 314 710 Q335 710 349.5 725 Q364 740 364 762 Z " />
<glyph glyph-name="Egrave" unicode="&#xc8;" horiz-adv-x="510" d="M66 0 L66 651 L481 651 L481 582 L141 582 L141 382 L383 382 L383 313 L141 313 L141 69 L494 69 L494 0 L66 0 Z M151 762 L213 818 L347 724 L322 692 L151 762 Z " />
<glyph glyph-name="Eacute" unicode="&#xc9;" horiz-adv-x="510" d="M66 0 L66 651 L481 651 L481 582 L141 582 L141 382 L383 382 L383 313 L141 313 L141 69 L494 69 L494 0 L66 0 Z M250 692 L225 724 L359 818 L421 762 L250 692 Z " />
<glyph glyph-name="Ecircumflex" unicode="&#xca;" horiz-adv-x="510" d="M66 0 L66 651 L481 651 L481 582 L141 582 L141 382 L383 382 L383 313 L141 313 L141 69 L494 69 L494 0 L66 0 Z M278 765 L150 689 L121 712 L246 823 L314 823 L438 711 L410 688 L278 765 Z " />
<glyph glyph-name="Edieresis" unicode="&#xcb;" horiz-adv-x="510" d="M66 0 L66 651 L481 651 L481 582 L141 582 L141 382 L383 382 L383 313 L141 313 L141 69 L494 69 L494 0 L66 0 Z M418 752 Q418 734 405 721 Q392 708 375 708 Q357 708 343.5 721 Q330 734 330 752 Q330 771 343 783.5 Q356 796 375 796 Q392 796 405 783.5 Q418 771 418 752 Z M226 752 Q226 734 212.5 721 Q199 708 182 708 Q164 708 150.5 721 Q137 734 137 752 Q137 771 150.5 783.5 Q164 796 182 796 Q199 796 212.5 783.5 Q226 771 226 752 Z " />
<glyph glyph-name="Igrave" unicode="&#xcc;" horiz-adv-x="243" d="M83 0 L83 651 L160 651 L160 0 L83 0 Z M-38 762 L24 818 L158 724 L133 692 L-38 762 Z " />
<glyph glyph-name="Iacute" unicode="&#xcd;" horiz-adv-x="243" d="M83 0 L83 651 L160 651 L160 0 L83 0 Z M121 692 L96 724 L230 818 L292 762 L121 692 Z " />
<glyph glyph-name="Icircumflex" unicode="&#xce;" horiz-adv-x="243" d="M83 0 L83 651 L160 651 L160 0 L83 0 Z M121 765 L-7 689 L-36 712 L89 823 L157 823 L281 711 L253 688 L121 765 Z " />
<glyph glyph-name="Idieresis" unicode="&#xcf;" horiz-adv-x="243" d="M83 0 L83 651 L160 651 L160 0 L83 0 Z M265 752 Q265 734 252 721 Q239 708 222 708 Q204 708 190.5 721 Q177 734 177 752 Q177 771 190 783.5 Q203 796 222 796 Q239 796 252 783.5 Q265 771 265 752 Z M73 752 Q73 734 59.5 721 Q46 708 29 708 Q11 708 -2.5 721 Q-16 734 -16 752 Q-16 771 -2.5 783.5 Q11 796 29 796 Q46 796 59.5 783.5 Q73 771 73 752 Z " />
<glyph glyph-name="Ntilde" unicode="&#xd1;" horiz-adv-x="610" d="M478 0 Q454 36 420.5 87.5 Q387 139 348.5 197.5 Q310 256 270.5 316.5 Q231 377 196 431 Q179 457 163.5 482 Q148 507 141 519 L139 519 L139 0 L64 0 L64 651 L138 651 Q196 562 253.5 475 Q311 388 369 300 Q381 282 394.5 261 Q408 240 421.5 218 Q435 196 447.5 175.5 Q460 155 471 139 L473 139 L473 651 L548 651 L548 0 L478 0 Z M474 782 Q457 741 431.5 724 Q406 707 377 707 Q360 707 342.5 713 Q325 719 308 726.5 Q291 734 275 740.5 Q259 747 244 747 Q227 747 211.5 739 Q196 731 179 708 L146 724 Q164 770 191.5 787 Q219 804 245 804 Q262 804 279 797.5 Q296 791 313.5 783 Q331 775 347.5 768.5 Q364 762 379 762 Q397 762 411 769.5 Q425 777 441 799 L474 782 Z " />
<glyph glyph-name="Ograve" unicode="&#xd2;" horiz-adv-x="635" d="M589 326 Q589 250 569.5 188 Q550 126 514.5 82 Q479 38 429 14 Q379 -10 317 -10 Q252 -10 202 15 Q152 40 117 84.5 Q82 129 64 190.5 Q46 252 46 325 Q46 397 64.5 458.5 Q83 520 117.5 565 Q152 610 202.5 635.5 Q253 661 317 661 Q379 661 429 637 Q479 613 514.5 568.5 Q550 524 569.5 462.5 Q589 401 589 326 Z M511 325 Q511 382 499 431 Q487 480 462.5 516 Q438 552 401.5 572 Q365 592 317 592 Q269 592 232.5 572 Q196 552 172 516.5 Q148 481 135.5 432.5 Q123 384 123 326 Q123 271 135 222.5 Q147 174 171.5 137.5 Q196 101 232.5 80 Q269 59 317 59 Q366 59 402.5 80.5 Q439 102 463 138 Q487 174 499 222.5 Q511 271 511 325 Z M175 762 L237 818 L371 724 L346 692 L175 762 Z " />
<glyph glyph-name="Oacute" unicode="&#xd3;" horiz-adv-x="635" d="M589 326 Q589 250 569.5 188 Q550 126 514.5 82 Q479 38 429 14 Q379 -10 317 -10 Q252 -10 202 15 Q152 40 117 84.5 Q82 129 64 190.5 Q46 252 46 325 Q46 397 64.5 458.5 Q83 520 117.5 565 Q152 610 202.5 635.5 Q253 661 317 661 Q379 661 429 637 Q479 613 514.5 568.5 Q550 524 569.5 462.5 Q589 401 589 326 Z M511 325 Q511 382 499 431 Q487 480 462.5 516 Q438 552 401.5 572 Q365 592 317 592 Q269 592 232.5 572 Q196 552 172 516.5 Q148 481 135.5 432.5 Q123 384 123 326 Q123 271 135 222.5 Q147 174 171.5 137.5 Q196 101 232.5 80 Q269 59 317 59 Q366 59 402.5 80.5 Q439 102 463 138 Q487 174 499 222.5 Q511 271 511 325 Z M285 692 L260 724 L394 818 L456 762 L285 692 Z " />
<glyph glyph-name="Ocircumflex" unicode="&#xd4;" horiz-adv-x="635" d="M589 326 Q589 250 569.5 188 Q550 126 514.5 82 Q479 38 429 14 Q379 -10 317 -10 Q252 -10 202 15 Q152 40 117 84.5 Q82 129 64 190.5 Q46 252 46 325 Q46 397 64.5 458.5 Q83 520 117.5 565 Q152 610 202.5 635.5 Q253 661 317 661 Q379 661 429 637 Q479 613 514.5 568.5 Q550 524 569.5 462.5 Q589 401 589 326 Z M511 325 Q511 382 499 431 Q487 480 462.5 516 Q438 552 401.5 572 Q365 592 317 592 Q269 592 232.5 572 Q196 552 172 516.5 Q148 481 135.5 432.5 Q123 384 123 326 Q123 271 135 222.5 Q147 174 171.5 137.5 Q196 101 232.5 80 Q269 59 317 59 Q366 59 402.5 80.5 Q439 102 463 138 Q487 174 499 222.5 Q511 271 511 325 Z M320 765 L192 689 L163 712 L288 823 L356 823 L480 711 L452 688 L320 765 Z " />
<glyph glyph-name="Otilde" unicode="&#xd5;" horiz-adv-x="635" d="M589 326 Q589 250 569.5 188 Q550 126 514.5 82 Q479 38 429 14 Q379 -10 317 -10 Q252 -10 202 15 Q152 40 117 84.5 Q82 129 64 190.5 Q46 252 46 325 Q46 397 64.5 458.5 Q83 520 117.5 565 Q152 610 202.5 635.5 Q253 661 317 661 Q379 661 429 637 Q479 613 514.5 568.5 Q550 524 569.5 462.5 Q589 401 589 326 Z M511 325 Q511 382 499 431 Q487 480 462.5 516 Q438 552 401.5 572 Q365 592 317 592 Q269 592 232.5 572 Q196 552 172 516.5 Q148 481 135.5 432.5 Q123 384 123 326 Q123 271 135 222.5 Q147 174 171.5 137.5 Q196 101 232.5 80 Q269 59 317 59 Q366 59 402.5 80.5 Q439 102 463 138 Q487 174 499 222.5 Q511 271 511 325 Z M484 785 Q467 744 441.5 727 Q416 710 387 710 Q370 710 352.5 716 Q335 722 318 729.5 Q301 737 285 743.5 Q269 750 254 750 Q237 750 221.5 742 Q206 734 189 711 L156 727 Q174 773 201.5 790 Q229 807 255 807 Q272 807 289 800.5 Q306 794 323.5 786 Q341 778 357.5 771.5 Q374 765 389 765 Q407 765 421 772.5 Q435 780 451 802 L484 785 Z " />
<glyph glyph-name="Odieresis" unicode="&#xd6;" horiz-adv-x="635" d="M589 326 Q589 250 569.5 188 Q550 126 514.5 82 Q479 38 429 14 Q379 -10 317 -10 Q252 -10 202 15 Q152 40 117 84.5 Q82 129 64 190.5 Q46 252 46 325 Q46 397 64.5 458.5 Q83 520 117.5 565 Q152 610 202.5 635.5 Q253 661 317 661 Q379 661 429 637 Q479 613 514.5 568.5 Q550 524 569.5 462.5 Q589 401 589 326 Z M511 325 Q511 382 499 431 Q487 480 462.5 516 Q438 552 401.5 572 Q365 592 317 592 Q269 592 232.5 572 Q196 552 172 516.5 Q148 481 135.5 432.5 Q123 384 123 326 Q123 271 135 222.5 Q147 174 171.5 137.5 Q196 101 232.5 80 Q269 59 317 59 Q366 59 402.5 80.5 Q439 102 463 138 Q487 174 499 222.5 Q511 271 511 325 Z M458 752 Q458 734 445 721 Q432 708 415 708 Q397 708 383.5 721 Q370 734 370 752 Q370 771 383 783.5 Q396 796 415 796 Q432 796 445 783.5 Q458 771 458 752 Z M266 752 Q266 734 252.5 721 Q239 708 222 708 Q204 708 190.5 721 Q177 734 177 752 Q177 771 190.5 783.5 Q204 796 222 796 Q239 796 252.5 783.5 Q266 771 266 752 Z " />
<glyph glyph-name="Ugrave" unicode="&#xd9;" horiz-adv-x="616" d="M556 270 Q556 128 491 59 Q426 -10 308 -10 Q192 -10 129 60.5 Q66 131 66 271 L66 651 L141 651 L141 274 Q141 176 183 118.5 Q225 61 310 61 Q398 61 439 116.5 Q480 172 480 268 L480 651 L556 651 L556 270 Z M172 762 L234 818 L368 724 L343 692 L172 762 Z " />
<glyph glyph-name="Uacute" unicode="&#xda;" horiz-adv-x="616" d="M556 270 Q556 128 491 59 Q426 -10 308 -10 Q192 -10 129 60.5 Q66 131 66 271 L66 651 L141 651 L141 274 Q141 176 183 118.5 Q225 61 310 61 Q398 61 439 116.5 Q480 172 480 268 L480 651 L556 651 L556 270 Z M282 692 L257 724 L391 818 L453 762 L282 692 Z " />
<glyph glyph-name="Ucircumflex" unicode="&#xdb;" horiz-adv-x="616" d="M556 270 Q556 128 491 59 Q426 -10 308 -10 Q192 -10 129 60.5 Q66 131 66 271 L66 651 L141 651 L141 274 Q141 176 183 118.5 Q225 61 310 61 Q398 61 439 116.5 Q480 172 480 268 L480 651 L556 651 L556 270 Z M311 765 L183 689 L154 712 L279 823 L347 823 L471 711 L443 688 L311 765 Z " />
<glyph glyph-name="Udieresis" unicode="&#xdc;" horiz-adv-x="616" d="M556 270 Q556 128 491 59 Q426 -10 308 -10 Q192 -10 129 60.5 Q66 131 66 271 L66 651 L141 651 L141 274 Q141 176 183 118.5 Q225 61 310 61 Q398 61 439 116.5 Q480 172 480 268 L480 651 L556 651 L556 270 Z M456 754 Q456 736 443 723 Q430 710 413 710 Q395 710 381.5 723 Q368 736 368 754 Q368 773 381 785.5 Q394 798 413 798 Q430 798 443 785.5 Q456 773 456 754 Z M264 754 Q264 736 250.5 723 Q237 710 220 710 Q202 710 188.5 723 Q175 736 175 754 Q175 773 188.5 785.5 Q202 798 220 798 Q237 798 250.5 785.5 Q264 773 264 754 Z " />
<glyph glyph-name="Yacute" unicode="&#xdd;" horiz-adv-x="560" d="M317 231 L317 0 L242 0 L242 231 L8 651 L94 651 L280 300 L467 651 L551 651 L317 231 Z M267 692 L242 724 L376 818 L438 762 L267 692 Z " />
<glyph glyph-name="agrave" unicode="&#xe0;" horiz-adv-x="477" d="M245 497 Q330 497 375.5 457.5 Q421 418 421 339 L421 0 L351 0 L351 48 L349 48 Q310 13 271.5 2 Q233 -9 198 -9 Q169 -9 140 -0.5 Q111 8 87.5 26.5 Q64 45 49.5 74 Q35 103 35 145 Q35 181 48.5 210 Q62 239 86.5 259.5 Q111 280 144.5 291 Q178 302 218 302 Q250 302 282.5 295.5 Q315 289 351 269 L351 329 Q351 385 322.5 410.5 Q294 436 237 436 Q201 436 170 427 Q139 418 108 403 L84 459 Q119 476 158 486.5 Q197 497 245 497 Z M351 209 Q321 226 291 236 Q261 246 219 246 Q171 246 138 220.5 Q105 195 105 147 Q105 99 133 74 Q161 49 214 49 Q253 51 288.5 70 Q324 89 351 116 L351 209 Z M140 713 L223 728 L295 569 L257 556 L140 713 Z " />
<glyph glyph-name="aacute" unicode="&#xe1;" horiz-adv-x="477" d="M245 497 Q330 497 375.5 457.5 Q421 418 421 339 L421 0 L351 0 L351 48 L349 48 Q310 13 271.5 2 Q233 -9 198 -9 Q169 -9 140 -0.5 Q111 8 87.5 26.5 Q64 45 49.5 74 Q35 103 35 145 Q35 181 48.5 210 Q62 239 86.5 259.5 Q111 280 144.5 291 Q178 302 218 302 Q250 302 282.5 295.5 Q315 289 351 269 L351 329 Q351 385 322.5 410.5 Q294 436 237 436 Q201 436 170 427 Q139 418 108 403 L84 459 Q119 476 158 486.5 Q197 497 245 497 Z M351 209 Q321 226 291 236 Q261 246 219 246 Q171 246 138 220.5 Q105 195 105 147 Q105 99 133 74 Q161 49 214 49 Q253 51 288.5 70 Q324 89 351 116 L351 209 Z M264 556 L226 569 L296 730 L378 715 L264 556 Z " />
<glyph glyph-name="acircumflex" unicode="&#xe2;" horiz-adv-x="477" d="M245 497 Q330 497 375.5 457.5 Q421 418 421 339 L421 0 L351 0 L351 48 L349 48 Q310 13 271.5 2 Q233 -9 198 -9 Q169 -9 140 -0.5 Q111 8 87.5 26.5 Q64 45 49.5 74 Q35 103 35 145 Q35 181 48.5 210 Q62 239 86.5 259.5 Q111 280 144.5 291 Q178 302 218 302 Q250 302 282.5 295.5 Q315 289 351 269 L351 329 Q351 385 322.5 410.5 Q294 436 237 436 Q201 436 170 427 Q139 418 108 403 L84 459 Q119 476 158 486.5 Q197 497 245 497 Z M351 209 Q321 226 291 236 Q261 246 219 246 Q171 246 138 220.5 Q105 195 105 147 Q105 99 133 74 Q161 49 214 49 Q253 51 288.5 70 Q324 89 351 116 L351 209 Z M250 649 L121 559 L93 582 L218 707 L286 707 L410 581 L382 558 L250 649 Z " />
<glyph glyph-name="atilde" unicode="&#xe3;" horiz-adv-x="477" d="M245 497 Q330 497 375.5 457.5 Q421 418 421 339 L421 0 L351 0 L351 48 L349 48 Q310 13 271.5 2 Q233 -9 198 -9 Q169 -9 140 -0.5 Q111 8 87.5 26.5 Q64 45 49.5 74 Q35 103 35 145 Q35 181 48.5 210 Q62 239 86.5 259.5 Q111 280 144.5 291 Q178 302 218 302 Q250 302 282.5 295.5 Q315 289 351 269 L351 329 Q351 385 322.5 410.5 Q294 436 237 436 Q201 436 170 427 Q139 418 108 403 L84 459 Q119 476 158 486.5 Q197 497 245 497 Z M351 209 Q321 226 291 236 Q261 246 219 246 Q171 246 138 220.5 Q105 195 105 147 Q105 99 133 74 Q161 49 214 49 Q253 51 288.5 70 Q324 89 351 116 L351 209 Z M424 652 Q407 611 381.5 594 Q356 577 327 577 Q310 577 292.5 583 Q275 589 258 596.5 Q241 604 225 610.5 Q209 617 194 617 Q177 617 161.5 609 Q146 601 129 578 L96 594 Q114 640 141.5 657 Q169 674 195 674 Q212 674 229 667.5 Q246 661 263.5 653 Q281 645 297.5 638.5 Q314 632 329 632 Q347 632 361 639.5 Q375 647 391 669 L424 652 Z " />
<glyph glyph-name="adieresis" unicode="&#xe4;" horiz-adv-x="477" d="M245 497 Q330 497 375.5 457.5 Q421 418 421 339 L421 0 L351 0 L351 48 L349 48 Q310 13 271.5 2 Q233 -9 198 -9 Q169 -9 140 -0.5 Q111 8 87.5 26.5 Q64 45 49.5 74 Q35 103 35 145 Q35 181 48.5 210 Q62 239 86.5 259.5 Q111 280 144.5 291 Q178 302 218 302 Q250 302 282.5 295.5 Q315 289 351 269 L351 329 Q351 385 322.5 410.5 Q294 436 237 436 Q201 436 170 427 Q139 418 108 403 L84 459 Q119 476 158 486.5 Q197 497 245 497 Z M351 209 Q321 226 291 236 Q261 246 219 246 Q171 246 138 220.5 Q105 195 105 147 Q105 99 133 74 Q161 49 214 49 Q253 51 288.5 70 Q324 89 351 116 L351 209 Z M393 627 Q393 609 380 596 Q367 583 350 583 Q332 583 318.5 596 Q305 609 305 627 Q305 646 318 658.5 Q331 671 350 671 Q367 671 380 658.5 Q393 646 393 627 Z M201 627 Q201 609 187.5 596 Q174 583 157 583 Q139 583 125.5 596 Q112 609 112 627 Q112 646 125.5 658.5 Q139 671 157 671 Q174 671 187.5 658.5 Q201 646 201 627 Z " />
<glyph glyph-name="aring" unicode="&#xe5;" horiz-adv-x="477" d="M245 497 Q330 497 375.5 457.5 Q421 418 421 339 L421 0 L351 0 L351 48 L349 48 Q310 13 271.5 2 Q233 -9 198 -9 Q169 -9 140 -0.5 Q111 8 87.5 26.5 Q64 45 49.5 74 Q35 103 35 145 Q35 181 48.5 210 Q62 239 86.5 259.5 Q111 280 144.5 291 Q178 302 218 302 Q250 302 282.5 295.5 Q315 289 351 269 L351 329 Q351 385 322.5 410.5 Q294 436 237 436 Q201 436 170 427 Q139 418 108 403 L84 459 Q119 476 158 486.5 Q197 497 245 497 Z M351 209 Q321 226 291 236 Q261 246 219 246 Q171 246 138 220.5 Q105 195 105 147 Q105 99 133 74 Q161 49 214 49 Q253 51 288.5 70 Q324 89 351 116 L351 209 Z M346 635 Q346 596 320 570.5 Q294 545 256 545 Q218 545 192.5 570 Q167 595 167 635 Q167 673 192.5 698 Q218 723 256 723 Q294 723 320 698 Q346 673 346 635 Z M306 635 Q306 656 291.5 670 Q277 684 256 684 Q235 684 220.5 669.5 Q206 655 206 635 Q206 613 220.5 598 Q235 583 256 583 Q277 583 291.5 598 Q306 613 306 635 Z " />
<glyph glyph-name="ccedilla" unicode="&#xe7;" horiz-adv-x="438" d="M237 -204 Q221 -204 201 -200.5 Q181 -197 158 -187 L171 -151 Q206 -164 235 -164 Q258 -164 271.5 -154 Q285 -144 285 -126 Q285 -105 269.5 -94 Q254 -83 232 -83 Q230 -83 227.5 -83.5 Q225 -84 223 -84 L203 -63 L221 -8 Q183 -3 151 15 Q119 33 96 64 Q73 95 59.5 140 Q46 185 46 244 Q46 305 61.5 352 Q77 399 105 431.5 Q133 464 170 480.5 Q207 497 251 497 Q349 497 411 428 L364 381 Q337 410 309 422 Q281 434 249 434 Q218 434 193.5 419.5 Q169 405 152 379.5 Q135 354 126 319.5 Q117 285 117 244 Q117 203 125.5 168.5 Q134 134 151.5 108.5 Q169 83 194 68.5 Q219 54 252 54 Q285 54 311.5 66.5 Q338 79 365 107 L412 64 Q383 32 347 12 Q311 -8 258 -10 Q255 -18 252 -26.5 Q249 -35 247 -44 Q275 -47 293 -55.5 Q311 -64 321.5 -75.5 Q332 -87 336 -100 Q340 -113 340 -124 Q340 -137 334.5 -151 Q329 -165 317 -177 Q305 -189 285.5 -196.5 Q266 -204 237 -204 Z " />
<glyph glyph-name="egrave" unicode="&#xe8;" horiz-adv-x="489" d="M251 497 Q300 497 337.5 479.5 Q375 462 400.5 429.5 Q426 397 439.5 351.5 Q453 306 453 250 L453 217 L116 217 Q121 136 161 94 Q201 52 258 52 Q290 52 320 65 Q350 78 373 99 L415 54 Q348 -10 251 -10 Q210 -10 172.5 6 Q135 22 106.5 54 Q78 86 61.5 133.5 Q45 181 45 243 Q45 302 61 349 Q77 396 104.5 429 Q132 462 169.5 479.5 Q207 497 251 497 Z M383 274 Q383 307 375 336.5 Q367 366 350.5 387.5 Q334 409 309 422 Q284 435 249 435 Q223 435 200 423.5 Q177 412 159 390.5 Q141 369 129.5 339.5 Q118 310 116 274 L383 274 Z M139 713 L222 728 L294 569 L256 556 L139 713 Z " />
<glyph glyph-name="eacute" unicode="&#xe9;" horiz-adv-x="489" d="M251 497 Q300 497 337.5 479.5 Q375 462 400.5 429.5 Q426 397 439.5 351.5 Q453 306 453 250 L453 217 L116 217 Q121 136 161 94 Q201 52 258 52 Q290 52 320 65 Q350 78 373 99 L415 54 Q348 -10 251 -10 Q210 -10 172.5 6 Q135 22 106.5 54 Q78 86 61.5 133.5 Q45 181 45 243 Q45 302 61 349 Q77 396 104.5 429 Q132 462 169.5 479.5 Q207 497 251 497 Z M383 274 Q383 307 375 336.5 Q367 366 350.5 387.5 Q334 409 309 422 Q284 435 249 435 Q223 435 200 423.5 Q177 412 159 390.5 Q141 369 129.5 339.5 Q118 310 116 274 L383 274 Z M259 556 L221 569 L291 730 L373 715 L259 556 Z " />
<glyph glyph-name="ecircumflex" unicode="&#xea;" horiz-adv-x="489" d="M251 497 Q300 497 337.5 479.5 Q375 462 400.5 429.5 Q426 397 439.5 351.5 Q453 306 453 250 L453 217 L116 217 Q121 136 161 94 Q201 52 258 52 Q290 52 320 65 Q350 78 373 99 L415 54 Q348 -10 251 -10 Q210 -10 172.5 6 Q135 22 106.5 54 Q78 86 61.5 133.5 Q45 181 45 243 Q45 302 61 349 Q77 396 104.5 429 Q132 462 169.5 479.5 Q207 497 251 497 Z M383 274 Q383 307 375 336.5 Q367 366 350.5 387.5 Q334 409 309 422 Q284 435 249 435 Q223 435 200 423.5 Q177 412 159 390.5 Q141 369 129.5 339.5 Q118 310 116 274 L383 274 Z M255 649 L126 559 L98 582 L223 707 L291 707 L415 581 L387 558 L255 649 Z " />
<glyph glyph-name="edieresis" unicode="&#xeb;" horiz-adv-x="489" d="M251 497 Q300 497 337.5 479.5 Q375 462 400.5 429.5 Q426 397 439.5 351.5 Q453 306 453 250 L453 217 L116 217 Q121 136 161 94 Q201 52 258 52 Q290 52 320 65 Q350 78 373 99 L415 54 Q348 -10 251 -10 Q210 -10 172.5 6 Q135 22 106.5 54 Q78 86 61.5 133.5 Q45 181 45 243 Q45 302 61 349 Q77 396 104.5 429 Q132 462 169.5 479.5 Q207 497 251 497 Z M383 274 Q383 307 375 336.5 Q367 366 350.5 387.5 Q334 409 309 422 Q284 435 249 435 Q223 435 200 423.5 Q177 412 159 390.5 Q141 369 129.5 339.5 Q118 310 116 274 L383 274 Z M203 621 Q203 603 189.5 590 Q176 577 159 577 Q141 577 127.5 590 Q114 603 114 621 Q114 640 127.5 652.5 Q141 665 159 665 Q176 665 189.5 652.5 Q203 640 203 621 Z M395 621 Q395 603 382 590 Q369 577 352 577 Q334 577 320.5 590 Q307 603 307 621 Q307 640 320 652.5 Q333 665 352 665 Q369 665 382 652.5 Q395 640 395 621 Z " />
<glyph glyph-name="ntilde" unicode="&#xf1;" horiz-adv-x="487" d="M438 0 L366 0 L366 293 Q366 362 339 398.5 Q312 435 251 435 Q206 435 174 405.5 Q142 376 131 334 Q126 314 126 291 L126 0 L55 0 L55 488 L126 488 L126 419 L128 418 Q155 460 195 478.5 Q235 497 272 497 Q357 497 397.5 447.5 Q438 398 438 304 L438 0 Z M404 652 Q387 611 361.5 594 Q336 577 307 577 Q290 577 272.5 583 Q255 589 238 596.5 Q221 604 205 610.5 Q189 617 174 617 Q157 617 141.5 609 Q126 601 109 578 L76 594 Q94 640 121.5 657 Q149 674 175 674 Q192 674 209 667.5 Q226 661 243.5 653 Q261 645 277.5 638.5 Q294 632 309 632 Q327 632 341 639.5 Q355 647 371 669 L404 652 Z " />
<glyph glyph-name="ugrave" unicode="&#xf9;" horiz-adv-x="486" d="M52 488 L123 488 L123 194 Q123 122 149 87 Q175 52 236 52 Q281 52 311.5 80.5 Q342 109 353 151 Q359 172 359 197 L359 488 L430 488 L430 0 L359 0 L359 68 L356 68 Q329 26 290.5 8 Q252 -10 216 -10 Q52 -10 52 177 L52 488 Z M131 713 L214 728 L286 569 L248 556 L131 713 Z " />
<glyph glyph-name="uacute" unicode="&#xfa;" horiz-adv-x="486" d="M52 488 L123 488 L123 194 Q123 122 149 87 Q175 52 236 52 Q281 52 311.5 80.5 Q342 109 353 151 Q359 172 359 197 L359 488 L430 488 L430 0 L359 0 L359 68 L356 68 Q329 26 290.5 8 Q252 -10 216 -10 Q52 -10 52 177 L52 488 Z M252 556 L214 569 L284 730 L366 715 L252 556 Z " />
<glyph glyph-name="ucircumflex" unicode="&#xfb;" horiz-adv-x="486" d="M52 488 L123 488 L123 194 Q123 122 149 87 Q175 52 236 52 Q281 52 311.5 80.5 Q342 109 353 151 Q359 172 359 197 L359 488 L430 488 L430 0 L359 0 L359 68 L356 68 Q329 26 290.5 8 Q252 -10 216 -10 Q52 -10 52 177 L52 488 Z M251 646 L122 556 L94 579 L219 704 L287 704 L411 578 L383 555 L251 646 Z " />
<glyph glyph-name="udieresis" unicode="&#xfc;" horiz-adv-x="486" d="M52 488 L123 488 L123 194 Q123 122 149 87 Q175 52 236 52 Q281 52 311.5 80.5 Q342 109 353 151 Q359 172 359 197 L359 488 L430 488 L430 0 L359 0 L359 68 L356 68 Q329 26 290.5 8 Q252 -10 216 -10 Q52 -10 52 177 L52 488 Z M391 628 Q391 610 378 597 Q365 584 348 584 Q330 584 316.5 597 Q303 610 303 628 Q303 647 316 659.5 Q329 672 348 672 Q365 672 378 659.5 Q391 647 391 628 Z M199 628 Q199 610 185.5 597 Q172 584 155 584 Q137 584 123.5 597 Q110 610 110 628 Q110 647 123.5 659.5 Q137 672 155 672 Q172 672 185.5 659.5 Q199 647 199 628 Z " />
<glyph glyph-name="yacute" unicode="&#xfd;" horiz-adv-x="463" d="M135 -187 L198 -7 L15 488 L90 488 L180 230 L229 83 L232 83 Q245 120 257.5 156.5 Q270 193 282 230 Q290 252 302.5 286.5 Q315 321 328.5 358.5 Q342 396 354 431 Q366 466 374 488 L446 488 Q385 320 323.5 150 Q262 -20 201 -187 L135 -187 Z M245 556 L207 569 L277 730 L359 715 L245 556 Z " />
<glyph glyph-name="ydieresis" unicode="&#xff;" horiz-adv-x="463" d="M135 -187 L198 -7 L15 488 L90 488 L180 230 L229 83 L232 83 Q245 120 257.5 156.5 Q270 193 282 230 Q290 252 302.5 286.5 Q315 321 328.5 358.5 Q342 396 354 431 Q366 466 374 488 L446 488 Q385 320 323.5 150 Q262 -20 201 -187 L135 -187 Z M190 627 Q190 609 176.5 596 Q163 583 146 583 Q128 583 114.5 596 Q101 609 101 627 Q101 646 114.5 658.5 Q128 671 146 671 Q163 671 176.5 658.5 Q190 646 190 627 Z M382 627 Q382 609 369 596 Q356 583 339 583 Q321 583 307.5 596 Q294 609 294 627 Q294 646 307 658.5 Q320 671 339 671 Q356 671 369 658.5 Q382 646 382 627 Z " />
<glyph glyph-name="Amacron" unicode="&#x100;" horiz-adv-x="621" d="M446 222 Q413 309 379.5 394.5 Q346 480 314 568 L311 568 Q297 530 281 487.5 Q265 445 252 411 Q246 394 236 369 Q226 344 215.5 316.5 Q205 289 195.5 263.5 Q186 238 180 222 L446 222 Z M155 154 Q141 115 125.5 76.5 Q110 38 96 0 L17 0 Q82 164 145 325.5 Q208 487 273 651 L355 651 Q419 487 482.5 325.5 Q546 164 611 0 L531 0 Q516 38 501 76.5 Q486 115 472 154 L155 154 Z M192 727 L192 782 L434 782 L434 727 L192 727 Z " />
<glyph glyph-name="amacron" unicode="&#x101;" horiz-adv-x="477" d="M245 497 Q330 497 375.5 457.5 Q421 418 421 339 L421 0 L351 0 L351 48 L349 48 Q310 13 271.5 2 Q233 -9 198 -9 Q169 -9 140 -0.5 Q111 8 87.5 26.5 Q64 45 49.5 74 Q35 103 35 145 Q35 181 48.5 210 Q62 239 86.5 259.5 Q111 280 144.5 291 Q178 302 218 302 Q250 302 282.5 295.5 Q315 289 351 269 L351 329 Q351 385 322.5 410.5 Q294 436 237 436 Q201 436 170 427 Q139 418 108 403 L84 459 Q119 476 158 486.5 Q197 497 245 497 Z M351 209 Q321 226 291 236 Q261 246 219 246 Q171 246 138 220.5 Q105 195 105 147 Q105 99 133 74 Q161 49 214 49 Q253 51 288.5 70 Q324 89 351 116 L351 209 Z M139 605 L139 660 L381 660 L381 605 L139 605 Z " />
<glyph glyph-name="Abreve" unicode="&#x102;" horiz-adv-x="621" d="M446 222 Q413 309 379.5 394.5 Q346 480 314 568 L311 568 Q297 530 281 487.5 Q265 445 252 411 Q246 394 236 369 Q226 344 215.5 316.5 Q205 289 195.5 263.5 Q186 238 180 222 L446 222 Z M155 154 Q141 115 125.5 76.5 Q110 38 96 0 L17 0 Q82 164 145 325.5 Q208 487 273 651 L355 651 Q419 487 482.5 325.5 Q546 164 611 0 L531 0 Q516 38 501 76.5 Q486 115 472 154 L155 154 Z M241 811 Q245 783 263 765 Q281 747 313 747 Q347 747 364.5 767 Q382 787 384 811 L438 811 Q437 793 430 772.5 Q423 752 408.5 735.5 Q394 719 371 708 Q348 697 314 697 Q279 697 255 708 Q231 719 216 735.5 Q201 752 194.5 772.5 Q188 793 187 811 L241 811 Z " />
<glyph glyph-name="abreve" unicode="&#x103;" horiz-adv-x="477" d="M245 497 Q330 497 375.5 457.5 Q421 418 421 339 L421 0 L351 0 L351 48 L349 48 Q310 13 271.5 2 Q233 -9 198 -9 Q169 -9 140 -0.5 Q111 8 87.5 26.5 Q64 45 49.5 74 Q35 103 35 145 Q35 181 48.5 210 Q62 239 86.5 259.5 Q111 280 144.5 291 Q178 302 218 302 Q250 302 282.5 295.5 Q315 289 351 269 L351 329 Q351 385 322.5 410.5 Q294 436 237 436 Q201 436 170 427 Q139 418 108 403 L84 459 Q119 476 158 486.5 Q197 497 245 497 Z M351 209 Q321 226 291 236 Q261 246 219 246 Q171 246 138 220.5 Q105 195 105 147 Q105 99 133 74 Q161 49 214 49 Q253 51 288.5 70 Q324 89 351 116 L351 209 Z M190 682 Q194 654 212 636 Q230 618 262 618 Q296 618 313.5 638 Q331 658 333 682 L387 682 Q386 664 379 643.5 Q372 623 357.5 606.5 Q343 590 320 579 Q297 568 263 568 Q228 568 204 579 Q180 590 165 606.5 Q150 623 143.5 643.5 Q137 664 136 682 L190 682 Z " />
<glyph glyph-name="Aogonek" unicode="&#x104;" horiz-adv-x="621" d="M155 154 Q141 115 125.5 76.5 Q110 38 96 0 L17 0 Q82 164 145 325.5 Q208 487 273 651 L355 651 Q419 487 482.5 325.5 Q546 164 611 0 L576 0 Q550 -33 539.5 -57.5 Q529 -82 529 -101 Q529 -124 543.5 -136.5 Q558 -149 582 -149 Q604 -149 634 -136 L649 -174 Q630 -184 609.5 -189.5 Q589 -195 568 -195 Q529 -195 502 -173 Q475 -151 475 -113 Q475 -90 488.5 -62.5 Q502 -35 531 0 Q516 38 501 76.5 Q486 115 472 154 L155 154 Z M446 222 Q413 309 379.5 394.5 Q346 480 314 568 L311 568 Q297 530 281 487.5 Q265 445 252 411 Q246 394 236 369 Q226 344 215.5 316.5 Q205 289 195.5 263.5 Q186 238 180 222 L446 222 Z " />
<glyph glyph-name="aogonek" unicode="&#x105;" horiz-adv-x="477" d="M245 497 Q330 497 375.5 457.5 Q421 418 421 339 L421 0 L403 0 Q377 -33 366.5 -57.5 Q356 -82 356 -101 Q356 -124 370.5 -136.5 Q385 -149 409 -149 Q431 -149 461 -136 L476 -174 Q457 -184 436.5 -189.5 Q416 -195 395 -195 Q356 -195 329 -173 Q302 -151 302 -113 Q302 -90 315 -62.5 Q328 -35 357 0 L351 0 L351 48 L349 48 Q310 13 271.5 2 Q233 -9 198 -9 Q169 -9 140 -0.5 Q111 8 87.5 26.5 Q64 45 49.5 74 Q35 103 35 145 Q35 181 48.5 210 Q62 239 86.5 259.5 Q111 280 144.5 291 Q178 302 218 302 Q250 302 282.5 295.5 Q315 289 351 269 L351 329 Q351 385 322.5 410.5 Q294 436 237 436 Q201 436 170 427 Q139 418 108 403 L84 459 Q119 476 158 486.5 Q197 497 245 497 Z M351 209 Q321 226 291 236 Q261 246 219 246 Q171 246 138 220.5 Q105 195 105 147 Q105 99 133 74 Q161 49 214 49 Q253 51 288.5 70 Q324 89 351 116 L351 209 Z " />
<glyph glyph-name="Cacute" unicode="&#x106;" horiz-adv-x="556" d="M320 662 Q386 662 436.5 640 Q487 618 525 573 L472 520 Q439 557 402 574 Q365 591 319 591 Q272 591 236 571.5 Q200 552 175 516.5 Q150 481 137 432.5 Q124 384 124 327 Q124 271 136.5 222 Q149 173 173.5 137 Q198 101 235 80.5 Q272 60 321 60 Q409 60 475 135 L528 86 Q490 41 440 15.5 Q390 -10 319 -10 Q259 -10 208.5 13 Q158 36 122 79.5 Q86 123 66 185 Q46 247 46 326 Q46 404 66 466 Q86 528 122.5 571.5 Q159 615 209.5 638.5 Q260 662 320 662 Z M290 692 L265 724 L399 818 L461 762 L290 692 Z " />
<glyph glyph-name="cacute" unicode="&#x107;" horiz-adv-x="438" d="M251 497 Q349 497 411 428 L364 381 Q337 410 309 422 Q281 434 249 434 Q218 434 193.5 419.5 Q169 405 152 379.5 Q135 354 126 319.5 Q117 285 117 244 Q117 203 125.5 168.5 Q134 134 151.5 108.5 Q169 83 194 68.5 Q219 54 252 54 Q285 54 311.5 66.5 Q338 79 365 107 L412 64 Q383 30 344.5 10 Q306 -10 249 -10 Q207 -10 170 5.5 Q133 21 105.5 52.5 Q78 84 62 132 Q46 180 46 244 Q46 305 61.5 352 Q77 399 105 431.5 Q133 464 170 480.5 Q207 497 251 497 Z M247 556 L209 569 L279 730 L361 715 L247 556 Z " />
<glyph glyph-name="Ccircumflex" unicode="&#x108;" horiz-adv-x="556" d="M320 662 Q386 662 436.5 640 Q487 618 525 573 L472 520 Q439 557 402 574 Q365 591 319 591 Q272 591 236 571.5 Q200 552 175 516.5 Q150 481 137 432.5 Q124 384 124 327 Q124 271 136.5 222 Q149 173 173.5 137 Q198 101 235 80.5 Q272 60 321 60 Q409 60 475 135 L528 86 Q490 41 440 15.5 Q390 -10 319 -10 Q259 -10 208.5 13 Q158 36 122 79.5 Q86 123 66 185 Q46 247 46 326 Q46 404 66 466 Q86 528 122.5 571.5 Q159 615 209.5 638.5 Q260 662 320 662 Z M317 765 L189 689 L160 712 L285 823 L353 823 L477 711 L449 688 L317 765 Z " />
<glyph glyph-name="ccircumflex" unicode="&#x109;" horiz-adv-x="438" d="M251 497 Q349 497 411 428 L364 381 Q337 410 309 422 Q281 434 249 434 Q218 434 193.5 419.5 Q169 405 152 379.5 Q135 354 126 319.5 Q117 285 117 244 Q117 203 125.5 168.5 Q134 134 151.5 108.5 Q169 83 194 68.5 Q219 54 252 54 Q285 54 311.5 66.5 Q338 79 365 107 L412 64 Q383 30 344.5 10 Q306 -10 249 -10 Q207 -10 170 5.5 Q133 21 105.5 52.5 Q78 84 62 132 Q46 180 46 244 Q46 305 61.5 352 Q77 399 105 431.5 Q133 464 170 480.5 Q207 497 251 497 Z M243 644 L114 554 L86 577 L211 702 L279 702 L403 576 L375 553 L243 644 Z " />
<glyph glyph-name="Cdotaccent" unicode="&#x10a;" horiz-adv-x="556" d="M320 662 Q386 662 436.5 640 Q487 618 525 573 L472 520 Q439 557 402 574 Q365 591 319 591 Q272 591 236 571.5 Q200 552 175 516.5 Q150 481 137 432.5 Q124 384 124 327 Q124 271 136.5 222 Q149 173 173.5 137 Q198 101 235 80.5 Q272 60 321 60 Q409 60 475 135 L528 86 Q490 41 440 15.5 Q390 -10 319 -10 Q259 -10 208.5 13 Q158 36 122 79.5 Q86 123 66 185 Q46 247 46 326 Q46 404 66 466 Q86 528 122.5 571.5 Q159 615 209.5 638.5 Q260 662 320 662 Z M361 755 Q361 737 347.5 723.5 Q334 710 315 710 Q296 710 283 723.5 Q270 737 270 755 Q270 775 283 788.5 Q296 802 315 802 Q334 802 347.5 788.5 Q361 775 361 755 Z " />
<glyph glyph-name="cdotaccent" unicode="&#x10b;" horiz-adv-x="438" d="M251 497 Q349 497 411 428 L364 381 Q337 410 309 422 Q281 434 249 434 Q218 434 193.5 419.5 Q169 405 152 379.5 Q135 354 126 319.5 Q117 285 117 244 Q117 203 125.5 168.5 Q134 134 151.5 108.5 Q169 83 194 68.5 Q219 54 252 54 Q285 54 311.5 66.5 Q338 79 365 107 L412 64 Q383 30 344.5 10 Q306 -10 249 -10 Q207 -10 170 5.5 Q133 21 105.5 52.5 Q78 84 62 132 Q46 180 46 244 Q46 305 61.5 352 Q77 399 105 431.5 Q133 464 170 480.5 Q207 497 251 497 Z M298 626 Q298 608 284.5 594.5 Q271 581 252 581 Q233 581 220 594.5 Q207 608 207 626 Q207 646 220 659.5 Q233 673 252 673 Q271 673 284.5 659.5 Q298 646 298 626 Z " />
<glyph glyph-name="Ccaron" unicode="&#x10c;" horiz-adv-x="556" d="M320 662 Q386 662 436.5 640 Q487 618 525 573 L472 520 Q439 557 402 574 Q365 591 319 591 Q272 591 236 571.5 Q200 552 175 516.5 Q150 481 137 432.5 Q124 384 124 327 Q124 271 136.5 222 Q149 173 173.5 137 Q198 101 235 80.5 Q272 60 321 60 Q409 60 475 135 L528 86 Q490 41 440 15.5 Q390 -10 319 -10 Q259 -10 208.5 13 Q158 36 122 79.5 Q86 123 66 185 Q46 247 46 326 Q46 404 66 466 Q86 528 122.5 571.5 Q159 615 209.5 638.5 Q260 662 320 662 Z M449 828 L477 805 L352 692 L285 692 L160 804 L189 827 L317 750 L449 828 Z " />
<glyph glyph-name="ccaron" unicode="&#x10d;" horiz-adv-x="438" d="M251 497 Q349 497 411 428 L364 381 Q337 410 309 422 Q281 434 249 434 Q218 434 193.5 419.5 Q169 405 152 379.5 Q135 354 126 319.5 Q117 285 117 244 Q117 203 125.5 168.5 Q134 134 151.5 108.5 Q169 83 194 68.5 Q219 54 252 54 Q285 54 311.5 66.5 Q338 79 365 107 L412 64 Q383 30 344.5 10 Q306 -10 249 -10 Q207 -10 170 5.5 Q133 21 105.5 52.5 Q78 84 62 132 Q46 180 46 244 Q46 305 61.5 352 Q77 399 105 431.5 Q133 464 170 480.5 Q207 497 251 497 Z M380 705 L408 683 L284 556 L216 556 L91 682 L120 704 L248 614 L380 705 Z " />
<glyph glyph-name="Dcaron" unicode="&#x10e;" horiz-adv-x="612" d="M238 651 Q304 651 362.5 633 Q421 615 465.5 576 Q510 537 535.5 475.5 Q561 414 561 326 Q561 238 535 176 Q509 114 464 75 Q419 36 360 18 Q301 0 235 0 L73 0 L73 651 L238 651 Z M148 582 L148 69 L237 69 Q300 69 346 87.5 Q392 106 422.5 139.5 Q453 173 468 220.5 Q483 268 483 325 Q483 382 468 429.5 Q453 477 422.5 510.5 Q392 544 346 563 Q300 582 238 582 L148 582 Z M386 828 L414 805 L289 692 L222 692 L97 804 L126 827 L254 750 L386 828 Z " />
<glyph glyph-name="Emacron" unicode="&#x112;" horiz-adv-x="510" d="M66 0 L66 651 L481 651 L481 582 L141 582 L141 382 L383 382 L383 313 L141 313 L141 69 L494 69 L494 0 L66 0 Z M158 725 L158 780 L400 780 L400 725 L158 725 Z " />
<glyph glyph-name="emacron" unicode="&#x113;" horiz-adv-x="489" d="M251 497 Q300 497 337.5 479.5 Q375 462 400.5 429.5 Q426 397 439.5 351.5 Q453 306 453 250 L453 217 L116 217 Q121 136 161 94 Q201 52 258 52 Q290 52 320 65 Q350 78 373 99 L415 54 Q348 -10 251 -10 Q210 -10 172.5 6 Q135 22 106.5 54 Q78 86 61.5 133.5 Q45 181 45 243 Q45 302 61 349 Q77 396 104.5 429 Q132 462 169.5 479.5 Q207 497 251 497 Z M383 274 Q383 307 375 336.5 Q367 366 350.5 387.5 Q334 409 309 422 Q284 435 249 435 Q223 435 200 423.5 Q177 412 159 390.5 Q141 369 129.5 339.5 Q118 310 116 274 L383 274 Z M138 605 L138 660 L380 660 L380 605 L138 605 Z " />
<glyph glyph-name="Ebreve" unicode="&#x114;" horiz-adv-x="510" d="M66 0 L66 651 L481 651 L481 582 L141 582 L141 382 L383 382 L383 313 L141 313 L141 69 L494 69 L494 0 L66 0 Z M206 812 Q210 784 228 766 Q246 748 278 748 Q312 748 329.5 768 Q347 788 349 812 L403 812 Q402 794 395 773.5 Q388 753 373.5 736.5 Q359 720 336 709 Q313 698 279 698 Q244 698 220 709 Q196 720 181 736.5 Q166 753 159.5 773.5 Q153 794 152 812 L206 812 Z " />
<glyph glyph-name="ebreve" unicode="&#x115;" horiz-adv-x="489" d="M251 497 Q300 497 337.5 479.5 Q375 462 400.5 429.5 Q426 397 439.5 351.5 Q453 306 453 250 L453 217 L116 217 Q121 136 161 94 Q201 52 258 52 Q290 52 320 65 Q350 78 373 99 L415 54 Q348 -10 251 -10 Q210 -10 172.5 6 Q135 22 106.5 54 Q78 86 61.5 133.5 Q45 181 45 243 Q45 302 61 349 Q77 396 104.5 429 Q132 462 169.5 479.5 Q207 497 251 497 Z M383 274 Q383 307 375 336.5 Q367 366 350.5 387.5 Q334 409 309 422 Q284 435 249 435 Q223 435 200 423.5 Q177 412 159 390.5 Q141 369 129.5 339.5 Q118 310 116 274 L383 274 Z M183 682 Q187 654 205 636 Q223 618 255 618 Q289 618 306.5 638 Q324 658 326 682 L380 682 Q379 664 372 643.5 Q365 623 350.5 606.5 Q336 590 313 579 Q290 568 256 568 Q221 568 197 579 Q173 590 158 606.5 Q143 623 136.5 643.5 Q130 664 129 682 L183 682 Z " />
<glyph glyph-name="Edotaccent" unicode="&#x116;" horiz-adv-x="510" d="M66 0 L66 651 L481 651 L481 582 L141 582 L141 382 L383 382 L383 313 L141 313 L141 69 L494 69 L494 0 L66 0 Z M329 753 Q329 735 315.5 721.5 Q302 708 283 708 Q264 708 251 721.5 Q238 735 238 753 Q238 773 251 786.5 Q264 800 283 800 Q302 800 315.5 786.5 Q329 773 329 753 Z " />
<glyph glyph-name="edotaccent" unicode="&#x117;" horiz-adv-x="489" d="M251 497 Q300 497 337.5 479.5 Q375 462 400.5 429.5 Q426 397 439.5 351.5 Q453 306 453 250 L453 217 L116 217 Q121 136 161 94 Q201 52 258 52 Q290 52 320 65 Q350 78 373 99 L415 54 Q348 -10 251 -10 Q210 -10 172.5 6 Q135 22 106.5 54 Q78 86 61.5 133.5 Q45 181 45 243 Q45 302 61 349 Q77 396 104.5 429 Q132 462 169.5 479.5 Q207 497 251 497 Z M383 274 Q383 307 375 336.5 Q367 366 350.5 387.5 Q334 409 309 422 Q284 435 249 435 Q223 435 200 423.5 Q177 412 159 390.5 Q141 369 129.5 339.5 Q118 310 116 274 L383 274 Z M301 615 Q301 597 287.5 583.5 Q274 570 255 570 Q236 570 223 583.5 Q210 597 210 615 Q210 635 223 648.5 Q236 662 255 662 Q274 662 287.5 648.5 Q301 635 301 615 Z " />
<glyph glyph-name="Eogonek" unicode="&#x118;" horiz-adv-x="510" d="M491 0 Q465 -33 454.5 -57.5 Q444 -82 444 -101 Q444 -124 458.5 -136.5 Q473 -149 497 -149 Q519 -149 549 -136 L564 -174 Q545 -184 524.5 -189.5 Q504 -195 483 -195 Q444 -195 417 -173 Q390 -151 390 -113 Q390 -90 403 -62.5 Q416 -35 445 0 L66 0 L66 651 L481 651 L481 582 L141 582 L141 382 L383 382 L383 313 L141 313 L141 69 L494 69 L494 0 L491 0 Z " />
<glyph glyph-name="eogonek" unicode="&#x119;" horiz-adv-x="489" d="M251 497 Q300 497 337.5 479.5 Q375 462 400.5 429.5 Q426 397 439.5 351.5 Q453 306 453 250 L453 217 L116 217 Q121 136 161 94 Q201 52 258 52 Q290 52 320 65 Q350 78 373 99 L415 54 Q388 28 359 14 Q339 -15 330 -36.5 Q321 -58 321 -75 Q321 -98 335.5 -110.5 Q350 -123 374 -123 Q396 -123 426 -110 L441 -148 Q422 -158 401.5 -163.5 Q381 -169 360 -169 Q321 -169 294 -147 Q267 -125 267 -87 Q267 -53 298 -6 Q287 -8 275 -9 Q263 -10 251 -10 Q210 -10 172.5 6 Q135 22 106.5 54 Q78 86 61.5 133.5 Q45 181 45 243 Q45 302 61 349 Q77 396 104.5 429 Q132 462 169.5 479.5 Q207 497 251 497 Z M383 274 Q383 307 375 336.5 Q367 366 350.5 387.5 Q334 409 309 422 Q284 435 249 435 Q223 435 200 423.5 Q177 412 159 390.5 Q141 369 129.5 339.5 Q118 310 116 274 L383 274 Z " />
<glyph glyph-name="Ecaron" unicode="&#x11a;" horiz-adv-x="510" d="M66 0 L66 651 L481 651 L481 582 L141 582 L141 382 L383 382 L383 313 L141 313 L141 69 L494 69 L494 0 L66 0 Z M403 828 L431 805 L306 692 L239 692 L114 804 L143 827 L271 750 L403 828 Z " />
<glyph glyph-name="ecaron" unicode="&#x11b;" horiz-adv-x="489" d="M251 497 Q300 497 337.5 479.5 Q375 462 400.5 429.5 Q426 397 439.5 351.5 Q453 306 453 250 L453 217 L116 217 Q121 136 161 94 Q201 52 258 52 Q290 52 320 65 Q350 78 373 99 L415 54 Q348 -10 251 -10 Q210 -10 172.5 6 Q135 22 106.5 54 Q78 86 61.5 133.5 Q45 181 45 243 Q45 302 61 349 Q77 396 104.5 429 Q132 462 169.5 479.5 Q207 497 251 497 Z M383 274 Q383 307 375 336.5 Q367 366 350.5 387.5 Q334 409 309 422 Q284 435 249 435 Q223 435 200 423.5 Q177 412 159 390.5 Q141 369 129.5 339.5 Q118 310 116 274 L383 274 Z M381 705 L409 683 L285 556 L217 556 L92 682 L121 704 L249 614 L381 705 Z " />
<glyph glyph-name="Gcircumflex" unicode="&#x11c;" horiz-adv-x="594" d="M315 660 Q381 660 432 637.5 Q483 615 522 569 L468 517 Q403 589 314 589 Q266 589 229.5 569.5 Q193 550 168.5 514.5 Q144 479 131.5 430.5 Q119 382 119 325 Q119 266 131.5 217.5 Q144 169 169 133.5 Q194 98 231 78.5 Q268 59 317 59 Q364 59 396 74.5 Q428 90 448 115 Q468 140 477 170.5 Q486 201 486 230 L486 253 L376 253 L376 320 L563 320 L563 260 Q563 197 545.5 146.5 Q528 96 495.5 61.5 Q463 27 417.5 8.5 Q372 -10 315 -10 Q251 -10 200.5 13.5 Q150 37 114.5 81 Q79 125 60 186.5 Q41 248 41 325 Q41 404 61 466 Q81 528 117.5 571 Q154 614 204.5 637 Q255 660 315 660 Z M314 765 L186 689 L157 712 L282 823 L350 823 L474 711 L446 688 L314 765 Z " />
<glyph glyph-name="gcircumflex" unicode="&#x11d;" horiz-adv-x="500" d="M444 34 Q444 -54 398.5 -116.5 Q353 -179 247 -207 L224 -147 Q273 -131 302.5 -112 Q332 -93 348 -72 Q364 -51 369 -28.5 Q374 -6 374 15 L374 53 L372 53 Q331 17 297 5 Q263 -7 231 -7 Q195 -7 161.5 6 Q128 19 102.5 48.5 Q77 78 61.5 126 Q46 174 46 245 Q46 309 62.5 356 Q79 403 105.5 434.5 Q132 466 166 481.5 Q200 497 235 497 Q268 497 302.5 485.5 Q337 474 370 440 L372 440 L372 488 L444 488 L444 34 Z M373 366 Q352 393 319.5 415 Q287 437 246 437 Q218 437 194 423 Q170 409 153 384.5 Q136 360 126 325.5 Q116 291 116 249 Q116 152 149 103 Q182 54 248 54 Q286 54 319.5 76 Q353 98 373 124 L373 366 Z M263 644 L134 554 L106 577 L231 702 L299 702 L423 576 L395 553 L263 644 Z " />
<glyph glyph-name="Gbreve" unicode="&#x11e;" horiz-adv-x="594" d="M315 660 Q381 660 432 637.5 Q483 615 522 569 L468 517 Q403 589 314 589 Q266 589 229.5 569.5 Q193 550 168.5 514.5 Q144 479 131.5 430.5 Q119 382 119 325 Q119 266 131.5 217.5 Q144 169 169 133.5 Q194 98 231 78.5 Q268 59 317 59 Q364 59 396 74.5 Q428 90 448 115 Q468 140 477 170.5 Q486 201 486 230 L486 253 L376 253 L376 320 L563 320 L563 260 Q563 197 545.5 146.5 Q528 96 495.5 61.5 Q463 27 417.5 8.5 Q372 -10 315 -10 Q251 -10 200.5 13.5 Q150 37 114.5 81 Q79 125 60 186.5 Q41 248 41 325 Q41 404 61 466 Q81 528 117.5 571 Q154 614 204.5 637 Q255 660 315 660 Z M241 813 Q245 785 263 767 Q281 749 313 749 Q347 749 364.5 769 Q382 789 384 813 L438 813 Q437 795 430 774.5 Q423 754 408.5 737.5 Q394 721 371 710 Q348 699 314 699 Q279 699 255 710 Q231 721 216 737.5 Q201 754 194.5 774.5 Q188 795 187 813 L241 813 Z " />
<glyph glyph-name="gbreve" unicode="&#x11f;" horiz-adv-x="500" d="M444 34 Q444 -54 398.5 -116.5 Q353 -179 247 -207 L224 -147 Q273 -131 302.5 -112 Q332 -93 348 -72 Q364 -51 369 -28.5 Q374 -6 374 15 L374 53 L372 53 Q331 17 297 5 Q263 -7 231 -7 Q195 -7 161.5 6 Q128 19 102.5 48.5 Q77 78 61.5 126 Q46 174 46 245 Q46 309 62.5 356 Q79 403 105.5 434.5 Q132 466 166 481.5 Q200 497 235 497 Q268 497 302.5 485.5 Q337 474 370 440 L372 440 L372 488 L444 488 L444 34 Z M373 366 Q352 393 319.5 415 Q287 437 246 437 Q218 437 194 423 Q170 409 153 384.5 Q136 360 126 325.5 Q116 291 116 249 Q116 152 149 103 Q182 54 248 54 Q286 54 319.5 76 Q353 98 373 124 L373 366 Z M187 682 Q191 654 209 636 Q227 618 259 618 Q293 618 310.5 638 Q328 658 330 682 L384 682 Q383 664 376 643.5 Q369 623 354.5 606.5 Q340 590 317 579 Q294 568 260 568 Q225 568 201 579 Q177 590 162 606.5 Q147 623 140.5 643.5 Q134 664 133 682 L187 682 Z " />
<glyph glyph-name="Gdotaccent" unicode="&#x120;" horiz-adv-x="594" d="M315 660 Q381 660 432 637.5 Q483 615 522 569 L468 517 Q403 589 314 589 Q266 589 229.5 569.5 Q193 550 168.5 514.5 Q144 479 131.5 430.5 Q119 382 119 325 Q119 266 131.5 217.5 Q144 169 169 133.5 Q194 98 231 78.5 Q268 59 317 59 Q364 59 396 74.5 Q428 90 448 115 Q468 140 477 170.5 Q486 201 486 230 L486 253 L376 253 L376 320 L563 320 L563 260 Q563 197 545.5 146.5 Q528 96 495.5 61.5 Q463 27 417.5 8.5 Q372 -10 315 -10 Q251 -10 200.5 13.5 Q150 37 114.5 81 Q79 125 60 186.5 Q41 248 41 325 Q41 404 61 466 Q81 528 117.5 571 Q154 614 204.5 637 Q255 660 315 660 Z M367 753 Q367 735 353.5 721.5 Q340 708 321 708 Q302 708 289 721.5 Q276 735 276 753 Q276 773 289 786.5 Q302 800 321 800 Q340 800 353.5 786.5 Q367 773 367 753 Z " />
<glyph glyph-name="gdotaccent" unicode="&#x121;" horiz-adv-x="500" d="M444 34 Q444 -54 398.5 -116.5 Q353 -179 247 -207 L224 -147 Q273 -131 302.5 -112 Q332 -93 348 -72 Q364 -51 369 -28.5 Q374 -6 374 15 L374 53 L372 53 Q331 17 297 5 Q263 -7 231 -7 Q195 -7 161.5 6 Q128 19 102.5 48.5 Q77 78 61.5 126 Q46 174 46 245 Q46 309 62.5 356 Q79 403 105.5 434.5 Q132 466 166 481.5 Q200 497 235 497 Q268 497 302.5 485.5 Q337 474 370 440 L372 440 L372 488 L444 488 L444 34 Z M373 366 Q352 393 319.5 415 Q287 437 246 437 Q218 437 194 423 Q170 409 153 384.5 Q136 360 126 325.5 Q116 291 116 249 Q116 152 149 103 Q182 54 248 54 Q286 54 319.5 76 Q353 98 373 124 L373 366 Z M320 626 Q320 608 306.5 594.5 Q293 581 274 581 Q255 581 242 594.5 Q229 608 229 626 Q229 646 242 659.5 Q255 673 274 673 Q293 673 306.5 659.5 Q320 646 320 626 Z " />
<glyph glyph-name="Gcommaaccent" unicode="&#x122;" horiz-adv-x="594" d="M315 660 Q381 660 432 637.5 Q483 615 522 569 L468 517 Q403 589 314 589 Q266 589 229.5 569.5 Q193 550 168.5 514.5 Q144 479 131.5 430.5 Q119 382 119 325 Q119 266 131.5 217.5 Q144 169 169 133.5 Q194 98 231 78.5 Q268 59 317 59 Q364 59 396 74.5 Q428 90 448 115 Q468 140 477 170.5 Q486 201 486 230 L486 253 L376 253 L376 320 L563 320 L563 260 Q563 197 545.5 146.5 Q528 96 495.5 61.5 Q463 27 417.5 8.5 Q372 -10 315 -10 Q251 -10 200.5 13.5 Q150 37 114.5 81 Q79 125 60 186.5 Q41 248 41 325 Q41 404 61 466 Q81 528 117.5 571 Q154 614 204.5 637 Q255 660 315 660 Z M267 -207 Q285 -194 295.5 -182.5 Q306 -171 307 -149 Q304 -150 298 -150 Q280 -150 267.5 -137 Q255 -124 255 -103 Q255 -80 269.5 -65.5 Q284 -51 305 -51 Q328 -51 344 -69.5 Q360 -88 360 -120 Q360 -163 339 -189.5 Q318 -216 286 -232 L267 -207 Z " />
<glyph glyph-name="gcommaaccent" unicode="&#x123;" horiz-adv-x="500" d="M444 34 Q444 -54 398.5 -116.5 Q353 -179 247 -207 L224 -147 Q273 -131 302.5 -112 Q332 -93 348 -72 Q364 -51 369 -28.5 Q374 -6 374 15 L374 53 L372 53 Q331 17 297 5 Q263 -7 231 -7 Q195 -7 161.5 6 Q128 19 102.5 48.5 Q77 78 61.5 126 Q46 174 46 245 Q46 309 62.5 356 Q79 403 105.5 434.5 Q132 466 166 481.5 Q200 497 235 497 Q268 497 302.5 485.5 Q337 474 370 440 L372 440 L372 488 L444 488 L444 34 Z M373 366 Q352 393 319.5 415 Q287 437 246 437 Q218 437 194 423 Q170 409 153 384.5 Q136 360 126 325.5 Q116 291 116 249 Q116 152 149 103 Q182 54 248 54 Q286 54 319.5 76 Q353 98 373 124 L373 366 Z M316 708 Q291 697 280.5 681 Q270 665 268 645 Q269 645 271 645.5 Q273 646 275 646 Q292 646 304.5 633.5 Q317 621 317 600 Q317 578 302 566 Q287 554 267 554 Q247 554 231.5 569.5 Q216 585 216 617 Q216 655 239 686.5 Q262 718 299 734 L316 708 Z " />
<glyph glyph-name="Hcircumflex" unicode="&#x124;" horiz-adv-x="622" d="M480 0 L480 305 L141 305 L141 0 L65 0 L65 651 L141 651 L141 375 L480 375 L480 651 L556 651 L556 0 L480 0 Z M311 765 L183 689 L154 712 L279 823 L347 823 L471 711 L443 688 L311 765 Z " />
<glyph glyph-name="hcircumflex" unicode="&#x125;" horiz-adv-x="487" d="M439 0 L367 0 L367 293 Q367 362 340 398.5 Q313 435 252 435 Q207 435 175 405.5 Q143 376 132 333 Q127 315 127 291 L127 0 L56 0 L56 660 L127 692 L127 420 L130 420 Q157 461 197 479 Q237 497 273 497 Q358 497 398.5 447.5 Q439 398 439 304 L439 0 Z M96 765 L-32 689 L-61 712 L64 823 L132 823 L256 711 L228 688 L96 765 Z " />
<glyph glyph-name="Itilde" unicode="&#x128;" horiz-adv-x="243" d="M83 0 L83 651 L160 651 L160 0 L83 0 Z M290 782 Q273 741 247.5 724 Q222 707 193 707 Q176 707 158.5 713 Q141 719 124 726.5 Q107 734 91 740.5 Q75 747 60 747 Q43 747 27.5 739 Q12 731 -5 708 L-38 724 Q-20 770 7.5 787 Q35 804 61 804 Q78 804 95 797.5 Q112 791 129.5 783 Q147 775 163.5 768.5 Q180 762 195 762 Q213 762 227 769.5 Q241 777 257 799 L290 782 Z " />
<glyph glyph-name="Imacron" unicode="&#x12a;" horiz-adv-x="243" d="M83 0 L83 651 L160 651 L160 0 L83 0 Z M2 724 L2 779 L244 779 L244 724 L2 724 Z " />
<glyph glyph-name="Ibreve" unicode="&#x12c;" horiz-adv-x="243" d="M83 0 L83 651 L160 651 L160 0 L83 0 Z M51 811 Q55 783 73 765 Q91 747 123 747 Q157 747 174.5 767 Q192 787 194 811 L248 811 Q247 793 240 772.5 Q233 752 218.5 735.5 Q204 719 181 708 Q158 697 124 697 Q89 697 65 708 Q41 719 26 735.5 Q11 752 4.5 772.5 Q-2 793 -3 811 L51 811 Z " />
<glyph glyph-name="ibreve" unicode="&#x12d;" horiz-adv-x="229" d="M45 682 Q49 654 67 636 Q85 618 117 618 Q151 618 168.5 638 Q186 658 188 682 L242 682 Q241 664 234 643.5 Q227 623 212.5 606.5 Q198 590 175 579 Q152 568 118 568 Q83 568 59 579 Q35 590 20 606.5 Q5 623 -1.5 643.5 Q-8 664 -9 682 L45 682 Z M80 0 L80 487 L152 487 L152 0 L80 0 Z " />
<glyph glyph-name="Iogonek" unicode="&#x12e;" horiz-adv-x="243" d="M143 0 Q117 -33 106.5 -57.5 Q96 -82 96 -101 Q96 -124 110.5 -136.5 Q125 -149 149 -149 Q171 -149 201 -136 L216 -174 Q197 -184 176.5 -189.5 Q156 -195 135 -195 Q96 -195 69 -173 Q42 -151 42 -113 Q42 -90 55 -62.5 Q68 -35 97 0 L83 0 L83 651 L160 651 L160 0 L143 0 Z " />
<glyph glyph-name="iogonek" unicode="&#x12f;" horiz-adv-x="229" d="M136 0 Q110 -33 99.5 -57.5 Q89 -82 89 -101 Q89 -124 103.5 -136.5 Q118 -149 142 -149 Q164 -149 194 -136 L209 -174 Q190 -184 169.5 -189.5 Q149 -195 128 -195 Q89 -195 62 -173 Q35 -151 35 -113 Q35 -90 48 -62.5 Q61 -35 90 0 L79 0 L79 488 L150 488 L150 0 L136 0 Z M160 619 Q160 601 146.5 587.5 Q133 574 115 574 Q96 574 82.5 587.5 Q69 601 69 619 Q69 638 82.5 651 Q96 664 114 664 Q133 664 146.5 651 Q160 638 160 619 Z " />
<glyph glyph-name="Idotaccent" unicode="&#x130;" horiz-adv-x="243" d="M83 0 L83 651 L160 651 L160 0 L83 0 Z M167 751 Q167 733 153.5 719.5 Q140 706 121 706 Q102 706 89 719.5 Q76 733 76 751 Q76 771 89 784.5 Q102 798 121 798 Q140 798 153.5 784.5 Q167 771 167 751 Z " />
<glyph glyph-name="dotlessi" unicode="&#x131;" horiz-adv-x="229" d="M80 0 L80 487 L152 487 L152 0 L80 0 Z " />
<glyph glyph-name="IJ" unicode="&#x132;" horiz-adv-x="734" d="M83 0 L83 651 L160 651 L160 0 L83 0 Z M661 254 Q661 120 605 55 Q549 -10 432 -10 Q342 -10 290 30 Q238 70 212 142 L284 169 Q305 117 339.5 89 Q374 61 434 61 Q518 61 551.5 113.5 Q585 166 585 262 L585 651 L661 651 L661 254 Z " />
<glyph glyph-name="ij" unicode="&#x133;" horiz-adv-x="418" d="M160 619 Q160 601 146.5 587.5 Q133 574 115 574 Q96 574 82.5 587.5 Q69 601 69 619 Q69 638 82.5 651 Q96 664 114 664 Q133 664 146.5 651 Q160 638 160 619 Z M79 0 L79 488 L150 488 L150 0 L79 0 Z M356 619 Q356 601 342.5 587.5 Q329 574 311 574 Q292 574 279 587.5 Q266 601 266 619 Q266 638 279 651 Q292 664 311 664 Q329 664 342.5 651 Q356 638 356 619 Z M345 -5 Q345 -50 339 -85 Q333 -120 315.5 -144 Q298 -168 265 -181 Q232 -194 178 -196 L172 -136 Q207 -130 227.5 -121 Q248 -112 258.5 -97.5 Q269 -83 271.5 -62.5 Q274 -42 274 -13 L274 488 L345 488 L345 -5 Z " />
<glyph glyph-name="Jcircumflex" unicode="&#x134;" horiz-adv-x="549" d="M476 255 Q476 121 420 56 Q364 -9 247 -9 Q157 -9 105 31 Q53 71 27 143 L99 170 Q120 118 154.5 90 Q189 62 249 62 Q333 62 366.5 114.5 Q400 167 400 263 L400 652 L476 652 L476 255 Z M436 765 L308 689 L279 712 L404 823 L472 823 L596 711 L568 688 L436 765 Z " />
<glyph glyph-name="jcircumflex" unicode="&#x135;" horiz-adv-x="297" d="M182 -5 Q182 -50 176 -85 Q170 -120 152 -144 Q134 -168 101.5 -181 Q69 -194 15 -196 L9 -135 Q44 -129 64.5 -120 Q85 -111 95.5 -96.5 Q106 -82 108.5 -61 Q111 -40 111 -11 L111 488 L182 488 L182 -5 Z M148 644 L20 554 L-10 577 L116 702 L183 702 L307 576 L280 553 L148 644 Z " />
<glyph glyph-name="kcommaaccent" unicode="&#x137;" horiz-adv-x="437" d="M345 0 L229 270 L126 139 L126 0 L56 0 L56 660 L126 692 L126 241 L128 241 Q134 248 144 262 Q154 276 164.5 290 Q175 304 184.5 316.5 Q194 329 198 335 L316 487 L403 487 L278 329 Q284 315 295.5 289 Q307 263 321 231 Q335 199 350.5 164 Q366 129 380 97 Q394 65 405.5 39 Q417 13 423 0 L345 0 Z M190 -207 Q208 -194 218.5 -182.5 Q229 -171 230 -149 Q227 -150 221 -150 Q203 -150 190.5 -137 Q178 -124 178 -103 Q178 -80 192.5 -65.5 Q207 -51 228 -51 Q251 -51 267 -69.5 Q283 -88 283 -120 Q283 -163 262 -189.5 Q241 -216 209 -232 L190 -207 Z " />
<glyph glyph-name="kgreenlandic" unicode="&#x138;" horiz-adv-x="445" d="M348 0 L229 268 L129 139 L129 0 L58 0 L58 487 L129 487 L129 239 L130 239 Q136 247 146.5 260.5 Q157 274 167.5 288 Q178 302 187 314 Q196 326 201 332 L321 487 L405 487 Q397 477 379.5 455 Q362 433 342.5 408.5 Q323 384 305.5 361.5 Q288 339 281 329 Q287 316 298.5 290 Q310 264 324 232 Q338 200 353.5 164.5 Q369 129 383 97 Q397 65 408.5 39 Q420 13 426 0 L348 0 Z " />
<glyph glyph-name="Lacute" unicode="&#x139;" horiz-adv-x="485" d="M65 0 L65 651 L141 651 L141 70 L478 70 L478 0 L65 0 Z M104 692 L79 724 L213 818 L275 762 L104 692 Z " />
<glyph glyph-name="lacute" unicode="&#x13a;" horiz-adv-x="205" d="M67 0 L67 660 L138 693 L138 0 L67 0 Z M107 698 L82 730 L216 824 L278 768 L107 698 Z " />
<glyph glyph-name="Lcommaaccent" unicode="&#x13b;" horiz-adv-x="485" d="M65 0 L65 651 L141 651 L141 70 L478 70 L478 0 L65 0 Z M225 -207 Q243 -194 253.5 -182.5 Q264 -171 265 -149 Q262 -150 256 -150 Q238 -150 225.5 -137 Q213 -124 213 -103 Q213 -80 227.5 -65.5 Q242 -51 263 -51 Q286 -51 302 -69.5 Q318 -88 318 -120 Q318 -163 297 -189.5 Q276 -216 244 -232 L225 -207 Z " />
<glyph glyph-name="lcommaaccent" unicode="&#x13c;" horiz-adv-x="205" d="M67 0 L67 660 L138 693 L138 0 L67 0 Z M67 -199 Q85 -186 95.5 -174.5 Q106 -163 107 -141 Q104 -142 98 -142 Q80 -142 67.5 -129 Q55 -116 55 -95 Q55 -72 69.5 -57.5 Q84 -43 105 -43 Q128 -43 144 -61.5 Q160 -80 160 -112 Q160 -155 139 -181.5 Q118 -208 86 -224 L67 -199 Z " />
<glyph glyph-name="Ldot" unicode="&#x13f;" horiz-adv-x="485" d="M65 0 L65 651 L141 651 L141 70 L478 70 L478 0 L65 0 Z M346 340 Q346 322 332.5 308.5 Q319 295 300 295 Q281 295 268 308.5 Q255 322 255 340 Q255 360 268 373.5 Q281 387 300 387 Q319 387 332.5 373.5 Q346 360 346 340 Z " />
<glyph glyph-name="ldot" unicode="&#x140;" horiz-adv-x="275" d="M278 352 Q278 334 264.5 320.5 Q251 307 232 307 Q213 307 200 320.5 Q187 334 187 352 Q187 372 200 385.5 Q213 399 232 399 Q251 399 264.5 385.5 Q278 372 278 352 Z M67 0 L67 660 L138 693 L138 0 L67 0 Z " />
<glyph glyph-name="Nacute" unicode="&#x143;" horiz-adv-x="610" d="M478 0 Q454 36 420.5 87.5 Q387 139 348.5 197.5 Q310 256 270.5 316.5 Q231 377 196 431 Q179 457 163.5 482 Q148 507 141 519 L139 519 L139 0 L64 0 L64 651 L138 651 Q196 562 253.5 475 Q311 388 369 300 Q381 282 394.5 261 Q408 240 421.5 218 Q435 196 447.5 175.5 Q460 155 471 139 L473 139 L473 651 L548 651 L548 0 L478 0 Z M291 692 L266 724 L400 818 L462 762 L291 692 Z " />
<glyph glyph-name="nacute" unicode="&#x144;" horiz-adv-x="487" d="M438 0 L366 0 L366 293 Q366 362 339 398.5 Q312 435 251 435 Q206 435 174 405.5 Q142 376 131 334 Q126 314 126 291 L126 0 L55 0 L55 488 L126 488 L126 419 L128 418 Q155 460 195 478.5 Q235 497 272 497 Q357 497 397.5 447.5 Q438 398 438 304 L438 0 Z M234 556 L196 569 L266 730 L348 715 L234 556 Z " />
<glyph glyph-name="Ncommaaccent" unicode="&#x145;" horiz-adv-x="610" d="M478 0 Q454 36 420.5 87.5 Q387 139 348.5 197.5 Q310 256 270.5 316.5 Q231 377 196 431 Q179 457 163.5 482 Q148 507 141 519 L139 519 L139 0 L64 0 L64 651 L138 651 Q196 562 253.5 475 Q311 388 369 300 Q381 282 394.5 261 Q408 240 421.5 218 Q435 196 447.5 175.5 Q460 155 471 139 L473 139 L473 651 L548 651 L548 0 L478 0 Z M260 -177 Q278 -164 288.5 -152.5 Q299 -141 300 -119 Q297 -120 291 -120 Q273 -120 260.5 -107 Q248 -94 248 -73 Q248 -50 262.5 -35.5 Q277 -21 298 -21 Q321 -21 337 -39.5 Q353 -58 353 -90 Q353 -133 332 -159.5 Q311 -186 279 -202 L260 -177 Z " />
<glyph glyph-name="ncommaaccent" unicode="&#x146;" horiz-adv-x="487" d="M438 0 L366 0 L366 293 Q366 362 339 398.5 Q312 435 251 435 Q206 435 174 405.5 Q142 376 131 334 Q126 314 126 291 L126 0 L55 0 L55 488 L126 488 L126 419 L128 418 Q155 460 195 478.5 Q235 497 272 497 Q357 497 397.5 447.5 Q438 398 438 304 L438 0 Z M205 -207 Q223 -194 233.5 -182.5 Q244 -171 245 -149 Q242 -150 236 -150 Q218 -150 205.5 -137 Q193 -124 193 -103 Q193 -80 207.5 -65.5 Q222 -51 243 -51 Q266 -51 282 -69.5 Q298 -88 298 -120 Q298 -163 277 -189.5 Q256 -216 224 -232 L205 -207 Z " />
<glyph glyph-name="Ncaron" unicode="&#x147;" horiz-adv-x="610" d="M478 0 Q454 36 420.5 87.5 Q387 139 348.5 197.5 Q310 256 270.5 316.5 Q231 377 196 431 Q179 457 163.5 482 Q148 507 141 519 L139 519 L139 0 L64 0 L64 651 L138 651 Q196 562 253.5 475 Q311 388 369 300 Q381 282 394.5 261 Q408 240 421.5 218 Q435 196 447.5 175.5 Q460 155 471 139 L473 139 L473 651 L548 651 L548 0 L478 0 Z M437 828 L465 805 L340 692 L273 692 L148 804 L177 827 L305 750 L437 828 Z " />
<glyph glyph-name="ncaron" unicode="&#x148;" horiz-adv-x="487" d="M438 0 L366 0 L366 293 Q366 362 339 398.5 Q312 435 251 435 Q206 435 174 405.5 Q142 376 131 334 Q126 314 126 291 L126 0 L55 0 L55 488 L126 488 L126 419 L128 418 Q155 460 195 478.5 Q235 497 272 497 Q357 497 397.5 447.5 Q438 398 438 304 L438 0 Z M368 705 L396 683 L272 556 L204 556 L79 682 L108 704 L236 614 L368 705 Z " />
<glyph glyph-name="napostrophe" unicode="&#x149;" horiz-adv-x="532" d="M483 0 L411 0 L411 293 Q411 362 384 398.5 Q357 435 296 435 Q251 435 219 405.5 Q187 376 176 334 Q171 314 171 291 L171 0 L100 0 L100 488 L171 488 L171 419 L173 418 Q200 460 240 478.5 Q280 497 317 497 Q402 497 442.5 447.5 Q483 398 483 304 L483 0 Z M6 512 Q24 525 34.5 536.5 Q45 548 46 570 Q43 569 37 569 Q19 569 6.5 582 Q-6 595 -6 616 Q-6 639 8.5 653.5 Q23 668 44 668 Q67 668 83 649.5 Q99 631 99 599 Q99 556 78 529.5 Q57 503 25 487 L6 512 Z " />
<glyph glyph-name="Omacron" unicode="&#x14c;" horiz-adv-x="635" d="M589 326 Q589 250 569.5 188 Q550 126 514.5 82 Q479 38 429 14 Q379 -10 317 -10 Q252 -10 202 15 Q152 40 117 84.5 Q82 129 64 190.5 Q46 252 46 325 Q46 397 64.5 458.5 Q83 520 117.5 565 Q152 610 202.5 635.5 Q253 661 317 661 Q379 661 429 637 Q479 613 514.5 568.5 Q550 524 569.5 462.5 Q589 401 589 326 Z M511 325 Q511 382 499 431 Q487 480 462.5 516 Q438 552 401.5 572 Q365 592 317 592 Q269 592 232.5 572 Q196 552 172 516.5 Q148 481 135.5 432.5 Q123 384 123 326 Q123 271 135 222.5 Q147 174 171.5 137.5 Q196 101 232.5 80 Q269 59 317 59 Q366 59 402.5 80.5 Q439 102 463 138 Q487 174 499 222.5 Q511 271 511 325 Z M193 730 L193 785 L435 785 L435 730 L193 730 Z " />
<glyph glyph-name="Obreve" unicode="&#x14e;" horiz-adv-x="635" d="M589 326 Q589 250 569.5 188 Q550 126 514.5 82 Q479 38 429 14 Q379 -10 317 -10 Q252 -10 202 15 Q152 40 117 84.5 Q82 129 64 190.5 Q46 252 46 325 Q46 397 64.5 458.5 Q83 520 117.5 565 Q152 610 202.5 635.5 Q253 661 317 661 Q379 661 429 637 Q479 613 514.5 568.5 Q550 524 569.5 462.5 Q589 401 589 326 Z M511 325 Q511 382 499 431 Q487 480 462.5 516 Q438 552 401.5 572 Q365 592 317 592 Q269 592 232.5 572 Q196 552 172 516.5 Q148 481 135.5 432.5 Q123 384 123 326 Q123 271 135 222.5 Q147 174 171.5 137.5 Q196 101 232.5 80 Q269 59 317 59 Q366 59 402.5 80.5 Q439 102 463 138 Q487 174 499 222.5 Q511 271 511 325 Z M248 812 Q252 784 270 766 Q288 748 320 748 Q354 748 371.5 768 Q389 788 391 812 L445 812 Q444 794 437 773.5 Q430 753 415.5 736.5 Q401 720 378 709 Q355 698 321 698 Q286 698 262 709 Q238 720 223 736.5 Q208 753 201.5 773.5 Q195 794 194 812 L248 812 Z " />
<glyph glyph-name="Ohungarumlaut" unicode="&#x150;" horiz-adv-x="635" d="M589 326 Q589 250 569.5 188 Q550 126 514.5 82 Q479 38 429 14 Q379 -10 317 -10 Q252 -10 202 15 Q152 40 117 84.5 Q82 129 64 190.5 Q46 252 46 325 Q46 397 64.5 458.5 Q83 520 117.5 565 Q152 610 202.5 635.5 Q253 661 317 661 Q379 661 429 637 Q479 613 514.5 568.5 Q550 524 569.5 462.5 Q589 401 589 326 Z M511 325 Q511 382 499 431 Q487 480 462.5 516 Q438 552 401.5 572 Q365 592 317 592 Q269 592 232.5 572 Q196 552 172 516.5 Q148 481 135.5 432.5 Q123 384 123 326 Q123 271 135 222.5 Q147 174 171.5 137.5 Q196 101 232.5 80 Q269 59 317 59 Q366 59 402.5 80.5 Q439 102 463 138 Q487 174 499 222.5 Q511 271 511 325 Z M384 691 L355 718 L475 829 L544 784 L384 691 Z M237 691 L208 718 L328 829 L398 784 L237 691 Z " />
<glyph glyph-name="Racute" unicode="&#x154;" horiz-adv-x="583" d="M447 0 L329 257 L139 257 L139 0 L65 0 L65 651 L333 651 Q378 651 416.5 639 Q455 627 482.5 603 Q510 579 525.5 542.5 Q541 506 541 456 Q541 381 505 333 Q469 285 404 267 L534 0 L447 0 Z M465 454 Q465 517 428 550 Q391 583 331 583 L139 583 L139 324 L331 324 Q395 324 430 358.5 Q465 393 465 454 Z M241 692 L216 724 L350 818 L412 762 L241 692 Z " />
<glyph glyph-name="racute" unicode="&#x155;" horiz-adv-x="349" d="M328 416 Q311 419 296 421 Q281 423 267 423 Q205 423 173.5 387 Q142 351 142 285 L142 0 L71 0 L71 488 L142 488 L142 421 L144 420 Q164 461 200.5 479 Q237 497 278 497 Q309 497 344 486 L328 416 Z M170 556 L132 569 L202 730 L284 715 L170 556 Z " />
<glyph glyph-name="Rcommaaccent" unicode="&#x156;" horiz-adv-x="583" d="M447 0 L329 257 L139 257 L139 0 L65 0 L65 651 L333 651 Q378 651 416.5 639 Q455 627 482.5 603 Q510 579 525.5 542.5 Q541 506 541 456 Q541 381 505 333 Q469 285 404 267 L534 0 L447 0 Z M465 454 Q465 517 428 550 Q391 583 331 583 L139 583 L139 324 L331 324 Q395 324 430 358.5 Q465 393 465 454 Z M241 -175 Q259 -162 269.5 -150.5 Q280 -139 281 -117 Q278 -118 272 -118 Q254 -118 241.5 -105 Q229 -92 229 -71 Q229 -48 243.5 -33.5 Q258 -19 279 -19 Q302 -19 318 -37.5 Q334 -56 334 -88 Q334 -131 313 -157.5 Q292 -184 260 -200 L241 -175 Z " />
<glyph glyph-name="rcommaaccent" unicode="&#x157;" horiz-adv-x="349" d="M328 416 Q311 419 296 421 Q281 423 267 423 Q205 423 173.5 387 Q142 351 142 285 L142 0 L71 0 L71 488 L142 488 L142 421 L144 420 Q164 461 200.5 479 Q237 497 278 497 Q309 497 344 486 L328 416 Z M65 -207 Q83 -194 93.5 -182.5 Q104 -171 105 -149 Q102 -150 96 -150 Q78 -150 65.5 -137 Q53 -124 53 -103 Q53 -80 67.5 -65.5 Q82 -51 103 -51 Q126 -51 142 -69.5 Q158 -88 158 -120 Q158 -163 137 -189.5 Q116 -216 84 -232 L65 -207 Z " />
<glyph glyph-name="Rcaron" unicode="&#x158;" horiz-adv-x="583" d="M447 0 L329 257 L139 257 L139 0 L65 0 L65 651 L333 651 Q378 651 416.5 639 Q455 627 482.5 603 Q510 579 525.5 542.5 Q541 506 541 456 Q541 381 505 333 Q469 285 404 267 L534 0 L447 0 Z M465 454 Q465 517 428 550 Q391 583 331 583 L139 583 L139 324 L331 324 Q395 324 430 358.5 Q465 393 465 454 Z M407 828 L435 805 L310 692 L243 692 L118 804 L147 827 L275 750 L407 828 Z " />
<glyph glyph-name="rcaron" unicode="&#x159;" horiz-adv-x="349" d="M328 416 Q311 419 296 421 Q281 423 267 423 Q205 423 173.5 387 Q142 351 142 285 L142 0 L71 0 L71 488 L142 488 L142 421 L144 420 Q164 461 200.5 479 Q237 497 278 497 Q309 497 344 486 L328 416 Z M302 705 L330 683 L206 556 L138 556 L13 682 L42 704 L170 614 L302 705 Z " />
<glyph glyph-name="Sacute" unicode="&#x15a;" horiz-adv-x="534" d="M508 173 Q508 89 448.5 39.5 Q389 -10 269 -10 Q203 -10 146.5 13 Q90 36 48 75 L98 130 Q135 97 180.5 78 Q226 59 274 59 Q345 59 387.5 84.5 Q430 110 430 171 Q430 199 417.5 219 Q405 239 383 253.5 Q361 268 331 278.5 Q301 289 267 300 Q220 315 183 330 Q146 345 120 365.5 Q94 386 80 415 Q66 444 66 486 Q66 525 82 557.5 Q98 590 126.5 613 Q155 636 194.5 648.5 Q234 661 280 661 Q340 661 391 643 Q442 625 484 591 Q482 588 475 580 Q468 572 460.5 563 Q453 554 446 546 Q439 538 437 536 Q401 565 361 578.5 Q321 592 272 592 Q209 592 175.5 563 Q142 534 142 490 Q142 466 153 448.5 Q164 431 181.5 419 Q199 407 221.5 398 Q244 389 267 381 Q304 369 346 355.5 Q388 342 424 319.5 Q460 297 484 262.5 Q508 228 508 173 Z M254 692 L229 724 L363 818 L425 762 L254 692 Z " />
<glyph glyph-name="sacute" unicode="&#x15b;" horiz-adv-x="438" d="M399 129 Q399 95 384.5 69 Q370 43 345 25.5 Q320 8 286 -1 Q252 -10 213 -10 Q168 -10 122 2 Q76 14 38 36 L65 91 Q103 71 142 60.5 Q181 50 215 50 Q235 50 255.5 54 Q276 58 292.5 67 Q309 76 319 90 Q329 104 329 124 Q329 145 319.5 159.5 Q310 174 293.5 185 Q277 196 254.5 204.5 Q232 213 205 222 Q171 232 142.5 245 Q114 258 93 275 Q72 292 60.5 314 Q49 336 49 365 Q49 394 61.5 418.5 Q74 443 97 460.5 Q120 478 152.5 487.5 Q185 497 226 497 Q309 497 380 461 L356 404 Q320 423 285 429.5 Q250 436 225 436 Q177 436 147.5 416.5 Q118 397 118 370 Q118 344 140.5 323.5 Q163 303 225 285 Q262 274 293.5 261 Q325 248 348.5 230 Q372 212 385.5 187.5 Q399 163 399 129 Z M216 556 L178 569 L248 730 L330 715 L216 556 Z " />
<glyph glyph-name="Scircumflex" unicode="&#x15c;" horiz-adv-x="534" d="M508 173 Q508 89 448.5 39.5 Q389 -10 269 -10 Q203 -10 146.5 13 Q90 36 48 75 L98 130 Q135 97 180.5 78 Q226 59 274 59 Q345 59 387.5 84.5 Q430 110 430 171 Q430 199 417.5 219 Q405 239 383 253.5 Q361 268 331 278.5 Q301 289 267 300 Q220 315 183 330 Q146 345 120 365.5 Q94 386 80 415 Q66 444 66 486 Q66 525 82 557.5 Q98 590 126.5 613 Q155 636 194.5 648.5 Q234 661 280 661 Q340 661 391 643 Q442 625 484 591 Q482 588 475 580 Q468 572 460.5 563 Q453 554 446 546 Q439 538 437 536 Q401 565 361 578.5 Q321 592 272 592 Q209 592 175.5 563 Q142 534 142 490 Q142 466 153 448.5 Q164 431 181.5 419 Q199 407 221.5 398 Q244 389 267 381 Q304 369 346 355.5 Q388 342 424 319.5 Q460 297 484 262.5 Q508 228 508 173 Z M271 765 L143 689 L114 712 L239 823 L307 823 L431 711 L403 688 L271 765 Z " />
<glyph glyph-name="scircumflex" unicode="&#x15d;" horiz-adv-x="438" d="M399 129 Q399 95 384.5 69 Q370 43 345 25.5 Q320 8 286 -1 Q252 -10 213 -10 Q168 -10 122 2 Q76 14 38 36 L65 91 Q103 71 142 60.5 Q181 50 215 50 Q235 50 255.5 54 Q276 58 292.5 67 Q309 76 319 90 Q329 104 329 124 Q329 145 319.5 159.5 Q310 174 293.5 185 Q277 196 254.5 204.5 Q232 213 205 222 Q171 232 142.5 245 Q114 258 93 275 Q72 292 60.5 314 Q49 336 49 365 Q49 394 61.5 418.5 Q74 443 97 460.5 Q120 478 152.5 487.5 Q185 497 226 497 Q309 497 380 461 L356 404 Q320 423 285 429.5 Q250 436 225 436 Q177 436 147.5 416.5 Q118 397 118 370 Q118 344 140.5 323.5 Q163 303 225 285 Q262 274 293.5 261 Q325 248 348.5 230 Q372 212 385.5 187.5 Q399 163 399 129 Z M214 644 L85 554 L57 577 L182 702 L250 702 L374 576 L346 553 L214 644 Z " />
<glyph glyph-name="Scedilla" unicode="&#x15e;" horiz-adv-x="534" d="M268 -204 Q252 -204 232 -200.5 Q212 -197 189 -187 L202 -151 Q237 -164 266 -164 Q289 -164 302.5 -154 Q316 -144 316 -126 Q316 -105 300.5 -94 Q285 -83 263 -83 Q261 -83 258.5 -83.5 Q256 -84 254 -84 L234 -63 L251 -9 Q190 -6 138 16 Q86 38 48 75 L98 130 Q135 97 180.5 78 Q226 59 274 59 Q345 59 387.5 84.5 Q430 110 430 171 Q430 199 417.5 219 Q405 239 383 253.5 Q361 268 331 278.5 Q301 289 267 300 Q220 315 183 330 Q146 345 120 365.5 Q94 386 80 415 Q66 444 66 486 Q66 525 82 557.5 Q98 590 126.5 613 Q155 636 194.5 648.5 Q234 661 280 661 Q340 661 391 643 Q442 625 484 591 Q482 588 475 580 Q468 572 460.5 563 Q453 554 446 546 Q439 538 437 536 Q401 565 361 578.5 Q321 592 272 592 Q209 592 175.5 563 Q142 534 142 490 Q142 466 153 448.5 Q164 431 181.5 419 Q199 407 221.5 398 Q244 389 267 381 Q304 369 346 355.5 Q388 342 424 319.5 Q460 297 484 262.5 Q508 228 508 173 Q508 92 453.5 44 Q399 -4 289 -9 Q286 -18 283 -26.5 Q280 -35 278 -44 Q306 -47 324 -55.5 Q342 -64 352.5 -75.5 Q363 -87 367 -100 Q371 -113 371 -124 Q371 -137 365.5 -151 Q360 -165 348 -177 Q336 -189 316.5 -196.5 Q297 -204 268 -204 Z " />
<glyph glyph-name="scedilla" unicode="&#x15f;" horiz-adv-x="438" d="M208 -204 Q192 -204 172 -200.5 Q152 -197 129 -187 L142 -151 Q177 -164 206 -164 Q229 -164 242.5 -154 Q256 -144 256 -126 Q256 -105 240.5 -94 Q225 -83 203 -83 Q201 -83 198.5 -83.5 Q196 -84 194 -84 L174 -63 L191 -9 Q151 -7 111.5 4.5 Q72 16 38 36 L65 91 Q103 71 142 60.5 Q181 50 215 50 Q235 50 255.5 54 Q276 58 292.5 67 Q309 76 319 90 Q329 104 329 124 Q329 145 319.5 159.5 Q310 174 293.5 185 Q277 196 254.5 204.5 Q232 213 205 222 Q171 232 142.5 245 Q114 258 93 275 Q72 292 60.5 314 Q49 336 49 365 Q49 394 61.5 418.5 Q74 443 97 460.5 Q120 478 152.5 487.5 Q185 497 226 497 Q309 497 380 461 L356 404 Q320 423 285 429.5 Q250 436 225 436 Q177 436 147.5 416.5 Q118 397 118 370 Q118 344 140.5 323.5 Q163 303 225 285 Q262 274 293.5 261 Q325 248 348.5 230 Q372 212 385.5 187.5 Q399 163 399 129 Q399 96 386 71 Q373 46 350 29 Q327 12 296 2 Q265 -8 229 -9 Q226 -18 223 -26.5 Q220 -35 218 -44 Q246 -47 264 -55.5 Q282 -64 292.5 -75.5 Q303 -87 307 -100 Q311 -113 311 -124 Q311 -137 305.5 -151 Q300 -165 288 -177 Q276 -189 256.5 -196.5 Q237 -204 208 -204 Z " />
<glyph glyph-name="Tcommaaccent" unicode="&#x162;" horiz-adv-x="502" d="M248 -204 Q232 -204 212 -200.5 Q192 -197 169 -187 L182 -151 Q217 -164 246 -164 Q269 -164 282.5 -154 Q296 -144 296 -126 Q296 -105 280.5 -94 Q265 -83 243 -83 Q241 -83 238.5 -83.5 Q236 -84 234 -84 L214 -63 L235 0 L217 0 L217 582 L19 582 L19 651 L490 651 L490 582 L291 582 L291 0 L272 0 Q268 -11 264.5 -22 Q261 -33 258 -44 Q286 -47 304 -55.5 Q322 -64 332.5 -75.5 Q343 -87 347 -100 Q351 -113 351 -124 Q351 -137 345.5 -151 Q340 -165 328 -177 Q316 -189 296.5 -196.5 Q277 -204 248 -204 Z " />
<glyph glyph-name="tcommaaccent" unicode="&#x163;" horiz-adv-x="313" d="M145 -204 Q129 -204 109 -200.5 Q89 -197 66 -187 L79 -151 Q114 -164 143 -164 Q166 -164 179.5 -154 Q193 -144 193 -126 Q193 -105 177.5 -94 Q162 -83 140 -83 Q138 -83 135.5 -83.5 Q133 -84 131 -84 L111 -63 L135 12 Q101 39 101 105 L101 428 L27 428 L27 488 L102 488 L102 606 L169 636 L169 488 L271 488 L271 428 L169 428 L169 115 Q169 82 182 69.5 Q195 57 223 57 Q237 57 252 59 Q267 61 287 64 Q287 62 288 54 Q289 46 290 37 Q291 28 292 20 Q293 12 293 10 Q277 3 251 -2 Q225 -7 203 -7 Q193 -7 184.5 -6 Q176 -5 168 -3 Q164 -13 161 -23 Q158 -33 155 -44 Q183 -47 201 -55.5 Q219 -64 229.5 -75.5 Q240 -87 244 -100 Q248 -113 248 -124 Q248 -137 242.5 -151 Q237 -165 225 -177 Q213 -189 193.5 -196.5 Q174 -204 145 -204 Z " />
<glyph glyph-name="Tcaron" unicode="&#x164;" horiz-adv-x="502" d="M291 582 L291 0 L217 0 L217 582 L19 582 L19 651 L490 651 L490 582 L291 582 Z M386 828 L414 805 L289 692 L222 692 L97 804 L126 827 L254 750 L386 828 Z " />
<glyph glyph-name="Utilde" unicode="&#x168;" horiz-adv-x="616" d="M556 270 Q556 128 491 59 Q426 -10 308 -10 Q192 -10 129 60.5 Q66 131 66 271 L66 651 L141 651 L141 274 Q141 176 183 118.5 Q225 61 310 61 Q398 61 439 116.5 Q480 172 480 268 L480 651 L556 651 L556 270 Z M479 782 Q462 741 436.5 724 Q411 707 382 707 Q365 707 347.5 713 Q330 719 313 726.5 Q296 734 280 740.5 Q264 747 249 747 Q232 747 216.5 739 Q201 731 184 708 L151 724 Q169 770 196.5 787 Q224 804 250 804 Q267 804 284 797.5 Q301 791 318.5 783 Q336 775 352.5 768.5 Q369 762 384 762 Q402 762 416 769.5 Q430 777 446 799 L479 782 Z " />
<glyph glyph-name="utilde" unicode="&#x169;" horiz-adv-x="486" d="M52 488 L123 488 L123 194 Q123 122 149 87 Q175 52 236 52 Q281 52 311.5 80.5 Q342 109 353 151 Q359 172 359 197 L359 488 L430 488 L430 0 L359 0 L359 68 L356 68 Q329 26 290.5 8 Q252 -10 216 -10 Q52 -10 52 177 L52 488 Z M415 652 Q398 611 372.5 594 Q347 577 318 577 Q301 577 283.5 583 Q266 589 249 596.5 Q232 604 216 610.5 Q200 617 185 617 Q168 617 152.5 609 Q137 601 120 578 L87 594 Q105 640 132.5 657 Q160 674 186 674 Q203 674 220 667.5 Q237 661 254.5 653 Q272 645 288.5 638.5 Q305 632 320 632 Q338 632 352 639.5 Q366 647 382 669 L415 652 Z " />
<glyph glyph-name="Umacron" unicode="&#x16a;" horiz-adv-x="616" d="M556 270 Q556 128 491 59 Q426 -10 308 -10 Q192 -10 129 60.5 Q66 131 66 271 L66 651 L141 651 L141 274 Q141 176 183 118.5 Q225 61 310 61 Q398 61 439 116.5 Q480 172 480 268 L480 651 L556 651 L556 270 Z M189 725 L189 780 L431 780 L431 725 L189 725 Z " />
<glyph glyph-name="umacron" unicode="&#x16b;" horiz-adv-x="486" d="M52 488 L123 488 L123 194 Q123 122 149 87 Q175 52 236 52 Q281 52 311.5 80.5 Q342 109 353 151 Q359 172 359 197 L359 488 L430 488 L430 0 L359 0 L359 68 L356 68 Q329 26 290.5 8 Q252 -10 216 -10 Q52 -10 52 177 L52 488 Z M130 605 L130 660 L372 660 L372 605 L130 605 Z " />
<glyph glyph-name="Ubreve" unicode="&#x16c;" horiz-adv-x="616" d="M556 270 Q556 128 491 59 Q426 -10 308 -10 Q192 -10 129 60.5 Q66 131 66 271 L66 651 L141 651 L141 274 Q141 176 183 118.5 Q225 61 310 61 Q398 61 439 116.5 Q480 172 480 268 L480 651 L556 651 L556 270 Z M242 812 Q246 784 264 766 Q282 748 314 748 Q348 748 365.5 768 Q383 788 385 812 L439 812 Q438 794 431 773.5 Q424 753 409.5 736.5 Q395 720 372 709 Q349 698 315 698 Q280 698 256 709 Q232 720 217 736.5 Q202 753 195.5 773.5 Q189 794 188 812 L242 812 Z " />
<glyph glyph-name="ubreve" unicode="&#x16d;" horiz-adv-x="486" d="M52 488 L123 488 L123 194 Q123 122 149 87 Q175 52 236 52 Q281 52 311.5 80.5 Q342 109 353 151 Q359 172 359 197 L359 488 L430 488 L430 0 L359 0 L359 68 L356 68 Q329 26 290.5 8 Q252 -10 216 -10 Q52 -10 52 177 L52 488 Z M178 682 Q182 654 200 636 Q218 618 250 618 Q284 618 301.5 638 Q319 658 321 682 L375 682 Q374 664 367 643.5 Q360 623 345.5 606.5 Q331 590 308 579 Q285 568 251 568 Q216 568 192 579 Q168 590 153 606.5 Q138 623 131.5 643.5 Q125 664 124 682 L178 682 Z " />
<glyph glyph-name="Uring" unicode="&#x16e;" horiz-adv-x="616" d="M556 270 Q556 128 491 59 Q426 -10 308 -10 Q192 -10 129 60.5 Q66 131 66 271 L66 651 L141 651 L141 274 Q141 176 183 118.5 Q225 61 310 61 Q398 61 439 116.5 Q480 172 480 268 L480 651 L556 651 L556 270 Z M407 746 Q407 707 381 681.5 Q355 656 317 656 Q279 656 253.5 681 Q228 706 228 746 Q228 784 253.5 809 Q279 834 317 834 Q355 834 381 809 Q407 784 407 746 Z M367 746 Q367 767 352.5 781 Q338 795 317 795 Q296 795 281.5 780.5 Q267 766 267 746 Q267 724 281.5 709 Q296 694 317 694 Q338 694 352.5 709 Q367 724 367 746 Z " />
<glyph glyph-name="uring" unicode="&#x16f;" horiz-adv-x="486" d="M52 488 L123 488 L123 194 Q123 122 149 87 Q175 52 236 52 Q281 52 311.5 80.5 Q342 109 353 151 Q359 172 359 197 L359 488 L430 488 L430 0 L359 0 L359 68 L356 68 Q329 26 290.5 8 Q252 -10 216 -10 Q52 -10 52 177 L52 488 Z M341 637 Q341 598 315 572.5 Q289 547 251 547 Q213 547 187.5 572 Q162 597 162 637 Q162 675 187.5 700 Q213 725 251 725 Q289 725 315 700 Q341 675 341 637 Z M301 637 Q301 658 286.5 672 Q272 686 251 686 Q230 686 215.5 671.5 Q201 657 201 637 Q201 615 215.5 600 Q230 585 251 585 Q272 585 286.5 600 Q301 615 301 637 Z " />
<glyph glyph-name="Uhungarumlaut" unicode="&#x170;" horiz-adv-x="616" d="M556 270 Q556 128 491 59 Q426 -10 308 -10 Q192 -10 129 60.5 Q66 131 66 271 L66 651 L141 651 L141 274 Q141 176 183 118.5 Q225 61 310 61 Q398 61 439 116.5 Q480 172 480 268 L480 651 L556 651 L556 270 Z M372 691 L343 718 L463 829 L532 784 L372 691 Z M225 691 L196 718 L316 829 L386 784 L225 691 Z " />
<glyph glyph-name="uhungarumlaut" unicode="&#x171;" horiz-adv-x="486" d="M52 488 L123 488 L123 194 Q123 122 149 87 Q175 52 236 52 Q281 52 311.5 80.5 Q342 109 353 151 Q359 172 359 197 L359 488 L430 488 L430 0 L359 0 L359 68 L356 68 Q329 26 290.5 8 Q252 -10 216 -10 Q52 -10 52 177 L52 488 Z M205 556 L167 570 L231 721 L313 706 L205 556 Z M315 556 L278 570 L341 721 L424 706 L315 556 Z " />
<glyph glyph-name="Uogonek" unicode="&#x172;" horiz-adv-x="616" d="M556 270 Q556 138 500.5 69.5 Q445 1 343 -8 Q321 -37 312 -60 Q303 -83 303 -100 Q303 -123 317.5 -135.5 Q332 -148 356 -148 Q378 -148 408 -135 L423 -173 Q404 -183 383.5 -188.5 Q363 -194 342 -194 Q303 -194 276 -172 Q249 -150 249 -112 Q249 -91 260 -66.5 Q271 -42 296 -10 Q185 -6 125.5 64 Q66 134 66 271 L66 651 L141 651 L141 274 Q141 176 183 118.5 Q225 61 310 61 Q398 61 439 116.5 Q480 172 480 268 L480 651 L556 651 L556 270 Z " />
<glyph glyph-name="uogonek" unicode="&#x173;" horiz-adv-x="486" d="M52 488 L123 488 L123 194 Q123 122 149 87 Q175 52 236 52 Q281 52 311.5 80.5 Q342 109 353 151 Q359 172 359 197 L359 488 L430 488 L430 0 L412 0 Q387 -32 376.5 -56.5 Q366 -81 366 -100 Q366 -123 380.5 -135.5 Q395 -148 419 -148 Q441 -148 471 -135 L486 -173 Q467 -183 446.5 -188.5 Q426 -194 405 -194 Q366 -194 339 -172 Q312 -150 312 -112 Q312 -67 367 0 L359 0 L359 68 L356 68 Q329 26 290.5 8 Q252 -10 216 -10 Q52 -10 52 177 L52 488 Z " />
<glyph glyph-name="Wcircumflex" unicode="&#x174;" horiz-adv-x="753" d="M378 518 L342 369 Q338 354 331 325 Q324 296 315 260 Q306 224 296.5 184.5 Q287 145 278.5 109 Q270 73 263 44 Q256 15 252 0 L165 0 L26 651 L103 651 Q106 636 112 606 Q118 576 125.5 539.5 Q133 503 140.5 463 Q148 423 155.5 386.5 Q163 350 169 320.5 Q175 291 178 276 L210 114 L212 114 L251 275 Q255 290 262.5 320 Q270 350 278.5 386.5 Q287 423 297 463 Q307 503 315.5 539.5 Q324 576 331.5 605.5 Q339 635 343 651 L416 651 Q420 636 427.5 606 Q435 576 444 539 Q453 502 463 461 Q473 420 482 383 Q491 346 498.5 316 Q506 286 510 271 L547 114 L548 114 Q551 127 555.5 148.5 Q560 170 564.5 193 Q569 216 573 237 Q577 258 580 271 L657 651 L731 651 Q725 624 714.5 573 Q704 522 690.5 458.5 Q677 395 662 325.5 Q647 256 633.5 192.5 Q620 129 609 78 Q598 27 592 0 L504 0 Q500 15 493 44 Q486 73 477.5 108.5 Q469 144 460 183.5 Q451 223 442.5 258.5 Q434 294 427 323 Q420 352 416 367 Q415 371 410 393.5 Q405 416 398.5 442.5 Q392 469 386.5 491.5 Q381 514 380 518 L378 518 Z M379 765 L251 689 L222 712 L347 823 L415 823 L539 711 L511 688 L379 765 Z " />
<glyph glyph-name="wcircumflex" unicode="&#x175;" horiz-adv-x="623" d="M407 0 L327 303 L308 381 L306 381 Q300 355 293 329.5 Q286 304 279 278 L205 0 L142 0 L12 488 L84 488 L143 248 L174 109 L177 109 L213 250 L276 488 L341 488 L407 239 L438 109 L441 109 L472 240 L534 488 L606 488 Q572 365 539 244 Q506 123 473 0 L407 0 Z M305 644 L176 554 L148 577 L273 702 L341 702 L465 576 L437 553 L305 644 Z " />
<glyph glyph-name="Ycircumflex" unicode="&#x176;" horiz-adv-x="560" d="M317 231 L317 0 L242 0 L242 231 L8 651 L94 651 L280 300 L467 651 L551 651 L317 231 Z M289 765 L161 689 L132 712 L257 823 L325 823 L449 711 L421 688 L289 765 Z " />
<glyph glyph-name="ycircumflex" unicode="&#x177;" horiz-adv-x="463" d="M135 -187 L198 -7 L15 488 L90 488 L180 230 L229 83 L232 83 Q245 120 257.5 156.5 Q270 193 282 230 Q290 252 302.5 286.5 Q315 321 328.5 358.5 Q342 396 354 431 Q366 466 374 488 L446 488 Q385 320 323.5 150 Q262 -20 201 -187 L135 -187 Z M238 644 L109 554 L81 577 L206 702 L274 702 L398 576 L370 553 L238 644 Z " />
<glyph glyph-name="Zacute" unicode="&#x179;" horiz-adv-x="553" d="M523 582 L126 69 L521 69 L521 0 L37 0 L37 68 L435 582 L56 582 L56 651 L523 651 L523 582 Z M264 692 L239 724 L373 818 L435 762 L264 692 Z " />
<glyph glyph-name="zacute" unicode="&#x17a;" horiz-adv-x="450" d="M126 61 L406 61 L406 0 L39 0 L39 58 Q51 75 73 104 Q95 133 122.5 168 Q150 203 179 241.5 Q208 280 235.5 315 Q263 350 285 379 Q307 408 319 425 L318 428 L58 428 L58 488 L406 488 L406 431 Q393 414 371 385 Q349 356 322 320.5 Q295 285 265.5 247 Q236 209 208.5 173.5 Q181 138 159 109 Q137 80 125 63 L126 61 Z M237 557 L199 570 L269 731 L351 716 L237 557 Z " />
<glyph glyph-name="Zdotaccent" unicode="&#x17b;" horiz-adv-x="553" d="M523 582 L126 69 L521 69 L521 0 L37 0 L37 68 L435 582 L56 582 L56 651 L523 651 L523 582 Z M338 755 Q338 737 324.5 723.5 Q311 710 292 710 Q273 710 260 723.5 Q247 737 247 755 Q247 775 260 788.5 Q273 802 292 802 Q311 802 324.5 788.5 Q338 775 338 755 Z " />
<glyph glyph-name="zdotaccent" unicode="&#x17c;" horiz-adv-x="450" d="M126 61 L406 61 L406 0 L39 0 L39 58 Q51 75 73 104 Q95 133 122.5 168 Q150 203 179 241.5 Q208 280 235.5 315 Q263 350 285 379 Q307 408 319 425 L318 428 L58 428 L58 488 L406 488 L406 431 Q393 414 371 385 Q349 356 322 320.5 Q295 285 265.5 247 Q236 209 208.5 173.5 Q181 138 159 109 Q137 80 125 63 L126 61 Z M288 626 Q288 608 274.5 594.5 Q261 581 242 581 Q223 581 210 594.5 Q197 608 197 626 Q197 646 210 659.5 Q223 673 242 673 Q261 673 274.5 659.5 Q288 646 288 626 Z " />
<glyph glyph-name="AEacute" unicode="&#x1fc;" horiz-adv-x="895" d="M448 182 L207 182 L95 0 L13 0 L410 651 L863 651 L863 582 L523 582 L523 382 L765 382 L765 313 L523 313 L523 69 L876 69 L876 0 L448 0 L448 182 Z M246 251 L448 251 L448 581 L246 251 Z M546 692 L521 724 L655 818 L717 762 L546 692 Z " />
<glyph glyph-name="aeacute" unicode="&#x1fd;" horiz-adv-x="805" d="M565 496 Q613 496 651 478 Q689 460 714.5 427.5 Q740 395 753.5 350.5 Q767 306 767 253 L767 217 L430 217 Q434 132 474.5 92 Q515 52 570 52 Q602 52 632.5 65 Q663 78 685 99 L728 54 Q689 19 651 4.5 Q613 -10 564 -10 Q515 -10 473.5 12 Q432 34 403 79 Q368 49 340.5 31.5 Q313 14 290 5 Q267 -4 246.5 -6.5 Q226 -9 206 -9 Q177 -9 148 -0.5 Q119 8 95.5 26.5 Q72 45 57.5 74.5 Q43 104 43 146 Q43 181 56.5 210 Q70 239 94.5 259.5 Q119 280 152.5 291 Q186 302 226 302 Q260 302 292 294 Q324 286 360 269 Q360 280 360.5 294 Q361 308 362 324 Q364 377 333 407 Q302 437 245 437 Q209 437 179.5 428.5 Q150 420 119 404 L94 461 Q129 478 167 488 Q205 498 253 498 Q314 498 353.5 474 Q393 450 410 408 Q436 450 476.5 473 Q517 496 565 496 Z M377 130 Q371 147 366.5 168.5 Q362 190 361 213 Q332 227 299.5 237 Q267 247 228 247 Q204 247 182 240.5 Q160 234 144 221 Q128 208 118.5 190 Q109 172 109 148 Q109 100 139 73 Q169 46 222 46 Q263 46 305 69.5 Q347 93 377 130 Z M696 273 Q696 306 688.5 335 Q681 364 664.5 386 Q648 408 622.5 421 Q597 434 562 434 Q536 434 513 423 Q490 412 472 391 Q454 370 443 340 Q432 310 430 273 L696 273 Z M437 556 L399 569 L469 730 L551 715 L437 556 Z " />
<glyph glyph-name="Oslashacute" unicode="&#x1fe;" horiz-adv-x="635" d="M589 326 Q589 250 569.5 188 Q550 126 514.5 82 Q479 38 429 14 Q379 -10 317 -10 Q261 -10 217 8 Q173 26 139 60 L81 -15 L47 12 L110 94 Q78 139 62 197.5 Q46 256 46 325 Q46 397 64.5 458.5 Q83 520 117.5 565 Q152 610 202.5 635.5 Q253 661 317 661 Q371 661 415 643 Q459 625 493 591 L555 671 L590 642 L524 556 Q555 512 572 454 Q589 396 589 326 Z M123 326 Q123 278 132 235.5 Q141 193 159 158 L449 533 Q425 561 392 576.5 Q359 592 317 592 Q269 592 232.5 572 Q196 552 172 516.5 Q148 481 135.5 432.5 Q123 384 123 326 Z M511 325 Q511 425 475 494 L185 119 Q209 90 242 74.5 Q275 59 317 59 Q366 59 402.5 80.5 Q439 102 463 138 Q487 174 499 222.5 Q511 271 511 325 Z M299 692 L274 724 L408 818 L470 762 L299 692 Z " />
<glyph glyph-name="oslashacute" unicode="&#x1ff;" horiz-adv-x="512" d="M468 246 Q468 185 451.5 137.5 Q435 90 406.5 57 Q378 24 339 7 Q300 -10 254 -10 Q175 -10 123 36 L80 -20 L46 3 L94 68 Q71 100 58 144.5 Q45 189 45 244 Q45 305 61 352.5 Q77 400 105.5 432 Q134 464 172.5 480.5 Q211 497 256 497 Q293 497 325.5 485.5 Q358 474 384 453 L424 506 L459 480 L415 421 Q440 389 454 345 Q468 301 468 246 Z M397 244 Q397 314 371 364 L165 92 Q202 53 258 53 Q293 53 319 68.5 Q345 84 362.5 110 Q380 136 388.5 170.5 Q397 205 397 244 Z M117 246 Q117 177 140 129 L344 400 Q327 417 304.5 426 Q282 435 254 435 Q221 435 195 420 Q169 405 152 379.5 Q135 354 126 319.5 Q117 285 117 246 Z M268 556 L230 569 L300 730 L382 715 L268 556 Z " />
<glyph glyph-name="Alphatonos" unicode="&#x386;" horiz-adv-x="621" d="M51 506 L13 519 L83 680 L165 665 L51 506 Z M446 222 Q413 309 379.5 394.5 Q346 480 314 568 L311 568 Q297 530 281 487.5 Q265 445 252 411 Q246 394 236 369 Q226 344 215.5 316.5 Q205 289 195.5 263.5 Q186 238 180 222 L446 222 Z M155 154 Q141 115 125.5 76.5 Q110 38 96 0 L17 0 Q82 164 145 325.5 Q208 487 273 651 L355 651 Q419 487 482.5 325.5 Q546 164 611 0 L531 0 Q516 38 501 76.5 Q486 115 472 154 L155 154 Z " />
<glyph glyph-name="iotadieresistonos" unicode="&#x390;" horiz-adv-x="233" d="M80 0 L80 487 L152 487 L152 0 L80 0 Z M290 627 Q290 609 277 596 Q264 583 247 583 Q229 583 215.5 596 Q202 609 202 627 Q202 646 215 658.5 Q228 671 247 671 Q264 671 277 658.5 Q290 646 290 627 Z M44 627 Q44 609 30.5 596 Q17 583 0 583 Q-18 583 -31 596 Q-44 609 -44 627 Q-44 646 -31 658.5 Q-18 671 0 671 Q17 671 30.5 658.5 Q44 646 44 627 Z M95 556 L57 570 L120 721 L203 706 L95 556 Z " />
<glyph glyph-name="Alpha" unicode="&#x391;" horiz-adv-x="621" d="M446 222 Q413 309 379.5 394.5 Q346 480 314 568 L311 568 Q297 530 281 487.5 Q265 445 252 411 Q246 394 236 369 Q226 344 215.5 316.5 Q205 289 195.5 263.5 Q186 238 180 222 L446 222 Z M155 154 Q141 115 125.5 76.5 Q110 38 96 0 L17 0 Q82 164 145 325.5 Q208 487 273 651 L355 651 Q419 487 482.5 325.5 Q546 164 611 0 L531 0 Q516 38 501 76.5 Q486 115 472 154 L155 154 Z " />
<glyph glyph-name="Beta" unicode="&#x392;" horiz-adv-x="595" d="M545 193 Q545 100 489 50 Q433 0 330 0 L68 0 L68 651 L334 651 Q416 651 466.5 609.5 Q517 568 517 490 Q517 445 492 407 Q467 369 423 354 L423 351 Q449 345 471.5 331 Q494 317 510.5 296 Q527 275 536 249 Q545 223 545 193 Z M140 583 L140 382 L330 382 Q383 382 412.5 411.5 Q442 441 442 484 Q442 529 415 556 Q388 583 334 583 L140 583 Z M140 314 L140 69 L332 69 Q401 69 434.5 102 Q468 135 468 192 Q468 251 429 282.5 Q390 314 330 314 L140 314 Z " />
<glyph glyph-name="Epsilon" unicode="&#x395;" horiz-adv-x="510" d="M66 0 L66 651 L481 651 L481 582 L141 582 L141 382 L383 382 L383 313 L141 313 L141 69 L494 69 L494 0 L66 0 Z " />
<glyph glyph-name="Zeta" unicode="&#x396;" horiz-adv-x="553" d="M523 582 L126 69 L521 69 L521 0 L37 0 L37 68 L435 582 L56 582 L56 651 L523 651 L523 582 Z " />
<glyph glyph-name="Eta" unicode="&#x397;" horiz-adv-x="622" d="M480 0 L480 305 L141 305 L141 0 L65 0 L65 651 L141 651 L141 375 L480 375 L480 651 L556 651 L556 0 L480 0 Z " />
<glyph glyph-name="Iota" unicode="&#x399;" horiz-adv-x="243" d="M83 0 L83 651 L160 651 L160 0 L83 0 Z " />
<glyph glyph-name="Kappa" unicode="&#x39a;" horiz-adv-x="579" d="M472 0 Q464 16 449 44 Q434 72 415.5 106.5 Q397 141 377 179 Q357 217 338.5 251.5 Q320 286 305 314.5 Q290 343 282 359 Q272 346 252.5 321.5 Q233 297 211.5 269.5 Q190 242 170.5 217.5 Q151 193 141 180 L141 0 L65 0 L65 651 L141 651 L141 286 L143 286 L229 401 L424 651 L512 651 L332 423 Q341 405 359 372 Q377 339 399.5 297.5 Q422 256 446 211.5 Q470 167 492 125.5 Q514 84 532 51 Q550 18 559 0 L472 0 Z " />
<glyph glyph-name="Mu" unicode="&#x39c;" horiz-adv-x="713" d="M569 481 L567 481 L509 343 Q487 295 465 246 Q443 197 422.5 152.5 Q402 108 384.5 70.5 Q367 33 354 6 Q324 66 296 128 Q284 154 271 183 Q258 212 245 241 Q232 270 219.5 298 Q207 326 197 352 Q191 366 182.5 387 Q174 408 166 428 Q158 448 152 463.5 Q146 479 145 482 L143 482 L143 0 L69 0 L69 651 L146 651 Q158 624 174.5 588 Q191 552 210 511 Q229 470 248 426.5 Q267 383 284 343 L354 179 L358 179 Q376 220 393.5 260 Q411 300 428 342 Q432 351 443 375 Q454 399 468 431 Q482 463 498 498 Q514 533 528 564 Q542 595 552.5 618.5 Q563 642 567 651 L643 651 L643 0 L569 0 L569 481 Z " />
<glyph glyph-name="Nu" unicode="&#x39d;" horiz-adv-x="610" d="M478 0 Q454 36 420.5 87.5 Q387 139 348.5 197.5 Q310 256 270.5 316.5 Q231 377 196 431 Q179 457 163.5 482 Q148 507 141 519 L139 519 L139 0 L64 0 L64 651 L138 651 Q196 562 253.5 475 Q311 388 369 300 Q381 282 394.5 261 Q408 240 421.5 218 Q435 196 447.5 175.5 Q460 155 471 139 L473 139 L473 651 L548 651 L548 0 L478 0 L478 0 Z " />
<glyph glyph-name="Omicron" unicode="&#x39f;" horiz-adv-x="635" d="M589 326 Q589 250 569.5 188 Q550 126 514.5 82 Q479 38 429 14 Q379 -10 317 -10 Q252 -10 202 15 Q152 40 117 84.5 Q82 129 64 190.5 Q46 252 46 325 Q46 397 64.5 458.5 Q83 520 117.5 565 Q152 610 202.5 635.5 Q253 661 317 661 Q379 661 429 637 Q479 613 514.5 568.5 Q550 524 569.5 462.5 Q589 401 589 326 Z M511 325 Q511 382 499 431 Q487 480 462.5 516 Q438 552 401.5 572 Q365 592 317 592 Q269 592 232.5 572 Q196 552 172 516.5 Q148 481 135.5 432.5 Q123 384 123 326 Q123 271 135 222.5 Q147 174 171.5 137.5 Q196 101 232.5 80 Q269 59 317 59 Q366 59 402.5 80.5 Q439 102 463 138 Q487 174 499 222.5 Q511 271 511 325 Z " />
<glyph glyph-name="Rho" unicode="&#x3a1;" horiz-adv-x="552" d="M540 454 Q540 403 524 365.5 Q508 328 479.5 302.5 Q451 277 411.5 264.5 Q372 252 324 252 L140 252 L140 0 L66 0 L66 651 L331 651 Q377 651 415 639 Q453 627 481 602 Q509 577 524.5 540 Q540 503 540 454 Z M140 583 L140 321 L329 321 Q393 321 428 355 Q463 389 463 452 Q463 515 426.5 549 Q390 583 330 583 L140 583 Z " />
<glyph glyph-name="Tau" unicode="&#x3a4;" horiz-adv-x="502" d="M291 582 L291 0 L217 0 L217 582 L19 582 L19 651 L490 651 L490 582 L291 582 Z " />
<glyph glyph-name="Upsilon" unicode="&#x3a5;" horiz-adv-x="560" d="M317 231 L317 0 L242 0 L242 231 L8 651 L94 651 L280 300 L467 651 L551 651 L317 231 Z " />
<glyph glyph-name="Chi" unicode="&#x3a7;" horiz-adv-x="549" d="M431 0 L273 270 L116 0 L29 0 L235 334 L42 651 L131 651 L275 402 L421 651 L506 651 L314 336 L519 0 L431 0 Z " />
<glyph glyph-name="Iotadieresis" unicode="&#x3aa;" horiz-adv-x="243" d="M83 0 L83 651 L160 651 L160 0 L83 0 Z M266 759 Q266 741 253 728 Q240 715 223 715 Q205 715 191.5 728 Q178 741 178 759 Q178 778 191 790.5 Q204 803 223 803 Q240 803 253 790.5 Q266 778 266 759 Z M74 759 Q74 741 60.5 728 Q47 715 30 715 Q12 715 -1.5 728 Q-15 741 -15 759 Q-15 778 -1.5 790.5 Q12 803 30 803 Q47 803 60.5 790.5 Q74 778 74 759 Z " />
</font>
</svg>
